<svg width="627" height="474" viewBox="0 0 627 474" fill="none" xmlns="http://www.w3.org/2000/svg">
<g clip-path="url(#clip0_361_1425)">
<path d="M258.442 328.415C258.442 344.774 245.746 358.036 230.084 358.036C214.422 358.036 201.727 344.774 201.727 328.415C201.727 328.045 201.732 327.676 201.747 327.309C202.035 310.953 214.966 297.942 230.625 298.247C246.283 298.553 258.739 312.06 258.447 328.415H258.442Z" fill="#6C63FF"/>
<path d="M220.097 341.57L211.93 330.673L213.864 329.221L220.518 338.099L246.715 316.654L248.247 318.527L220.097 341.57Z" fill="white"/>
<path d="M627 472.3H0V474H627V472.3Z" fill="#E6E6E6"/>
<path d="M412.828 166.533C413.415 166.802 413.979 167.117 414.516 167.475L468.155 144.568L470.068 130.43L491.502 130.299L490.235 162.727L419.437 181.464C419.288 181.956 419.109 182.438 418.901 182.908C417.877 185.094 416.231 186.928 414.169 188.18C412.107 189.432 409.721 190.047 407.311 189.947C404.901 189.847 402.574 189.037 400.623 187.618C398.671 186.199 397.183 184.235 396.343 181.972C395.504 179.71 395.351 177.249 395.905 174.9C396.458 172.551 397.693 170.418 399.454 168.769C401.215 167.119 403.424 166.028 405.804 165.63C408.183 165.233 410.626 165.548 412.827 166.536L412.828 166.533Z" fill="#E7BDA6"/>
<path d="M499.297 460.378H484.635L477.66 403.791H499.299L499.297 460.378Z" fill="#A0616A"/>
<path d="M474.159 456.186H502.436V473.995H456.355C456.355 469.27 458.231 464.739 461.57 461.398C464.909 458.057 469.437 456.18 474.159 456.18V456.186Z" fill="#2F2E41"/>
<path d="M556.318 456.232L541.727 457.668L529.242 402.039L550.777 399.922L556.318 456.232Z" fill="#A0616A"/>
<path d="M530.886 454.529L559.021 451.756L560.766 469.481L514.918 474C514.455 469.299 515.877 464.607 518.872 460.956C521.866 457.305 526.188 454.993 530.885 454.529H530.886Z" fill="#2F2E41"/>
<path d="M503.377 70.4105C519.599 70.4105 532.749 57.252 532.749 41.0202C532.749 24.7884 519.599 11.6299 503.377 11.6299C487.155 11.6299 474.004 24.7884 474.004 41.0202C474.004 57.252 487.155 70.4105 503.377 70.4105Z" fill="#E7BDA6"/>
<path d="M481.359 448.934C480.098 448.936 478.878 448.493 477.912 447.683C476.946 446.873 476.296 445.748 476.078 444.506C468.495 402.362 443.684 264.532 443.09 260.711C443.076 260.623 443.07 260.535 443.07 260.446V250.168C443.069 249.794 443.186 249.428 443.404 249.124L446.681 244.535C446.837 244.314 447.041 244.132 447.278 244.002C447.515 243.872 447.779 243.799 448.049 243.787C466.735 242.911 527.918 240.342 530.874 244.037C533.842 247.747 532.787 259.004 532.548 261.221L532.559 261.452L560.049 437.355C560.264 438.759 559.919 440.19 559.087 441.34C558.255 442.49 557.004 443.266 555.605 443.5L538.436 446.33C537.157 446.535 535.847 446.275 534.744 445.596C533.641 444.916 532.819 443.864 532.426 442.629C527.116 425.65 509.31 368.536 503.139 346.434C503.106 346.289 503.019 346.161 502.896 346.076C502.773 345.992 502.622 345.957 502.474 345.978C502.327 346 502.192 346.076 502.098 346.192C502.004 346.308 501.957 346.455 501.966 346.604C502.274 367.672 503.019 421.422 503.282 439.987L503.309 441.986C503.32 443.34 502.824 444.648 501.917 445.654C501.011 446.659 499.761 447.287 498.414 447.414L481.859 448.915C481.693 448.93 481.526 448.936 481.359 448.934Z" fill="#2F2E41"/>
<path d="M484.734 81.9676C479.608 85.0169 476.541 90.6191 474.781 96.33C471.522 106.886 469.561 117.799 468.94 128.829L467.079 161.854L444.051 249.412C464.01 266.31 475.521 262.469 502.389 248.647C529.256 234.826 532.324 253.255 532.324 253.255L537.697 178.755L545.372 97.3456C543.649 95.2698 541.698 93.3938 539.557 91.7528C532.463 86.2315 524.209 82.3935 515.416 80.5279C506.624 78.6623 497.523 78.8178 488.8 80.9826L484.734 81.9676Z" fill="#6C63FF"/>
<path d="M477.256 184.216C477.875 184.448 478.475 184.728 479.05 185.054L532.089 158.489L532.969 144.098L554.847 142.589L556.019 175.393L485.142 198.849C484.563 201.334 483.243 203.584 481.355 205.3C479.467 207.016 477.102 208.116 474.575 208.453C472.047 208.791 469.477 208.351 467.205 207.191C464.933 206.032 463.069 204.207 461.859 201.961C460.649 199.715 460.151 197.153 460.432 194.617C460.712 192.081 461.758 189.691 463.43 187.764C465.102 185.837 467.32 184.465 469.79 183.83C472.26 183.196 474.865 183.329 477.257 184.212L477.256 184.216Z" fill="#E7BDA6"/>
<path d="M544.992 97.7119C558.041 102.32 560.341 152.248 560.341 152.248C544.989 143.799 526.567 157.624 526.567 157.624C526.567 157.624 522.729 144.566 518.123 127.67C516.733 122.917 516.566 117.889 517.64 113.055C518.713 108.221 520.992 103.736 524.263 100.02C524.263 100.02 531.942 93.1015 544.992 97.7119Z" fill="#6C63FF"/>
<path d="M529.711 48.7904C526.051 45.861 521.059 51.1836 521.059 51.1836L518.131 24.8247C518.131 24.8247 499.834 27.0181 488.121 24.0921C476.407 21.1661 474.58 34.7152 474.58 34.7152C473.976 29.2434 473.853 23.7291 474.213 18.2358C474.946 11.6444 484.46 5.05298 501.295 0.658418C518.129 -3.73615 526.913 15.3064 526.913 15.3064C538.63 21.161 533.375 51.7233 529.711 48.7904Z" fill="#2F2E41"/>
<path d="M136.853 38.712C136.154 38.7133 135.484 38.9921 134.99 39.4871C134.496 39.9822 134.219 40.6531 134.219 41.3526C134.219 42.0522 134.496 42.7231 134.99 43.2182C135.484 43.7132 136.154 43.992 136.853 43.9933H329.533C330.232 43.992 330.902 43.7132 331.396 43.2182C331.89 42.7231 332.168 42.0522 332.168 41.3526C332.168 40.6531 331.89 39.9822 331.396 39.4871C330.902 38.9921 330.232 38.7133 329.533 38.712H136.853Z" fill="#CCCCCC"/>
<path d="M136.856 54.5557C136.156 54.5552 135.486 54.8325 134.99 55.3265C134.495 55.8206 134.216 56.4911 134.215 57.1908C134.213 57.8905 134.49 58.5621 134.983 59.0583C135.476 59.5544 136.145 59.8345 136.845 59.8369H258.659C259.006 59.8369 259.349 59.7686 259.669 59.6359C259.989 59.5032 260.28 59.3087 260.525 59.0635C260.77 58.8183 260.965 58.5272 261.097 58.2068C261.23 57.8865 261.298 57.5431 261.298 57.1963C261.298 56.8496 261.23 56.5062 261.097 56.1858C260.965 55.8654 260.77 55.5743 260.525 55.3291C260.28 55.0839 259.989 54.8894 259.669 54.7567C259.349 54.624 259.006 54.5557 258.659 54.5557H136.856Z" fill="#CCCCCC"/>
<path d="M327.121 18.5261C327.121 24.9291 322.151 30.1197 316.021 30.1197C309.891 30.1197 304.922 24.9291 304.922 18.5261C304.922 18.3809 304.924 18.2368 304.93 18.0929C305.043 11.6911 310.104 6.59857 316.233 6.71813C322.362 6.83768 327.237 12.1243 327.122 18.5261H327.121Z" fill="#6C63FF"/>
<path d="M312.111 23.675L308.914 19.4099L309.671 18.8413L312.276 22.316L322.529 13.9225L323.129 14.6556L312.111 23.675Z" fill="white"/>
<path d="M136.853 135.595C136.154 135.596 135.484 135.875 134.99 136.37C134.496 136.865 134.219 137.536 134.219 138.235C134.219 138.935 134.496 139.606 134.99 140.101C135.484 140.596 136.154 140.875 136.853 140.876H329.533C330.232 140.875 330.902 140.596 331.396 140.101C331.89 139.606 332.168 138.935 332.168 138.235C332.168 137.536 331.89 136.865 331.396 136.37C330.902 135.875 330.232 135.596 329.533 135.595H136.853Z" fill="#CCCCCC"/>
<path d="M136.856 151.438C136.156 151.438 135.486 151.715 134.99 152.209C134.495 152.703 134.216 153.374 134.215 154.073C134.213 154.773 134.49 155.445 134.983 155.941C135.476 156.437 136.145 156.717 136.845 156.72H258.659C259.359 156.72 260.03 156.441 260.525 155.946C261.02 155.451 261.298 154.779 261.298 154.079C261.298 153.379 261.02 152.707 260.525 152.212C260.03 151.717 259.359 151.438 258.659 151.438H136.856Z" fill="#CCCCCC"/>
<path d="M326.269 115.409C326.269 121.812 321.3 127.002 315.17 127.002C309.04 127.002 304.07 121.812 304.07 115.409C304.07 115.264 304.073 115.119 304.079 114.976C304.191 108.574 309.252 103.481 315.381 103.601C321.51 103.72 326.385 109.007 326.271 115.409H326.269Z" fill="#6C63FF"/>
<path d="M311.263 120.558L308.066 116.293L308.823 115.724L311.428 119.199L321.682 110.805L322.281 111.538L311.263 120.558Z" fill="white"/>
<path d="M136.853 232.477C136.154 232.479 135.484 232.757 134.99 233.253C134.496 233.748 134.219 234.419 134.219 235.118C134.219 235.818 134.496 236.488 134.99 236.984C135.484 237.479 136.154 237.757 136.853 237.759H329.533C330.232 237.757 330.902 237.479 331.396 236.984C331.89 236.488 332.168 235.818 332.168 235.118C332.168 234.419 331.89 233.748 331.396 233.253C330.902 232.757 330.232 232.479 329.533 232.477H136.853Z" fill="#CCCCCC"/>
<path d="M136.856 248.321C136.156 248.321 135.486 248.598 134.99 249.092C134.495 249.586 134.216 250.256 134.215 250.956C134.213 251.656 134.49 252.327 134.983 252.824C135.476 253.32 136.145 253.6 136.845 253.602H258.659C259.359 253.602 260.03 253.324 260.525 252.829C261.02 252.334 261.298 251.662 261.298 250.962C261.298 250.261 261.02 249.59 260.525 249.094C260.03 248.599 259.359 248.321 258.659 248.321H136.856Z" fill="#CCCCCC"/>
<path d="M326.269 212.291C326.269 218.694 321.3 223.885 315.17 223.885C309.04 223.885 304.07 218.694 304.07 212.291C304.07 212.146 304.073 212.002 304.079 211.858C304.191 205.456 309.252 200.364 315.381 200.483C321.51 200.603 326.385 205.89 326.271 212.291H326.269Z" fill="#6C63FF"/>
<path d="M311.263 217.44L308.066 213.175L308.823 212.607L311.428 216.081L321.682 207.688L322.281 208.421L311.263 217.44Z" fill="white"/>
</g>
<defs>
<clipPath id="clip0_361_1425">
<rect width="627" height="474" fill="white"/>
</clipPath>
</defs>
</svg>
