<svg width="692" height="510" viewBox="0 0 692 510" fill="none" xmlns="http://www.w3.org/2000/svg">
<path d="M588.871 508.336V451.784C588.871 451.784 610.887 491.877 588.871 508.336Z" fill="#F1F1F1"/>
<path d="M590.233 508.326L548.617 470.081C548.617 470.081 593.01 480.96 590.233 508.326Z" fill="#F1F1F1"/>
<path d="M149.306 0H49.7683L0 86.2911L49.7683 172.583H149.306L199.074 86.2911L149.306 0Z" fill="#E6E6E6"/>
<path d="M55.3542 162.897H143.719L187.901 86.2913L143.719 9.68573H55.3542L11.1719 86.2913L55.3542 162.897Z" fill="white"/>
<path d="M54.2875 67.5198C56.5389 67.5198 58.364 65.6927 58.364 63.439C58.364 61.1852 56.5389 59.3582 54.2875 59.3582C52.0361 59.3582 50.2109 61.1852 50.2109 63.439C50.2109 65.6927 52.0361 67.5198 54.2875 67.5198Z" fill="#E2E2E2"/>
<path d="M54.2875 90.3721C56.5389 90.3721 58.364 88.545 58.364 86.2913C58.364 84.0375 56.5389 82.2105 54.2875 82.2105C52.0361 82.2105 50.2109 84.0375 50.2109 86.2913C50.2109 88.545 52.0361 90.3721 54.2875 90.3721Z" fill="#E2E2E2"/>
<path d="M54.2875 113.225C56.5389 113.225 58.364 111.397 58.364 109.144C58.364 106.89 56.5389 105.063 54.2875 105.063C52.0361 105.063 50.2109 106.89 50.2109 109.144C50.2109 111.397 52.0361 113.225 54.2875 113.225Z" fill="#E2E2E2"/>
<path d="M148.864 60.1744H71.4102V66.7037H148.864V60.1744Z" fill="#E2E2E2"/>
<path d="M148.864 83.0267H71.4102V89.556H148.864V83.0267Z" fill="#E2E2E2"/>
<path d="M148.864 105.879H71.4102V112.408H148.864V105.879Z" fill="#E2E2E2"/>
<path d="M642.232 0H542.694L492.926 86.2911L542.694 172.583H642.232L692 86.2911L642.232 0Z" fill="#E6E6E6"/>
<path d="M548.28 162.897H636.645L680.827 86.2913L636.645 9.68573H548.28L504.098 86.2913L548.28 162.897Z" fill="white"/>
<path d="M547.213 67.5198C549.465 67.5198 551.29 65.6927 551.29 63.439C551.29 61.1852 549.465 59.3582 547.213 59.3582C544.962 59.3582 543.137 61.1852 543.137 63.439C543.137 65.6927 544.962 67.5198 547.213 67.5198Z" fill="#E2E2E2"/>
<path d="M547.213 90.3721C549.465 90.3721 551.29 88.5451 551.29 86.2913C551.29 84.0376 549.465 82.2106 547.213 82.2106C544.962 82.2106 543.137 84.0376 543.137 86.2913C543.137 88.5451 544.962 90.3721 547.213 90.3721Z" fill="#E2E2E2"/>
<path d="M547.213 113.225C549.465 113.225 551.29 111.398 551.29 109.144C551.29 106.89 549.465 105.063 547.213 105.063C544.962 105.063 543.137 106.89 543.137 109.144C543.137 111.398 544.962 113.225 547.213 113.225Z" fill="#E2E2E2"/>
<path d="M641.79 60.1744H564.336V66.7037H641.79V60.1744Z" fill="#E2E2E2"/>
<path d="M641.79 83.0267H564.336V89.556H641.79V83.0267Z" fill="#E2E2E2"/>
<path d="M641.79 105.879H564.336V112.408H641.79V105.879Z" fill="#E2E2E2"/>
<path d="M395.285 0.838013H296.715L247.43 86.2911L296.715 171.745H395.285L444.572 86.2911L395.285 0.838013Z" fill="#E6E6E6"/>
<path d="M302.245 162.153H389.752L433.505 86.2914L389.752 10.4297H302.245L258.492 86.2913L302.245 162.153Z" fill="white"/>
<path d="M301.189 67.7022C303.419 67.7022 305.226 65.8929 305.226 63.661C305.226 61.4292 303.419 59.6199 301.189 59.6199C298.96 59.6199 297.152 61.4292 297.152 63.661C297.152 65.8929 298.96 67.7022 301.189 67.7022Z" fill="#6C63FF"/>
<path d="M301.189 90.3325C303.419 90.3325 305.226 88.5232 305.226 86.2914C305.226 84.0595 303.419 82.2502 301.189 82.2502C298.96 82.2502 297.152 84.0595 297.152 86.2914C297.152 88.5232 298.96 90.3325 301.189 90.3325Z" fill="#6C63FF"/>
<path d="M301.189 112.963C303.419 112.963 305.226 111.154 305.226 108.922C305.226 106.69 303.419 104.881 301.189 104.881C298.96 104.881 297.152 106.69 297.152 108.922C297.152 111.154 298.96 112.963 301.189 112.963Z" fill="#6C63FF"/>
<path d="M394.847 60.4281H318.145V66.8939H394.847V60.4281Z" fill="#6C63FF"/>
<path d="M394.847 83.0584H318.145V89.5242H394.847V83.0584Z" fill="#6C63FF"/>
<path d="M394.847 105.689H318.145V112.155H394.847V105.689Z" fill="#6C63FF"/>
<path d="M430.035 500.114L420.461 500.114L415.906 463.146L430.036 463.147L430.035 500.114Z" fill="#9F616A"/>
<path d="M432.476 509.405L401.605 509.403V509.013C401.606 505.822 402.872 502.763 405.125 500.507C407.378 498.252 410.435 496.984 413.621 496.984H413.622L432.477 496.985L432.476 509.405Z" fill="#2F2E41"/>
<path d="M519.062 500.114L509.488 500.114L504.934 463.146L519.064 463.147L519.062 500.114Z" fill="#9F616A"/>
<path d="M521.504 509.405L490.633 509.403V509.013C490.633 505.822 491.899 502.763 494.152 500.507C496.406 498.252 499.462 496.984 502.649 496.984H502.649L521.504 496.985L521.504 509.405Z" fill="#2F2E41"/>
<path d="M426.22 312.514C426.22 312.514 418.184 334.349 419.332 343.543C420.48 352.737 411.296 417.094 412.444 422.84C413.592 428.587 411.295 457.317 412.444 461.914C413.592 466.511 409.221 472.002 411.517 476.599C413.814 481.196 417.036 490.645 417.036 490.645L431.96 489.496L434.256 476.854C434.256 476.854 441.144 475.705 439.996 468.81C438.848 461.914 445.737 415.945 445.737 415.945L465.253 351.588L492.806 410.199C492.806 410.199 493.954 451.571 497.398 456.168C500.842 460.765 493.954 473.407 497.398 478.004C500.842 482.6 504.287 490.645 504.287 490.645H521.507V481.451C521.507 481.451 531.84 475.705 521.507 458.467L514.525 354.942L507.637 307.823L426.22 312.514Z" fill="#2F2E41"/>
<path d="M469.013 168.009C480.855 168.009 490.455 158.398 490.455 146.544C490.455 134.689 480.855 125.079 469.013 125.079C457.17 125.079 447.57 134.689 447.57 146.544C447.57 158.398 457.17 168.009 469.013 168.009Z" fill="#A0616A"/>
<path d="M450.768 145.063C452.281 148.933 453.794 152.803 455.307 156.672C457.167 161.43 459.297 166.519 463.658 169.174C469.041 172.452 476.23 170.854 481.437 167.303C486.121 164.109 489.717 159.557 491.741 154.258C493.764 148.959 494.12 143.167 492.76 137.66C491.399 132.153 488.388 127.195 484.13 123.451C479.872 119.707 474.571 117.357 468.941 116.717L468.725 120.602L463.962 116.606C463.61 117.211 463.125 117.728 462.544 118.119C461.964 118.51 461.302 118.763 460.609 118.862C459.917 118.96 459.211 118.899 458.545 118.685C457.879 118.471 457.27 118.108 456.764 117.625C458.015 120.221 456.571 123.388 454.485 125.376C451.923 127.82 444.596 130.756 444.9 135.124C445.103 138.038 449.587 142.042 450.768 145.063Z" fill="#2F2E41"/>
<path d="M528.041 344.266C528.78 343.162 529.268 341.909 529.471 340.596C529.675 339.283 529.588 337.942 529.217 336.666C528.846 335.39 528.2 334.211 527.325 333.212C526.449 332.213 525.366 331.419 524.151 330.884L524.579 310.12L512.037 306.781L511.843 336.114C511.082 338.217 511.117 340.527 511.943 342.605C512.769 344.684 514.328 346.387 516.325 347.392C518.322 348.397 520.617 348.633 522.777 348.057C524.936 347.481 526.809 346.132 528.041 344.266Z" fill="#9F616A"/>
<path d="M484.945 181.275C484.945 181.275 468.328 172.958 452.635 178.503C436.942 184.047 428.634 190.516 428.634 190.516L438.788 244.113L424.941 316.192C424.941 316.192 496.022 310.647 502.484 316.192C508.946 321.736 508.946 309.723 508.946 309.723L503.407 241.34L513.561 197.908L484.945 181.275Z" fill="#3F3D56"/>
<path d="M414.814 345.495C415.833 344.643 416.653 343.579 417.216 342.375C417.779 341.172 418.072 339.86 418.073 338.531C418.075 337.203 417.786 335.89 417.226 334.685C416.666 333.48 415.849 332.413 414.833 331.559L421.068 311.749L409.966 305.02L401.554 333.119C400.233 334.923 399.62 337.15 399.829 339.377C400.039 341.604 401.058 343.677 402.692 345.203C404.327 346.728 406.464 347.601 408.698 347.655C410.932 347.708 413.108 346.94 414.814 345.495Z" fill="#9F616A"/>
<path d="M435.097 190.516H428.635C428.635 190.516 418.481 196.984 418.481 206.225C418.481 215.466 403.711 323.584 403.711 323.584L419.404 326.357L433.251 250.581L443.405 230.252L435.097 190.516Z" fill="#3F3D56"/>
<path d="M496.023 197.908H513.563C513.563 197.908 519.102 203.453 521.871 216.39C524.64 229.327 527.41 280.152 527.41 280.152L525.563 326.357H511.717L509.87 266.291L500.639 227.479L496.023 197.908Z" fill="#3F3D56"/>
<path d="M628.533 510H330.996C330.789 510 330.59 509.918 330.444 509.771C330.297 509.624 330.215 509.426 330.215 509.218C330.215 509.011 330.297 508.812 330.444 508.666C330.59 508.519 330.789 508.437 330.996 508.437H628.533C628.74 508.437 628.939 508.519 629.085 508.666C629.231 508.812 629.314 509.011 629.314 509.218C629.314 509.426 629.231 509.624 629.085 509.771C628.939 509.918 628.74 510 628.533 510Z" fill="#CBCBCB"/>
</svg>
