<svg width="768" height="529" viewBox="0 0 768 529" fill="none" xmlns="http://www.w3.org/2000/svg">
<g clip-path="url(#clip0_361_1453)">
<path opacity="0.1" d="M535.025 158.99C535.608 158.159 535.93 157.172 535.949 156.156C535.949 150.001 523.422 145.021 507.968 145.021C492.515 145.021 479.987 150.001 479.987 156.156C480.015 157.307 480.42 158.416 481.14 159.314C463.934 161.237 452.344 164.841 452.344 168.978C452.344 175.125 477.965 180.112 509.654 180.112C541.343 180.112 566.964 175.125 566.964 168.978C566.93 164.625 553.904 160.812 535.025 158.99Z" fill="#6C63FF"/>
<g opacity="0.2">
<path opacity="0.2" d="M613.607 481.708C613.365 483.465 613.268 485.239 613.317 487.012C625.067 487.201 636.868 487.597 648.721 488.2C648.802 487.741 648.883 487.262 648.95 486.782C649.71 481.837 649.14 476.777 647.298 472.125C644.858 466.166 640.307 461.908 634.609 461.092C628.912 460.275 623.356 463.076 619.345 468.076C616.251 472.026 614.27 476.733 613.607 481.708Z" fill="#3F3D56"/>
<path opacity="0.2" d="M653.052 458.513C654.888 445.726 648.465 434.223 638.705 432.819C628.945 431.414 619.544 440.641 617.708 453.428C615.871 466.214 622.295 477.718 632.055 479.122C641.815 480.526 651.216 471.299 653.052 458.513Z" fill="#3F3D56"/>
<path opacity="0.2" d="M657.111 430.221C658.947 417.434 652.524 405.931 642.764 404.527C633.004 403.122 623.603 412.349 621.766 425.136C619.93 437.922 626.353 449.426 636.114 450.83C645.874 452.234 655.274 443.007 657.111 430.221Z" fill="#3F3D56"/>
<path opacity="0.2" d="M661.173 401.922C663.009 389.136 656.586 377.632 646.826 376.228C637.066 374.824 627.665 384.051 625.829 396.837C623.993 409.623 630.416 421.127 640.176 422.531C649.936 423.935 659.337 414.708 661.173 401.922Z" fill="#3F3D56"/>
<path opacity="0.2" d="M665.236 373.623C667.072 360.837 660.648 349.333 650.888 347.929C641.128 346.525 631.728 355.752 629.891 368.538C628.055 381.324 634.478 392.828 644.238 394.232C653.998 395.636 663.399 386.409 665.236 373.623Z" fill="#3F3D56"/>
<path opacity="0.2" d="M741.485 186.942C744.34 184.203 747.005 181.272 749.461 178.169L704.126 163.883L754.289 171.481C760.614 161.68 764.874 150.691 766.809 139.185C768.744 127.679 768.313 115.898 765.542 104.565L693.156 129.851L761.84 93.0929C757.463 82.1911 750.889 72.3082 742.53 64.0596C734.17 55.811 724.204 49.3734 713.25 45.1477C702.297 40.922 690.591 38.9988 678.863 39.4978C667.135 39.9968 655.635 42.9074 645.079 48.0482C634.524 53.189 625.139 60.45 617.509 69.379C609.879 78.3079 604.167 88.7135 600.73 99.9478C597.293 111.182 596.203 123.004 597.529 134.678C598.855 146.353 602.569 157.628 608.438 167.803C603.99 172.051 600.011 176.766 596.572 181.867L652.344 221.871L591.185 191.045C584.755 203.744 581.592 217.848 581.98 232.08C582.369 246.311 586.297 260.221 593.41 272.551C581.796 283.633 573.532 297.764 569.563 313.325C565.594 328.887 566.08 345.253 570.966 360.551C575.853 375.849 584.941 389.463 597.193 399.835C609.445 410.207 624.365 416.919 640.249 419.204C656.132 421.489 672.338 419.254 687.012 412.755C701.686 406.256 714.237 395.756 723.23 382.454C732.223 369.152 737.295 353.586 737.865 337.535C738.436 321.484 734.482 305.597 726.456 291.689C740.332 278.444 749.358 260.916 752.085 241.919C754.811 222.923 751.081 203.561 741.492 186.942H741.485Z" fill="#6C63FF"/>
<path opacity="0.1" d="M582.81 217.572C580.05 236.569 583.782 255.943 593.402 272.551C581.788 283.633 573.524 297.764 569.555 313.325C565.586 328.887 566.073 345.253 570.959 360.551C575.845 375.85 584.933 389.463 597.185 399.835C609.437 410.207 624.357 416.919 640.241 419.204C656.124 421.489 672.33 419.254 687.004 412.755C701.678 406.256 714.229 395.756 723.222 382.454C732.215 369.152 737.287 353.586 737.857 337.535C738.428 321.484 734.474 305.597 726.448 291.689C739.859 278.908 584.172 208.064 582.81 217.572Z" fill="black"/>
</g>
<g opacity="0.2">
<path opacity="0.2" d="M112.234 456.692C112.5 458.216 112.895 459.715 113.414 461.173C122.993 458.086 132.67 455.162 142.447 452.4C142.393 451.995 142.332 451.577 142.258 451.158C141.565 446.861 139.756 442.82 137.012 439.443C133.446 435.171 128.618 432.891 123.777 433.788C118.936 434.686 115.174 438.512 113.252 443.803C111.798 447.937 111.447 452.38 112.234 456.692Z" fill="#3F3D56"/>
<path opacity="0.2" d="M126.229 449.485C134.556 448.166 139.878 438.058 138.115 426.908C136.353 415.757 128.174 407.787 119.847 409.106C111.52 410.424 106.198 420.532 107.961 431.683C109.723 442.833 117.902 450.803 126.229 449.485Z" fill="#3F3D56"/>
<path opacity="0.2" d="M124.034 425.408C132.38 424.058 137.683 413.903 135.878 402.727C134.074 391.551 125.845 383.586 117.499 384.936C109.153 386.286 103.85 396.44 105.654 407.616C107.459 418.792 115.688 426.758 124.034 425.408Z" fill="#3F3D56"/>
<path opacity="0.2" d="M117.733 400.259C126.06 398.941 131.381 388.833 129.619 377.682C127.857 366.532 119.677 358.562 111.351 359.88C103.024 361.199 97.7022 371.307 99.4647 382.457C101.227 393.607 109.406 401.578 117.733 400.259Z" fill="#3F3D56"/>
<path opacity="0.2" d="M113.491 375.642C121.818 374.323 127.139 364.215 125.377 353.065C123.614 341.915 115.435 333.944 107.108 335.263C98.7815 336.581 93.46 346.689 95.2225 357.84C96.985 368.99 105.164 376.96 113.491 375.642Z" fill="#3F3D56"/>
<path opacity="0.2" d="M137.424 176.677C139.013 173.625 140.394 170.469 141.557 167.23L100.968 167.864L143.688 160.326C146.368 149.86 146.8 138.944 144.955 128.299C143.346 118.878 139.964 109.849 134.99 101.69L82.9997 142.659L128.929 93.1739C112.693 73.4756 86.9238 62.9685 60.332 67.8677C20.5859 75.1694 -5.89129 114.094 1.12748 154.786C3.89784 171.224 12.081 186.263 24.3751 197.51C21.8894 202.269 19.9163 207.28 18.489 212.457L74.3965 230.279L16.5405 221.567C15.3353 229.642 15.4309 237.857 16.8237 245.902C19.594 262.34 27.7772 277.378 40.0713 288.625C32.31 303.487 29.6629 320.497 32.5401 337.017C39.5588 377.716 77.4441 404.77 117.163 397.448C156.882 390.127 183.386 351.209 176.368 310.51C173.594 294.075 165.412 279.039 153.12 267.793C160.88 252.928 163.527 235.917 160.651 219.394C157.883 202.962 149.708 187.926 137.424 176.677Z" fill="#6C63FF"/>
<path opacity="0.1" d="M16.8425 245.902C19.6129 262.34 27.796 277.378 40.0901 288.625C32.3289 303.487 29.6818 320.497 32.5589 337.017C39.5777 377.716 77.4629 404.77 117.182 397.448C156.901 390.127 183.405 351.209 176.387 310.51C173.613 294.075 165.431 279.039 153.139 267.793C160.616 253.473 15.4131 237.635 16.8425 245.902Z" fill="black"/>
</g>
<path d="M76.7617 400.445C76.7617 435.745 98.8833 464.304 126.224 464.304L76.7617 400.445Z" fill="#46455B"/>
<path d="M126.223 464.304C126.223 428.612 150.913 399.729 181.429 399.729L126.223 464.304Z" fill="#6C63FF"/>
<path d="M94.6836 403.643C94.6836 437.176 108.789 464.304 126.224 464.304L94.6836 403.643Z" fill="#6C63FF"/>
<path d="M126.223 464.304C126.223 418.699 154.763 381.792 190.032 381.792L126.223 464.304Z" fill="#46455B"/>
<path opacity="0.1" d="M355.893 502.445C546.174 502.445 700.427 497.312 700.427 490.98C700.427 484.648 546.174 479.515 355.893 479.515C165.612 479.515 11.3594 484.648 11.3594 490.98C11.3594 497.312 165.612 502.445 355.893 502.445Z" fill="#6C63FF"/>
<path opacity="0.1" d="M120.513 473.367C127.469 473.367 133.107 472.412 133.107 471.234C133.107 470.057 127.469 469.102 120.513 469.102C113.557 469.102 107.918 470.057 107.918 471.234C107.918 472.412 113.557 473.367 120.513 473.367Z" fill="#6C63FF"/>
<path d="M112.051 461.328C112.051 461.328 119.238 461.112 121.402 459.567C123.567 458.021 132.446 456.192 132.986 458.656C133.525 461.119 143.774 470.964 135.683 471.025C127.592 471.086 116.845 469.763 114.68 468.447C112.516 467.131 112.051 461.328 112.051 461.328Z" fill="#A8A8A8"/>
<path opacity="0.2" d="M135.818 470.168C127.727 470.229 116.973 468.9 114.815 467.584C113.17 466.585 112.509 462.981 112.294 461.321H112.051C112.051 461.321 112.509 467.125 114.667 468.441C116.824 469.757 127.565 471.086 135.669 471.019C138.009 471.019 138.818 470.168 138.777 468.933C138.454 469.689 137.557 470.155 135.818 470.168Z" fill="black"/>
<path d="M463.558 134.258C453.883 86.5336 412.417 50.5786 361.971 50.5786C321.888 50.5786 287.333 73.4014 270.053 106.59C228.587 110.74 196.109 146.013 196.109 188.919C196.109 234.565 233.421 271.923 279.04 271.923H458.724C496.73 271.923 527.833 240.793 527.833 202.753C527.906 185.274 521.283 168.432 509.327 155.691C497.371 142.95 480.992 135.28 463.558 134.258ZM384.079 175.051V227.621H339.849V175.051H292.855L361.964 105.915L431.073 175.085L384.079 175.051Z" fill="#6C63FF"/>
<g opacity="0.1">
<path opacity="0.1" d="M259.66 10.0271L259.768 9.96649C259.741 9.82839 259.72 9.68899 259.707 9.54883C259.704 9.57793 259.704 9.6073 259.707 9.63641C259.685 9.76571 259.669 9.89614 259.66 10.0271Z" fill="black"/>
<path opacity="0.1" d="M278.073 23.1332C277.84 25.0907 277.16 26.9682 276.084 28.6196C276.084 28.8221 276.084 29.0245 276.084 29.227C276.069 32.5412 274.777 35.7217 272.477 38.1067C270.178 40.4916 267.048 41.8973 263.74 42.0312C260.431 42.1651 257.198 41.0169 254.714 38.8255C252.23 36.6341 250.686 33.5683 250.403 30.2662C250.403 30.6171 250.355 30.941 250.355 31.3189C250.355 34.7338 251.711 38.0088 254.123 40.4235C256.536 42.8382 259.808 44.1947 263.22 44.1947C266.632 44.1947 269.904 42.8382 272.316 40.4235C274.729 38.0088 276.084 34.7338 276.084 31.3189C276.084 31.1097 276.084 30.9073 276.084 30.7048C277.162 29.0546 277.843 27.1766 278.073 25.2185C278.18 24.3565 278.195 23.4857 278.12 22.6204C278.141 22.7891 278.1 22.9645 278.073 23.1332Z" fill="black"/>
<path opacity="0.1" d="M275.574 9.54211C275.433 10.6247 275.073 11.6672 274.516 12.6058C274.745 12.8353 274.954 13.0782 275.19 13.3212C275.396 12.7518 275.536 12.1609 275.608 11.5599C275.684 10.8887 275.673 10.2104 275.574 9.54211Z" fill="black"/>
</g>
<g opacity="0.1">
<path opacity="0.1" d="M273.101 107.656C271.968 109.188 270.95 110.962 271.078 112.866C271.108 113.091 271.096 113.319 271.044 113.54C270.934 113.772 270.773 113.975 270.572 114.134C268.996 115.584 267.768 117.372 266.979 119.364C266.815 119.707 266.734 120.084 266.743 120.464C266.813 120.821 266.973 121.154 267.21 121.431C267.446 121.708 267.75 121.919 268.091 122.043C268.778 120.92 269.617 119.898 270.586 119.006C270.786 118.847 270.948 118.644 271.058 118.413C271.11 118.192 271.121 117.963 271.092 117.738C270.977 115.835 271.995 114.06 273.114 112.528C274.234 110.996 275.562 109.545 276.202 107.757C276.755 106.007 276.811 104.138 276.364 102.358C276.319 102.534 276.265 102.709 276.202 102.885C275.548 104.673 274.24 106.131 273.101 107.656Z" fill="black"/>
<path opacity="0.1" d="M247.164 95.077C247.388 95.0317 247.596 94.927 247.765 94.7738C247.935 94.6207 248.06 94.4247 248.128 94.2064C248.142 94.1192 248.142 94.0305 248.128 93.9432L247.838 94.1524C247.541 94.4002 247.309 94.7178 247.164 95.077Z" fill="black"/>
<path opacity="0.1" d="M226.99 137.956C225.428 137.736 223.893 137.351 222.412 136.808L208.927 132.382C208.418 133.844 207.821 135.275 207.141 136.667L222.412 141.681C223.893 142.223 225.428 142.608 226.99 142.828C228.479 142.955 229.977 142.882 231.447 142.612C231.4 141.013 231.366 139.386 231.325 137.76C229.895 138.014 228.438 138.08 226.99 137.956Z" fill="black"/>
<path opacity="0.1" d="M263.923 152.782C263.01 153.303 261.951 153.512 260.909 153.376C259.271 153.011 258.387 151.277 257.727 149.738L251.719 135.783C250.371 132.712 249.056 129.52 248.57 126.247C248.53 126.477 248.496 126.706 248.463 126.922C247.916 131.646 249.811 136.269 251.719 140.635L257.727 154.59C258.401 156.129 259.271 157.863 260.909 158.228C261.951 158.364 263.01 158.155 263.923 157.634C269.451 155.042 273.874 150.163 279.781 148.611C279.473 147.079 278.856 145.625 277.967 144.34C272.937 146.317 268.872 150.454 263.923 152.782Z" fill="black"/>
<path opacity="0.1" d="M253.031 108.87C250.684 111.435 247.192 112.528 244.124 114.154C242.283 115.133 240.557 116.321 238.73 117.279C236.906 118.311 234.852 118.868 232.756 118.898C231.846 118.898 230.821 118.723 230.113 119.303C230.262 120.822 230.7 122.3 230.949 123.804C231.548 123.723 232.154 123.71 232.756 123.764C234.851 123.736 236.905 123.181 238.73 122.151C240.577 121.193 242.303 120.005 244.124 119.027C246.147 117.954 248.351 117.117 250.293 115.929C251.372 113.644 252.287 111.285 253.031 108.87Z" fill="black"/>
</g>
<path d="M392.554 167.129C391.729 166.447 390.707 166.05 389.639 165.998C388.571 165.945 387.514 166.24 386.627 166.838C385.279 167.837 384.692 169.497 384.139 171.063C383.33 173.378 382.022 175.625 381.806 178.074C381.206 184.823 376.48 190.498 375.064 197.111C374.545 199.473 374.444 201.957 373.466 204.163C372.998 205.132 372.457 206.064 371.848 206.95C369.477 210.681 367.446 214.618 365.78 218.713C364.607 219.07 363.643 220.197 362.705 221.095C361.503 222.246 360.065 223.121 358.491 223.659C357.85 223.803 357.251 224.096 356.745 224.516C356.071 225.232 356.071 226.386 355.511 227.216C355.113 227.759 354.585 228.193 353.974 228.477C353.933 228.286 353.901 228.092 353.88 227.897C353.738 226.865 353.623 225.832 353.516 224.8C355.085 222.507 355.788 219.729 355.496 216.965C355.204 214.201 353.938 211.631 351.924 209.717C351.8 208.106 351.847 206.486 352.066 204.885C352.165 204.5 352.155 204.095 352.036 203.716C351.917 203.336 351.693 202.998 351.392 202.739C351.061 202.53 350.657 202.483 350.306 202.308C349.798 201.966 349.366 201.523 349.039 201.005C348.091 199.931 346.794 199.226 345.378 199.016C343.961 198.806 342.516 199.104 341.298 199.858C339.411 201.12 338.413 203.36 336.801 204.973C335.965 205.803 334.974 206.458 334.145 207.288C332.486 209.068 331.409 211.311 331.057 213.719C330.711 216.114 330.614 218.538 330.767 220.953C330.75 221.685 330.855 222.415 331.077 223.113C331.317 223.685 331.65 224.214 332.061 224.678C334.037 227.257 336.649 229.278 339.64 230.542C339.661 230.686 339.672 230.83 339.674 230.974C339.674 231.197 339.674 231.42 339.62 231.649L339.289 231.595C338.076 231.447 336.795 231.595 335.669 231.13C333.747 230.3 332.972 227.857 331.077 226.898C330.92 226.815 330.755 226.748 330.585 226.696C330.136 223.551 329.21 220.492 327.841 217.626C327.167 216.277 326.405 214.873 326.324 213.348C326.366 211.93 326.684 210.534 327.261 209.238C328.785 204.603 329.988 199.868 330.861 195.067C331.473 192.057 332.088 189.047 332.709 186.037C333.546 185.276 334.284 184.412 334.907 183.466C336.206 181.586 336.966 179.385 337.105 177.103C337.165 175.964 336.999 174.826 336.617 173.752C336.235 172.678 335.645 171.691 334.88 170.847C334.542 170.436 334.12 170.102 333.642 169.869C333.163 169.636 332.64 169.509 332.109 169.497C331.65 169.551 331.208 169.699 330.809 169.931C330.41 170.163 330.063 170.475 329.789 170.847C328.966 172.001 328.371 173.302 328.036 174.68C327.362 176.92 326.688 179.255 326.991 181.577C327.268 183.5 328.205 185.585 327.247 187.272C324.092 192.799 321.914 199.014 319.575 204.939C318.971 206.361 318.48 207.828 318.105 209.326C317.636 211.74 317.554 214.214 317.862 216.654C318.417 221.231 319.298 225.761 320.498 230.212C320.991 232.236 321.57 234.376 322.73 236.042C322.319 238.303 322.219 240.61 322.433 242.899C322.461 243.427 322.599 243.945 322.838 244.417C323.225 244.961 323.693 245.441 324.227 245.841C324.95 246.514 325.521 247.335 325.901 248.247C326.282 249.16 326.462 250.143 326.432 251.132C326.464 252.979 326.822 254.807 327.49 256.53C329.102 261.342 330.72 266.153 332.129 271.032C332.434 271.936 332.603 272.88 332.628 273.833C332.628 275.183 331.987 276.532 332.284 277.882C332.51 278.492 332.695 279.116 332.837 279.751C332.848 280.242 332.784 280.731 332.648 281.202C331.772 285.015 329.236 293.808 329.675 297.702L330.544 297.398C330.174 302.554 328.582 307.601 328.003 312.757C327.622 316.511 327.662 320.296 328.124 324.04C328.375 325.714 328.519 327.402 328.555 329.095C328.555 330.613 328.313 332.111 328.252 333.623C328.222 335.653 328.341 337.683 328.609 339.696C328.873 342.854 329.376 345.988 330.113 349.07C331.515 354.307 330.571 359.759 330.726 365.185C330.907 368.97 330.869 372.762 330.612 376.542C330.47 378.142 330.248 379.734 330.201 381.34C330.059 386.105 331.468 390.849 330.969 395.586C330.733 397.806 330.167 400.31 331.563 402.058C332.008 402.604 332.608 402.996 333.08 403.515C333.336 403.757 333.525 404.061 333.628 404.399C333.731 404.736 333.744 405.094 333.666 405.438C333.484 405.972 332.992 406.363 332.877 406.923C332.749 407.8 333.713 408.408 334.549 408.691L334.785 408.759C334.768 409.051 334.812 409.345 334.916 409.619C335.019 409.893 335.179 410.143 335.385 410.351C335.908 410.751 336.531 410.999 337.186 411.067L347.973 413.159C350.38 413.624 352.996 414.063 355.255 413.246C355.342 413.573 355.517 413.869 355.761 414.103C356.282 414.502 356.902 414.749 357.554 414.819L368.342 416.911C371.093 417.444 374.113 417.936 376.568 416.573C377.275 416.195 377.872 415.639 378.3 414.96C378.645 414.317 378.844 413.606 378.885 412.878C378.926 412.149 378.807 411.42 378.536 410.743C378.33 410.048 377.91 409.437 377.336 408.995C376.571 408.574 375.699 408.386 374.828 408.455C374.089 408.509 373.347 408.396 372.657 408.124C372.446 408.013 372.261 407.857 372.118 407.665C372.657 406.991 373.176 406.316 373.668 405.641C373.203 405.533 372.994 404.892 372.88 404.419C371.491 397.415 373.439 390.248 373.722 383.095C373.866 379.513 373.585 375.928 372.886 372.412C372.623 371.063 372.307 369.78 372.118 368.444C371.127 361.473 373.776 354.394 372.934 347.403C372.536 344.137 373.938 340.722 374.437 337.469C374.875 334.581 374.592 331.639 374.309 328.697L372.077 305.752C371.774 302.655 371.457 299.483 370.135 296.662C369.476 295.085 369.163 293.384 369.219 291.675C371.915 290.13 374.397 288.004 377.444 287.998C378.031 285.771 376.345 278.746 375.361 276.667C371.521 268.473 370.003 259.381 370.972 250.383C371.329 247.15 370.041 243.891 370.473 240.665C370.537 239.909 370.748 239.174 371.093 238.499C371.267 238.164 371.522 237.879 371.836 237.671C372.15 237.462 372.511 237.336 372.886 237.304C372.698 235.368 372.448 233.417 372.118 231.48C373.227 230.347 374.139 229.036 374.815 227.6C376.217 224.665 376.837 221.426 377.653 218.281C379.137 212.74 381.402 207.45 383.195 202.011C384.989 196.571 384.638 190.822 385.926 185.234C386.653 182.156 388.536 179.476 391.185 177.75C392.21 177.076 393.376 176.556 394.084 175.557C394.618 174.736 394.899 173.777 394.893 172.797C394.954 171.737 394.775 170.677 394.37 169.696C393.965 168.714 393.344 167.837 392.554 167.129ZM351.345 403.239C351.547 402.962 351.742 402.685 351.924 402.395C351.21 402.355 350.306 401.936 350.219 401.221C350.197 400.505 350.276 399.789 350.455 399.095C350.658 397.854 350.582 396.584 350.232 395.377C349.983 394.54 349.612 393.737 349.342 392.9C349.078 391.966 348.869 391.017 348.715 390.059C348.054 386.631 347.026 383.285 345.647 380.078C344.299 376.967 345.344 373.573 345.357 370.179C345.357 368.579 345.115 366.946 345.519 365.394C345.755 364.476 346.193 363.626 346.443 362.695C346.996 360.555 346.301 358.308 345.62 356.21C348.284 349.907 348.641 342.713 349.187 335.857C349.493 332.024 349.798 328.2 350.104 324.384C350.239 322.677 350.394 320.902 351.291 319.445C352.883 324.319 353.833 329.38 354.116 334.5C354.144 335.98 354.315 337.454 354.628 338.9C355.053 340.499 355.882 341.95 356.435 343.502C357.662 346.917 357.534 350.649 358.087 354.232C358.309 355.683 358.647 357.114 358.862 358.565C359.793 364.969 358.289 371.454 356.792 377.75C355.875 381.61 356.024 385.882 355.815 389.843C355.619 393.642 355.417 397.442 355.511 401.248C355.511 402.408 355.586 403.596 355.572 404.777C355.205 404.733 354.836 404.713 354.466 404.716C353.727 404.77 352.985 404.657 352.295 404.386C351.868 404.11 351.536 403.71 351.345 403.239Z" fill="url(#paint0_linear_361_1453)"/>
<path d="M374.86 408.502C375.73 408.435 376.6 408.62 377.368 409.035C377.938 409.478 378.357 410.086 378.568 410.776C378.837 411.45 378.955 412.175 378.913 412.899C378.871 413.623 378.67 414.329 378.325 414.967C377.897 415.642 377.299 416.193 376.593 416.566C374.138 417.916 371.118 417.437 368.367 416.911L357.579 414.839C356.929 414.782 356.307 414.549 355.779 414.164C355.451 413.804 355.245 413.349 355.188 412.865C355.131 412.381 355.227 411.891 355.462 411.465C355.933 410.613 356.634 409.911 357.485 409.44C360.586 407.51 364.227 406.741 367.787 406.329C369.136 406.167 370.396 405.735 371.408 406.673C371.947 407.166 371.92 407.78 372.675 408.178C373.371 408.446 374.117 408.557 374.86 408.502Z" fill="#3F3D56"/>
<path d="M354.48 404.791C355.348 404.723 356.217 404.909 356.982 405.324C357.556 405.762 357.976 406.372 358.182 407.065C358.454 407.738 358.574 408.462 358.533 409.187C358.492 409.911 358.292 410.618 357.946 411.256C357.515 411.929 356.918 412.48 356.213 412.855C353.759 414.205 350.738 413.725 347.981 413.199L337.193 411.121C336.543 411.064 335.92 410.831 335.393 410.446C335.064 410.086 334.856 409.632 334.798 409.148C334.74 408.664 334.835 408.174 335.069 407.746C335.554 406.894 336.266 406.193 337.125 405.722C340.22 403.799 343.868 403.056 347.428 402.618C348.776 402.449 350.037 402.024 351.048 402.955C351.581 403.448 351.561 404.062 352.309 404.46C352.999 404.73 353.741 404.843 354.48 404.791Z" fill="#3F3D56"/>
<path d="M351.822 290.069C345.586 290.095 339.36 290.571 333.193 291.493C332.785 291.531 332.386 291.636 332.013 291.804C330.705 292.478 330.664 294.314 330.698 295.785C330.786 301.771 328.743 307.568 328.069 313.506C327.682 317.235 327.72 320.995 328.183 324.715C328.428 326.381 328.572 328.06 328.615 329.743C328.615 331.241 328.365 332.732 328.305 334.237C328.273 336.245 328.39 338.252 328.655 340.243C328.919 343.381 329.422 346.494 330.159 349.556C331.554 354.759 330.61 360.178 330.759 365.563C330.939 369.323 330.896 373.091 330.631 376.846C330.489 378.438 330.267 380.018 330.219 381.617C330.078 386.341 331.48 391.065 330.981 395.788C330.745 397.988 330.172 400.512 331.568 402.213C332.013 402.753 332.613 403.144 333.078 403.664C333.333 403.903 333.521 404.204 333.625 404.537C333.729 404.87 333.745 405.225 333.671 405.567C333.483 406.1 332.963 406.491 332.883 407.045C332.748 407.915 333.712 408.522 334.548 408.799C337.732 409.777 341.148 409.696 344.283 408.568C347.417 407.441 350.103 405.327 351.936 402.543C351.222 402.503 350.318 402.085 350.231 401.376C350.209 400.664 350.289 399.953 350.467 399.264C350.673 398.032 350.597 396.77 350.244 395.572C350.001 394.736 349.624 393.939 349.361 393.109C349.098 392.182 348.888 391.24 348.734 390.289C348.077 386.88 347.051 383.554 345.673 380.368C344.324 377.278 345.376 373.904 345.39 370.543C345.39 368.95 345.154 367.324 345.551 365.785C345.787 364.868 346.226 364.024 346.482 363.086C347.035 360.96 346.34 358.733 345.659 356.648C348.356 350.386 348.693 343.206 349.24 336.403L350.163 324.931C350.298 323.237 350.46 321.469 351.35 320.025C352.942 324.864 353.892 329.892 354.175 334.979C354.197 336.452 354.367 337.92 354.681 339.359C355.105 340.938 355.928 342.382 356.488 343.928C357.708 347.302 357.58 351.02 358.133 354.583C358.355 356.027 358.686 357.444 358.901 358.889C359.832 365.252 358.321 371.71 356.818 377.953C355.901 381.786 356.043 386.051 355.834 389.971C355.631 393.744 355.429 397.516 355.523 401.295C355.604 404.77 355.874 408.502 354.006 411.417C356.097 412.484 358.254 413.57 360.587 413.773C363.301 413.917 365.98 413.105 368.159 411.478C370.315 409.855 372.189 407.887 373.708 405.654C373.236 405.546 373.033 404.905 372.919 404.44C371.53 397.482 373.485 390.336 373.775 383.25C373.918 379.694 373.639 376.133 372.946 372.642C372.683 371.292 372.359 370.017 372.17 368.694C371.193 361.77 373.842 354.732 373.006 347.774C372.615 344.521 374.018 341.134 374.517 337.895C374.955 335.027 374.678 332.105 374.395 329.216L372.177 306.441C371.88 303.357 371.563 300.205 370.242 297.405C368.664 294.031 369.642 289.874 369.473 286.155C363.904 288.609 357.906 289.939 351.822 290.069Z" fill="#46455B"/>
<path d="M364.849 222.62C366.684 217.604 369.068 212.806 371.956 208.314C372.565 207.432 373.106 206.504 373.574 205.54C374.558 203.354 374.659 200.884 375.179 198.535C376.628 191.962 381.361 186.321 381.968 179.64C382.184 177.204 383.492 174.97 384.308 172.669C384.854 171.11 385.474 169.464 386.796 168.472C387.683 167.879 388.737 167.587 389.802 167.638C390.868 167.689 391.889 168.081 392.715 168.755C393.522 169.454 394.158 170.33 394.573 171.314C394.988 172.298 395.171 173.364 395.109 174.43C395.112 175.403 394.83 176.355 394.3 177.17C393.585 178.162 392.426 178.695 391.401 179.35C388.758 181.055 386.872 183.713 386.135 186.773C384.84 192.327 385.191 198.029 383.391 203.435C381.591 208.84 379.345 214.104 377.842 219.63C376.999 222.755 376.399 225.974 374.99 228.889C373.581 231.804 371.187 234.436 368.039 235.185C367.84 233.179 367.321 231.217 366.501 229.375C365.557 227.243 364.054 224.786 364.849 222.62Z" fill="#EDCAA2"/>
<path d="M330.928 230.32C330.668 226.377 329.652 222.521 327.935 218.962C327.26 217.613 326.505 216.263 326.424 214.718C326.466 213.308 326.784 211.921 327.362 210.635C328.888 206.02 330.093 201.306 330.969 196.524L332.83 187.549C333.662 186.792 334.398 185.936 335.021 184.998C336.322 183.133 337.085 180.945 337.226 178.675C337.288 177.542 337.124 176.409 336.743 175.34C336.362 174.272 335.772 173.29 335.007 172.453C334.666 172.049 334.242 171.724 333.764 171.498C333.286 171.272 332.765 171.151 332.236 171.144C331.778 171.198 331.336 171.346 330.937 171.578C330.538 171.81 330.191 172.122 329.917 172.494C329.107 173.631 328.523 174.914 328.198 176.273C327.523 178.5 326.849 180.814 327.146 183.122C327.416 185.032 328.359 187.104 327.395 188.777C324.233 194.277 322.055 200.445 319.709 206.323C319.109 207.736 318.62 209.193 318.246 210.682C317.773 213.082 317.686 215.543 317.99 217.97C318.542 222.527 319.42 227.037 320.619 231.467C321.293 234.247 322.136 237.271 324.469 238.937C326.391 235.86 328.332 232.844 330.928 230.32Z" fill="#EDCAA2"/>
<path d="M344.08 231.096C350.474 231.096 355.657 225.908 355.657 219.509C355.657 213.11 350.474 207.922 344.08 207.922C337.687 207.922 332.504 213.11 332.504 219.509C332.504 225.908 337.687 231.096 344.08 231.096Z" fill="#EDCAA2"/>
<path d="M339.759 232.216C339.692 234.328 338.775 236.306 337.871 238.222C337.325 239.376 336.611 240.665 335.363 240.921C338.874 242.327 342.518 243.374 346.239 244.046C347.512 244.332 348.824 244.407 350.122 244.269C351.214 244.073 352.262 243.685 353.217 243.121C355.312 241.932 357.11 240.281 358.473 238.293C359.836 236.306 360.73 234.034 361.085 231.649C359.657 231.836 358.213 231.874 356.777 231.764C355.964 231.786 355.175 231.494 354.572 230.947C354.192 230.419 353.977 229.79 353.952 229.139C353.696 227.222 353.491 225.301 353.338 223.376C350.491 223.486 347.69 224.129 345.079 225.272C344 225.744 342.948 226.291 341.836 226.696C341.162 226.939 339.213 226.986 338.741 227.425C338.013 228.12 339.8 230.758 339.759 232.216Z" fill="#EDCAA2"/>
<path d="M345.566 238.695C345.282 237.194 344.534 235.821 343.429 234.769C342.323 233.716 340.915 233.038 339.403 232.83C338.19 232.689 336.909 232.83 335.783 232.378C333.861 231.548 333.052 229.125 331.191 228.174C329.33 227.222 326.917 228.106 325.541 229.699C324.166 231.292 323.586 233.458 323.168 235.482C322.52 238.29 322.308 241.181 322.541 244.053C322.573 244.579 322.713 245.094 322.952 245.564C323.338 246.104 323.804 246.582 324.334 246.981C325.057 247.647 325.628 248.46 326.008 249.366C326.389 250.272 326.57 251.249 326.539 252.232C326.563 254.08 326.919 255.909 327.591 257.63C329.202 262.408 330.82 267.193 332.223 272.038C332.529 272.934 332.697 273.871 332.722 274.818C332.688 276.168 332.048 277.518 332.378 278.833C332.598 279.44 332.78 280.06 332.924 280.689C332.935 281.177 332.871 281.664 332.735 282.133C331.852 285.926 329.317 294.658 329.755 298.525C335.506 296.406 344.184 295.151 350.279 294.476C351.955 294.283 353.641 294.184 355.329 294.179C359.374 294.179 363.615 294.942 367.391 293.457C370.89 292.107 373.796 288.855 377.558 288.841C378.145 286.634 376.459 279.657 375.482 277.592C371.646 269.459 370.134 260.422 371.113 251.483C371.463 248.27 370.182 245.031 370.62 241.826C370.683 241.075 370.891 240.344 371.234 239.673C371.411 239.34 371.668 239.056 371.983 238.847C372.297 238.639 372.658 238.512 373.034 238.479C372.586 233.453 371.603 228.489 370.101 223.673C369.555 221.959 368.571 219.975 366.777 219.86C365.159 219.752 363.966 221.21 362.799 222.35C361.595 223.494 360.157 224.362 358.585 224.894C357.941 225.036 357.34 225.33 356.832 225.751C356.158 226.46 356.158 227.614 355.598 228.451C354.628 229.949 352.146 230.09 351.553 231.764C351.428 232.256 351.341 232.757 351.29 233.262C351.015 234.247 350.462 235.133 349.699 235.813C348.581 237.102 347.161 238.092 345.566 238.695Z" fill="#2F2E41"/>
<path d="M352.165 206.289C352.265 205.907 352.254 205.505 352.135 205.129C352.015 204.753 351.792 204.418 351.491 204.163C351.136 203.996 350.771 203.85 350.399 203.725C349.893 203.38 349.464 202.934 349.138 202.416C348.189 201.345 346.893 200.644 345.478 200.437C344.063 200.229 342.62 200.529 341.405 201.282C339.51 202.537 338.519 204.764 336.901 206.363C336.071 207.193 335.08 207.841 334.244 208.671C332.589 210.435 331.509 212.662 331.149 215.055C330.803 217.436 330.706 219.847 330.86 222.249C330.839 222.977 330.944 223.703 331.17 224.395C331.412 224.962 331.744 225.486 332.154 225.947C334.209 228.634 336.964 230.703 340.117 231.926C343.286 233.046 346.987 232.911 349.819 231.096C350.103 230.939 350.336 230.705 350.493 230.421C350.628 230 350.628 229.547 350.493 229.125C350.155 227.444 350.317 225.701 350.958 224.111C351.521 223.004 352.02 221.867 352.455 220.704C352.732 219.371 352.769 218 352.563 216.655C352.233 213.213 351.633 209.744 352.165 206.289Z" fill="#46455B"/>
<path d="M548.051 385.97C548.051 452.359 589.665 506.089 641.095 506.089L548.051 385.97Z" fill="#46455B"/>
<path d="M641.094 506.089C641.094 438.944 687.528 384.62 744.926 384.62L641.094 506.089Z" fill="#6C63FF"/>
<path d="M581.762 391.949C581.762 455.018 608.293 506.056 641.094 506.056L581.762 391.949Z" fill="#6C63FF"/>
<path d="M641.094 506.09C641.094 420.298 694.769 350.878 761.107 350.878L641.094 506.09Z" fill="#46455B"/>
<path opacity="0.1" d="M637.055 529C649.831 529 660.188 527.248 660.188 525.086C660.188 522.924 649.831 521.172 637.055 521.172C624.279 521.172 613.922 522.924 613.922 525.086C613.922 527.248 624.279 529 637.055 529Z" fill="#6C63FF"/>
<path d="M621.516 506.899C621.516 506.899 634.71 506.494 638.688 503.66C642.666 500.826 658.99 497.438 659.974 501.987C660.958 506.535 679.803 524.593 664.909 524.715C650.016 524.836 630.294 522.393 626.323 519.991C622.352 517.589 621.516 506.899 621.516 506.899Z" fill="#A8A8A8"/>
<path opacity="0.2" d="M665.153 523.129C650.259 523.25 630.538 520.808 626.566 518.405C623.546 516.556 622.339 509.95 621.941 506.893H621.496C621.496 506.893 622.332 517.541 626.303 519.964C630.275 522.387 649.989 524.83 664.89 524.688C669.185 524.654 670.675 523.122 670.594 520.855C670.014 522.285 668.376 523.102 665.153 523.129Z" fill="black"/>
<path opacity="0.1" d="M549.856 24.6988C550.44 23.8673 550.761 22.8803 550.78 21.8645C550.78 15.7101 538.253 10.7298 522.799 10.7298C507.346 10.7298 494.819 15.7101 494.819 21.8645C494.831 23.009 495.217 24.118 495.918 25.0227C478.711 26.946 467.121 30.5496 467.121 34.6863C467.121 40.834 492.742 45.821 524.431 45.821C556.12 45.821 581.741 40.834 581.741 34.6863C581.761 30.3336 568.735 26.5208 549.856 24.6988Z" fill="#6C63FF"/>
<path opacity="0.1" d="M206.674 36.8458C207.257 36.0143 207.579 35.0273 207.597 34.0115C207.597 27.857 195.07 22.8768 179.617 22.8768C164.163 22.8768 151.636 27.857 151.636 34.0115C151.664 35.1623 152.069 36.2719 152.789 37.1697C135.582 39.093 123.992 42.6966 123.992 46.8333C123.992 52.981 149.647 57.968 181.302 57.968C212.957 57.968 238.612 52.981 238.612 46.8333C238.578 42.4806 225.552 38.6678 206.674 36.8458Z" fill="#6C63FF"/>
<path opacity="0.1" d="M403.375 27.4926C404.946 26.5816 407.07 27.4521 408.149 28.9232C409.227 30.3944 409.497 32.2974 409.8 34.0655C410.401 38.0605 410.839 42.6426 408.149 45.6456C412.545 32.3041 425.186 22.0872 439.163 20.5958" stroke="#6C63FF" stroke-width="3" stroke-miterlimit="10"/>
<path opacity="0.1" d="M178.496 95.637C179.507 95.0499 180.869 95.637 181.564 96.5548C182.182 97.5539 182.548 98.6889 182.629 99.8615C183.013 102.433 183.303 105.375 181.571 107.285C183.049 103 185.701 99.2185 189.224 96.3704C192.747 93.5222 196.999 91.7224 201.494 91.1764" stroke="#6C63FF" stroke-width="3" stroke-miterlimit="10"/>
<path opacity="0.1" d="M481.902 115.882C482.914 115.295 484.276 115.882 484.97 116.8C485.589 117.799 485.954 118.934 486.035 120.106C486.42 122.678 486.71 125.62 484.977 127.53C486.456 123.245 489.108 119.463 492.63 116.615C496.153 113.767 500.405 111.967 504.901 111.421" stroke="#6C63FF" stroke-width="3" stroke-miterlimit="10"/>
<path opacity="0.1" d="M457.031 342.78V326.382L464.582 333.94L466.47 331.983L455.682 321.186L444.895 331.983L446.782 333.866L454.334 326.382V342.78H457.031Z" fill="#6C63FF"/>
<path opacity="0.1" d="M293.863 396.767V380.369L301.414 387.927L303.302 385.97L292.514 375.172L281.727 385.97L283.614 387.852L291.166 380.369V396.767H293.863Z" fill="#6C63FF"/>
<path opacity="0.1" d="M413.878 444.68V428.282L421.43 435.84L423.318 433.883L412.53 423.085L401.742 433.883L403.63 435.765L411.181 428.282V444.68H413.878Z" fill="#6C63FF"/>
</g>
<defs>
<linearGradient id="paint0_linear_361_1453" x1="52267" y1="114168" x2="62214.9" y2="113141" gradientUnits="userSpaceOnUse">
<stop stop-color="#808080" stop-opacity="0.25"/>
<stop offset="0.54" stop-color="#808080" stop-opacity="0.12"/>
<stop offset="1" stop-color="#808080" stop-opacity="0.1"/>
</linearGradient>
<clipPath id="clip0_361_1453">
<rect width="768" height="529" fill="white"/>
</clipPath>
</defs>
</svg>
