<svg  viewBox="0 0 613 399" fill="none" xmlns="http://www.w3.org/2000/svg">
<g clip-path="url(#clip0_334_2006)">
<path d="M598.445 243.683H576.891C576.431 243.684 575.976 243.581 575.561 243.381C575.146 243.181 574.782 242.889 574.496 242.528C574.213 242.176 574.014 241.764 573.912 241.324C573.811 240.883 573.811 240.426 573.911 239.985C575.935 231.037 575.838 221.737 573.627 212.833C573.456 212.152 573.526 211.433 573.825 210.798C574.125 210.163 574.635 209.651 575.268 209.351C584.271 205.131 592.539 205.241 599.84 209.677C600.223 209.906 600.551 210.216 600.802 210.586C601.053 210.955 601.22 211.375 601.292 211.816C602.84 221.496 602.899 231.357 601.468 241.056C601.367 241.786 601.005 242.454 600.449 242.937C599.893 243.42 599.181 243.685 598.445 243.683Z" fill="#6C63FF"/>
<path d="M598.121 229.542H581.64C581.231 229.541 580.839 229.377 580.549 229.087C580.26 228.797 580.098 228.403 580.098 227.993C580.098 227.583 580.26 227.19 580.549 226.9C580.839 226.61 581.231 226.446 581.64 226.445H598.121C598.53 226.446 598.923 226.61 599.212 226.9C599.501 227.19 599.664 227.583 599.664 227.993C599.664 228.403 599.501 228.797 599.212 229.087C598.923 229.377 598.53 229.541 598.121 229.542Z" fill="white"/>
<path d="M598.121 224.112H581.64C581.231 224.111 580.839 223.947 580.549 223.657C580.26 223.367 580.098 222.974 580.098 222.564C580.098 222.154 580.26 221.76 580.549 221.47C580.839 221.18 581.231 221.016 581.64 221.015H598.121C598.53 221.016 598.923 221.18 599.212 221.47C599.501 221.76 599.664 222.154 599.664 222.564C599.664 222.974 599.501 223.367 599.212 223.657C598.923 223.947 598.53 224.111 598.121 224.112Z" fill="white"/>
<path opacity="0.1" d="M166.819 241.52C230.074 241.52 281.352 190.164 281.352 126.814C281.352 63.4637 230.074 12.1082 166.819 12.1082C103.564 12.1082 52.2852 63.4637 52.2852 126.814C52.2852 190.164 103.564 241.52 166.819 241.52Z" fill="#6C63FF"/>
<path d="M299.652 238.126C311.629 238.126 321.339 228.402 321.339 216.406C321.339 204.411 311.629 194.687 299.652 194.687C287.674 194.687 277.965 204.411 277.965 216.406C277.965 228.402 287.674 238.126 299.652 238.126Z" fill="#6C63FF" fill-opacity="0.1"/>
<path d="M408.763 286.995C413.629 286.995 417.574 283.044 417.574 278.171C417.574 273.298 413.629 269.348 408.763 269.348C403.898 269.348 399.953 273.298 399.953 278.171C399.953 283.044 403.898 286.995 408.763 286.995Z" fill="#6C63FF" fill-opacity="0.1"/>
<path d="M476.786 312.875C473.071 284.442 455.283 256.517 428.126 247.43C439 276.651 439.203 308.782 428.699 338.138C424.607 349.445 418.881 361.594 422.87 372.938C425.352 379.996 431.348 385.37 438.034 388.711C444.72 392.053 452.126 393.618 459.439 395.152L460.884 396.333C472.311 370.04 480.502 341.309 476.786 312.875Z" fill="#6C63FF" fill-opacity="0.1"/>
<path d="M427.859 247.97C443.753 265.577 453.703 287.752 456.297 311.345C456.822 316.403 456.915 321.579 455.842 326.575C454.759 331.436 452.396 335.918 448.998 339.556C445.898 343.011 442.327 346.186 440.12 350.336C437.794 354.71 437.735 359.663 439.376 364.283C441.385 369.935 445.301 374.528 449.287 378.886C453.713 383.724 458.386 388.68 460.295 395.12C460.527 395.9 461.722 395.495 461.491 394.716C458.169 383.511 447.248 377.205 441.994 367.127C439.543 362.425 438.492 356.955 440.73 351.96C442.687 347.592 446.366 344.315 449.535 340.844C452.862 337.199 455.406 333.207 456.699 328.401C458.021 323.485 458.13 318.294 457.737 313.245C456.759 301.802 453.992 290.584 449.535 280.002C444.515 267.897 437.465 256.741 428.688 247.017C428.145 246.415 427.32 247.372 427.859 247.97H427.859Z" fill="white"/>
<path d="M455.907 303.699C459.801 302.726 463.222 300.398 465.56 297.132C467.898 293.866 469.001 289.874 468.671 285.868C468.602 285.058 467.341 285.128 467.411 285.939C467.725 289.669 466.697 293.387 464.514 296.424C462.33 299.461 459.135 301.617 455.504 302.501C454.715 302.694 455.123 303.891 455.907 303.699Z" fill="white"/>
<path d="M450.801 338.011C443.732 333.845 438.49 327.163 436.12 319.298C435.886 318.518 434.691 318.923 434.925 319.702C437.405 327.882 442.874 334.824 450.241 339.144C450.943 339.555 451.5 338.42 450.801 338.011Z" fill="white"/>
<path d="M443.354 269.102C441.926 269.793 440.349 270.117 438.764 270.047C437.18 269.977 435.638 269.513 434.276 268.698C433.579 268.279 433.024 269.414 433.716 269.831C435.224 270.724 436.928 271.234 438.679 271.315C440.429 271.397 442.173 271.048 443.757 270.299C443.913 270.241 444.04 270.126 444.114 269.977C444.187 269.829 444.201 269.657 444.154 269.499C444.099 269.34 443.985 269.21 443.835 269.135C443.686 269.061 443.513 269.049 443.354 269.102V269.102Z" fill="white"/>
<path d="M345.852 298.786C346.279 299.061 346.707 299.335 347.135 299.62C352.866 303.342 358.286 307.524 363.34 312.125C363.737 312.474 364.133 312.834 364.519 313.195C376.579 324.409 386.455 337.768 393.645 352.593C396.501 358.495 398.904 364.605 400.834 370.872C403.499 379.527 405.701 389.124 410.912 396.184C411.448 396.927 412.028 397.636 412.651 398.307L459.332 398.007C459.438 397.953 459.544 397.91 459.651 397.856L461.515 397.929C461.438 397.599 461.351 397.258 461.274 396.928C461.23 396.736 461.176 396.545 461.132 396.353C461.1 396.225 461.067 396.097 461.044 395.98C461.034 395.938 461.023 395.895 461.012 395.863C460.99 395.746 460.957 395.639 460.935 395.533C460.454 393.627 459.959 391.72 459.45 389.814C459.45 389.804 459.45 389.804 459.44 389.793C455.523 375.279 450.362 360.965 443.195 347.891C442.98 347.498 442.764 347.094 442.527 346.7C439.264 340.825 435.527 335.227 431.354 329.961C429.059 327.085 426.621 324.327 424.048 321.698C417.386 314.918 409.701 309.23 401.275 304.841C384.476 296.096 365.07 292.828 347.212 298.351C346.755 298.492 346.308 298.634 345.852 298.786Z" fill="#6C63FF" fill-opacity="0.1"/>
<path d="M345.962 299.379C369.237 303.853 390.513 315.559 406.767 332.833C410.226 336.555 413.412 340.632 415.559 345.268C417.617 349.802 418.425 354.806 417.898 359.759C417.5 364.387 416.558 369.075 417.29 373.719C418.062 378.614 420.993 382.605 425.081 385.304C430.083 388.606 435.971 389.911 441.773 390.987C448.215 392.182 454.926 393.321 460.322 397.311C460.976 397.795 461.687 396.751 461.034 396.268C451.646 389.325 439.134 390.875 428.882 385.996C424.098 383.72 419.969 379.986 418.754 374.648C417.691 369.981 418.658 365.146 419.102 360.463C419.567 355.547 419.198 350.826 417.341 346.209C415.442 341.486 412.408 337.276 409.059 333.481C401.399 324.934 392.445 317.646 382.525 311.885C371.24 305.246 358.904 300.59 346.051 298.118C345.255 297.965 345.172 299.227 345.962 299.379Z" fill="white"/>
<path d="M401.859 326.962C404.383 323.838 405.715 319.916 405.618 315.899C405.522 311.881 404.002 308.029 401.331 305.03C400.789 304.425 399.824 305.24 400.368 305.846C402.86 308.634 404.275 312.223 404.358 315.965C404.44 319.706 403.184 323.354 400.817 326.249C400.303 326.879 401.348 327.589 401.859 326.962Z" fill="white"/>
<path d="M418.408 357.439C410.259 358.375 402.056 356.201 395.437 351.349C394.781 350.868 394.07 351.912 394.725 352.393C401.623 357.428 410.163 359.674 418.642 358.681C419.45 358.586 419.212 357.344 418.408 357.439Z" fill="white"/>
<path d="M371.034 306.91C370.309 308.322 369.245 309.533 367.938 310.432C366.631 311.331 365.121 311.891 363.544 312.061C362.735 312.146 362.974 313.388 363.777 313.303C365.518 313.107 367.185 312.487 368.632 311.496C370.079 310.506 371.261 309.176 372.076 307.623C372.165 307.483 372.198 307.314 372.167 307.151C372.136 306.988 372.045 306.842 371.911 306.744C371.773 306.651 371.603 306.615 371.439 306.646C371.274 306.677 371.129 306.772 371.034 306.91H371.034Z" fill="white"/>
<path d="M569.749 201.753L563.436 140.556L561.77 115.369L579.439 112.169C579.439 112.169 582.085 129.484 584.4 139.645C586.684 149.672 581.357 200.409 581.216 201.747C582.513 202.909 583.428 204.439 583.839 206.133C584.25 207.827 584.138 209.606 583.517 211.235C582.896 212.864 581.797 214.265 580.363 215.255C578.93 216.244 577.23 216.774 575.489 216.775C573.749 216.776 572.048 216.247 570.614 215.259C569.18 214.271 568.079 212.871 567.456 211.242C566.834 209.614 566.72 207.835 567.129 206.141C567.539 204.446 568.452 202.916 569.749 201.753Z" fill="#FFB8B8"/>
<path d="M497.543 389.654H488.554L484.277 354.931L497.544 354.931L497.543 389.654Z" fill="#FFB6B6"/>
<path d="M499.836 398.381L470.852 398.38V398.013C470.852 395.017 472.04 392.143 474.156 390.024C476.272 387.905 479.141 386.715 482.133 386.715H482.134L487.428 382.692L497.306 386.715L499.836 386.716L499.836 398.381Z" fill="#2F2E41"/>
<path d="M576.765 389.654H567.776L563.5 354.931L576.767 354.931L576.765 389.654Z" fill="#FFB6B6"/>
<path d="M579.058 398.381L550.074 398.38V398.013C550.074 395.017 551.263 392.143 553.379 390.024C555.494 387.905 558.364 386.715 561.356 386.715H561.356L566.651 382.692L576.529 386.715L579.059 386.716L579.058 398.381Z" fill="#2F2E41"/>
<path d="M563.093 203.81L570.653 275.743C570.653 275.743 580.718 347.768 578.828 357.706C576.938 367.644 579.301 369.064 579.301 369.064L562.054 367.833C562.054 367.833 562.526 361.681 559.691 358.842C556.856 356.003 558.274 347.484 558.274 347.484L524.818 230.312L504.499 291.833C504.499 291.833 501.192 359.506 500.719 360.453C500.247 361.399 498.829 374.177 498.829 374.177H481.345C481.345 374.177 483.708 366.605 480.4 364.239C477.092 361.872 474.257 363.765 477.092 359.506C479.928 355.247 480.873 350.041 479.928 347.675C478.983 345.309 478.983 335.844 478.983 335.844C478.983 335.844 480.4 208.07 488.433 203.81C496.466 199.551 563.093 203.81 563.093 203.81Z" fill="#2F2E41"/>
<path d="M527.287 58.1655C537.557 58.1655 545.883 49.8275 545.883 39.542C545.883 29.2565 537.557 20.9185 527.287 20.9185C517.017 20.9185 508.691 29.2565 508.691 39.542C508.691 49.8275 517.017 58.1655 527.287 58.1655Z" fill="#FFB8B8"/>
<path d="M582.417 121.932L564.128 128.501L558.558 130.5L554.492 78.4908L568.445 85.9023C568.469 85.9196 568.489 85.9403 568.507 85.9637C570.923 88.6365 572.946 91.6418 574.513 94.8882C582.165 110.468 582.417 121.932 582.417 121.932Z" fill="#3F3D56"/>
<path d="M456.428 197.359C456.428 197.359 475.016 139.518 475.341 138.825C477.776 120.308 484.778 112.141 485.828 113.027L503.901 119.298C503.901 119.298 498.526 136.347 494.886 146.474C491.408 156.151 467.589 200.827 466.92 201.994C467.638 203.582 467.858 205.351 467.55 207.067C467.243 208.783 466.422 210.365 465.198 211.604C463.973 212.843 462.401 213.68 460.691 214.005C458.981 214.33 457.212 214.127 455.619 213.423C454.027 212.719 452.685 211.548 451.771 210.064C450.858 208.58 450.415 206.853 450.503 205.112C450.591 203.371 451.204 201.697 452.262 200.313C453.32 198.929 454.773 197.898 456.428 197.359H456.428Z" fill="#FFB8B8"/>
<path d="M512.583 81.8403C512.583 81.8403 496.935 74.1599 490.866 89.2446C486.891 99.4177 485.009 103.855 482.355 114.451C482.355 114.451 498.306 116.848 503.42 125.875L512.583 81.8403Z" fill="#3F3D56"/>
<path d="M569.518 211.65C533.505 219.099 485.781 206.293 485.781 206.293L498.512 151.024L493.986 93.1845C493.433 86.1113 497.456 79.4811 503.714 77.1316L512.355 73.8902L519.497 63.6495L539.899 64.3199L548.054 75.0711L554.49 78.4908L568.444 85.9023L568.505 85.933V85.9637L564.126 128.501L561.485 154.149C561.485 154.149 569.506 182.995 567.86 186.821C566.214 190.64 567.645 188.795 568.044 190.837C568.444 192.879 569.666 193.008 569.85 197.03C570.04 201.047 569.518 211.65 569.518 211.65Z" fill="#3F3D56"/>
<path d="M547.461 32.9102C545.991 31.4583 548.203 27.6145 547.785 25.5899C547.306 23.2687 544.752 23.2007 544.143 20.9103C543.487 18.4463 540.866 17.1049 538.442 16.324C532.229 14.333 525.6 14.0289 519.231 15.4428C516.413 16.1321 513.637 16.9882 510.92 18.0069C509.044 18.668 510.853 16.8689 508.978 17.53C508.267 17.6885 507.641 18.1049 507.219 18.6987C506.882 19.3373 507.336 20.3585 508.046 20.2291C505.756 21.2405 503.466 22.252 501.176 23.2634C502.46 24.6107 503.744 25.9582 505.029 27.3057C503.203 26.7852 501.256 28.9654 501.976 30.7245C502.266 31.2798 502.686 31.7563 503.2 32.1129C503.715 32.4695 504.308 32.6955 504.929 32.7715C506.991 33.1735 505.427 35.1395 507.528 35.1012C509.629 35.0629 524.281 30.7495 525.302 32.5887C526.03 33.8984 525.95 35.6332 526.988 36.7123C528.317 38.0928 530.637 37.5879 532.328 36.6892C534.019 35.7905 535.734 34.5552 537.637 34.7707C539.623 34.9957 541.125 38.6716 541.615 40.6126C542.104 42.5537 541.795 44.596 541.483 46.5735C541.075 49.1706 536.981 51.7676 536.572 54.3647C541.115 55.623 545.989 51.6193 547.785 44.6567C547.606 40.2553 550.592 36.0041 547.461 32.9102Z" fill="#2F2E41"/>
<path d="M258.375 274.78C203.634 274.783 156.005 233.885 148.969 178.103L150.314 177.933C157.263 233.026 204.312 273.419 258.376 273.423C262.97 273.423 267.559 273.133 272.116 272.555C331.745 265.01 374.129 210.288 366.596 150.569L367.94 150.399C375.567 210.86 332.657 266.264 272.286 273.901C267.672 274.486 263.026 274.78 258.375 274.78Z" fill="#3F3D56"/>
<path d="M261.317 297.483H239.764C239.303 297.484 238.848 297.38 238.433 297.18C238.019 296.98 237.654 296.688 237.368 296.327C237.085 295.975 236.886 295.563 236.784 295.123C236.683 294.683 236.683 294.225 236.783 293.785C238.829 284.745 238.708 275.348 236.431 266.364C236.276 265.743 236.32 265.089 236.557 264.495C236.795 263.901 237.213 263.397 237.753 263.056C245.21 258.43 253.329 258.574 262.577 263.498C262.997 263.72 263.36 264.036 263.639 264.421C263.917 264.807 264.103 265.252 264.181 265.721C265.713 275.368 265.766 285.192 264.34 294.855C264.239 295.585 263.877 296.253 263.321 296.737C262.765 297.22 262.053 297.485 261.317 297.483Z" fill="#6C63FF"/>
<path d="M163.049 182.098H141.495C141.035 182.099 140.58 181.996 140.165 181.796C139.75 181.596 139.386 181.304 139.1 180.943C138.817 180.591 138.618 180.179 138.516 179.739C138.415 179.298 138.415 178.841 138.515 178.4C140.568 169.329 140.439 159.899 138.139 150.887C137.993 150.294 138.029 149.671 138.24 149.097C138.451 148.524 138.829 148.028 139.325 147.671C150.408 139.688 159.136 139.92 165.267 148.361C165.543 148.746 165.727 149.189 165.803 149.657C167.442 159.52 167.532 169.579 166.072 179.471C165.971 180.201 165.608 180.869 165.053 181.352C164.497 181.835 163.785 182.1 163.049 182.098Z" fill="#CCCCCC"/>
<path d="M251.246 277.223H243.832C243.422 277.223 243.03 277.059 242.741 276.769C242.451 276.479 242.289 276.085 242.289 275.675C242.289 275.265 242.451 274.872 242.741 274.582C243.03 274.291 243.422 274.128 243.832 274.127H251.246C251.656 274.127 252.05 274.29 252.339 274.58C252.629 274.871 252.792 275.265 252.792 275.675C252.792 276.086 252.629 276.48 252.339 276.77C252.05 277.06 251.656 277.223 251.246 277.223Z" fill="white"/>
<path d="M260.312 283.341H243.832C243.422 283.34 243.03 283.177 242.741 282.886C242.451 282.596 242.289 282.203 242.289 281.793C242.289 281.383 242.451 280.989 242.741 280.699C243.03 280.409 243.422 280.245 243.832 280.245H260.312C260.722 280.245 261.114 280.409 261.403 280.699C261.692 280.989 261.855 281.383 261.855 281.793C261.855 282.203 261.692 282.596 261.403 282.886C261.114 283.177 260.722 283.34 260.312 283.341Z" fill="white"/>
<path d="M156.363 160.482H148.949C148.54 160.481 148.147 160.317 147.858 160.027C147.569 159.737 147.406 159.343 147.406 158.933C147.406 158.523 147.569 158.13 147.858 157.84C148.147 157.549 148.54 157.386 148.949 157.385H156.363C156.773 157.386 157.165 157.549 157.455 157.84C157.744 158.13 157.906 158.523 157.906 158.933C157.906 159.343 157.744 159.737 157.455 160.027C157.165 160.317 156.773 160.481 156.363 160.482Z" fill="white"/>
<path d="M156.363 165.911H148.949C148.54 165.911 148.147 165.747 147.858 165.457C147.569 165.167 147.406 164.773 147.406 164.363C147.406 163.953 147.569 163.56 147.858 163.269C148.147 162.979 148.54 162.816 148.949 162.815H156.363C156.773 162.816 157.165 162.979 157.455 163.269C157.744 163.56 157.906 163.953 157.906 164.363C157.906 164.773 157.744 165.167 157.455 165.457C157.165 165.747 156.773 165.911 156.363 165.911Z" fill="white"/>
<path d="M156.363 171.341H148.949C148.54 171.34 148.147 171.177 147.858 170.887C147.569 170.596 147.406 170.203 147.406 169.793C147.406 169.383 147.569 168.99 147.858 168.699C148.147 168.409 148.54 168.246 148.949 168.245H156.363C156.773 168.246 157.165 168.409 157.455 168.699C157.744 168.99 157.906 169.383 157.906 169.793C157.906 170.203 157.744 170.596 157.455 170.887C157.165 171.177 156.773 171.34 156.363 171.341Z" fill="white"/>
<path d="M453.138 207.6H384.238C382.392 207.598 380.621 206.863 379.316 205.555C378.01 204.247 377.276 202.475 377.273 200.625V158.126C377.276 156.276 378.01 154.503 379.316 153.196C380.621 151.888 382.392 151.153 384.238 151.151H453.138C454.984 151.153 456.755 151.888 458.06 153.196C459.366 154.503 460.101 156.276 460.103 158.126V200.625C460.101 202.475 459.366 204.248 458.06 205.555C456.755 206.863 454.984 207.598 453.138 207.6Z" fill="#E6E6E6"/>
<path d="M425.763 202.126H389.082C387.352 202.124 385.694 201.435 384.471 200.211C383.248 198.986 382.561 197.326 382.559 195.594V163.157C382.561 161.425 383.248 159.765 384.471 158.54C385.694 157.315 387.352 156.627 389.082 156.625H448.295C450.024 156.627 451.682 157.315 452.905 158.54C454.128 159.765 454.816 161.425 454.818 163.157V173.028C454.809 180.743 451.745 188.139 446.298 193.594C440.851 199.049 433.466 202.118 425.763 202.126Z" fill="white"/>
<path d="M442.387 174.386H394.987C394.577 174.386 394.184 174.223 393.894 173.933C393.604 173.642 393.441 173.249 393.441 172.838C393.441 172.427 393.604 172.034 393.894 171.743C394.184 171.453 394.577 171.29 394.987 171.29H442.387C442.797 171.29 443.19 171.453 443.48 171.743C443.77 172.034 443.933 172.427 443.933 172.838C443.933 173.249 443.77 173.642 443.48 173.933C443.19 174.223 442.797 174.386 442.387 174.386Z" fill="#6C63FF"/>
<path d="M402.403 180.504H394.988C394.579 180.503 394.186 180.34 393.897 180.049C393.608 179.759 393.445 179.366 393.445 178.956C393.445 178.546 393.608 178.152 393.897 177.862C394.186 177.572 394.579 177.408 394.988 177.407H402.403C402.812 177.408 403.204 177.572 403.494 177.862C403.783 178.152 403.945 178.546 403.945 178.956C403.945 179.366 403.783 179.759 403.494 180.049C403.204 180.34 402.812 180.503 402.403 180.504Z" fill="#6C63FF"/>
<path d="M415.534 186.621H394.987C394.577 186.621 394.184 186.458 393.894 186.168C393.604 185.878 393.441 185.484 393.441 185.073C393.441 184.663 393.604 184.269 393.894 183.978C394.184 183.688 394.577 183.525 394.987 183.525H415.534C415.944 183.525 416.337 183.688 416.627 183.978C416.917 184.269 417.08 184.663 417.08 185.073C417.08 185.484 416.917 185.878 416.627 186.168C416.337 186.458 415.944 186.621 415.534 186.621Z" fill="#6C63FF"/>
<path d="M374.868 164.901C382.918 164.901 389.443 158.366 389.443 150.304C389.443 142.242 382.918 135.707 374.868 135.707C366.818 135.707 360.293 142.242 360.293 150.304C360.293 158.366 366.818 164.901 374.868 164.901Z" fill="#3F3D56"/>
<path d="M209.879 39.2644C210.844 34.3596 212.764 29.6931 215.529 25.5315C218.295 21.3698 221.852 17.7945 225.997 15.0095C234.369 9.38512 244.629 7.32173 254.52 9.27327C259.417 10.2396 264.076 12.1625 268.232 14.9322C272.387 17.702 275.957 21.2643 278.738 25.4158C281.519 29.5673 283.456 34.2266 284.439 39.1279C285.421 44.0291 285.431 49.0762 284.466 53.981L283.135 53.7187C285.015 44.1663 283.028 34.2576 277.612 26.1723C272.197 18.087 263.796 12.4875 254.258 10.6055C244.72 8.72357 234.826 10.7133 226.753 16.1371C218.679 21.5609 213.088 29.9744 211.209 39.5267L209.879 39.2644Z" fill="#3F3D56"/>
<path d="M224.314 63.2808L202.778 64.1741C202.318 64.1942 201.86 64.1097 201.437 63.9269C201.014 63.7441 200.638 63.4678 200.337 63.1188C200.04 62.7788 199.824 62.3758 199.704 61.94C199.585 61.5043 199.566 61.0472 199.648 60.6029C201.301 51.5779 200.819 42.2907 198.242 33.4857C198.043 32.8123 198.083 32.0907 198.356 31.4438C198.629 30.7969 199.117 30.2648 199.738 29.9382C208.559 25.3485 216.824 25.1158 224.302 29.2456C224.694 29.4589 225.035 29.7552 225.301 30.1139C225.567 30.4726 225.751 30.8851 225.842 31.3226C227.788 40.9307 228.255 50.7805 227.226 60.53C227.154 61.2636 226.82 61.9465 226.285 62.4523C225.749 62.958 225.049 63.2524 224.314 63.2808Z" fill="#6C63FF"/>
<path d="M223.402 49.1648L206.935 49.8479C206.733 49.8564 206.53 49.8249 206.339 49.755C206.148 49.6851 205.973 49.5783 205.824 49.4406C205.674 49.3029 205.553 49.137 205.468 48.9525C205.382 48.7679 205.334 48.5683 205.326 48.3651C205.317 48.1618 205.349 47.9589 205.419 47.7679C205.489 47.5769 205.596 47.4016 205.733 47.2519C205.871 47.1023 206.037 46.9813 206.221 46.8959C206.405 46.8105 206.605 46.7622 206.808 46.754L223.274 46.071C223.477 46.0626 223.679 46.0942 223.87 46.1642C224.06 46.2342 224.235 46.3411 224.385 46.4787C224.534 46.6164 224.655 46.7823 224.74 46.9667C224.826 47.1512 224.874 47.3507 224.882 47.5538C224.891 47.757 224.859 47.9598 224.789 48.1507C224.719 48.3416 224.613 48.5168 224.475 48.6664C224.338 48.816 224.172 48.9371 223.988 49.0226C223.804 49.1081 223.604 49.1564 223.402 49.1648Z" fill="white"/>
<path d="M223.178 43.7396L206.711 44.4226C206.302 44.4396 205.902 44.2929 205.601 44.0148C205.299 43.7368 205.12 43.35 205.103 42.9398C205.086 42.5295 205.232 42.1293 205.51 41.8272C205.788 41.525 206.174 41.3458 206.584 41.3288L223.05 40.6457C223.459 40.6287 223.859 40.7754 224.161 41.0535C224.462 41.3316 224.641 41.7183 224.658 42.1286C224.675 42.5389 224.529 42.9391 224.251 43.2412C223.973 43.5433 223.587 43.7226 223.178 43.7396Z" fill="white"/>
<path d="M365.247 56.4499H296.347C294.501 56.4478 292.731 55.7122 291.425 54.4046C290.119 53.097 289.385 51.324 289.383 49.4747V6.97518C289.385 5.12589 290.119 3.35294 291.425 2.0453C292.731 0.737652 294.501 0.00209645 296.347 0H365.247C367.094 0.00208926 368.864 0.737642 370.17 2.04529C371.475 3.35293 372.21 5.12589 372.212 6.97518V49.4747C372.21 51.324 371.475 53.097 370.17 54.4046C368.864 55.7123 367.094 56.4478 365.247 56.4499Z" fill="#E6E6E6"/>
<path d="M337.873 50.9756H301.191C299.462 50.9737 297.804 50.2849 296.581 49.0602C295.358 47.8356 294.67 46.1751 294.668 44.4432V12.0066C294.67 10.2746 295.358 8.61418 296.581 7.38953C297.804 6.16488 299.462 5.47603 301.191 5.47412H360.405C362.134 5.47604 363.792 6.1649 365.015 7.38956C366.237 8.61422 366.925 10.2747 366.927 12.0066V21.8777C366.918 29.5923 363.855 36.9885 358.408 42.4435C352.961 47.8985 345.576 50.967 337.873 50.9756Z" fill="white"/>
<path d="M354.496 23.2357H307.097C306.687 23.2357 306.293 23.0726 306.004 22.7822C305.714 22.4919 305.551 22.0981 305.551 21.6875C305.551 21.2769 305.714 20.8831 306.004 20.5927C306.293 20.3024 306.687 20.1393 307.097 20.1393H354.496C354.906 20.1393 355.299 20.3024 355.589 20.5927C355.879 20.8831 356.042 21.2769 356.042 21.6875C356.042 22.0981 355.879 22.4919 355.589 22.7822C355.299 23.0726 354.906 23.2357 354.496 23.2357Z" fill="#6C63FF"/>
<path d="M314.512 29.3534H307.097C306.688 29.3525 306.296 29.189 306.006 28.8987C305.717 28.6085 305.555 28.2152 305.555 27.8051C305.555 27.395 305.717 27.0017 306.006 26.7115C306.296 26.4212 306.688 26.2577 307.097 26.2568H314.512C314.921 26.2577 315.314 26.4212 315.603 26.7115C315.892 27.0017 316.055 27.395 316.055 27.8051C316.055 28.2152 315.892 28.6085 315.603 28.8987C315.314 29.189 314.921 29.3525 314.512 29.3534Z" fill="#6C63FF"/>
<path d="M327.643 35.471H307.097C306.687 35.471 306.294 35.3079 306.004 35.0175C305.714 34.7271 305.551 34.3333 305.551 33.9227C305.551 33.5121 305.714 33.1183 306.004 32.8279C306.294 32.5376 306.687 32.3745 307.097 32.3745H327.643C328.053 32.3753 328.445 32.5388 328.734 32.8291C329.024 33.1193 329.186 33.5127 329.186 33.9227C329.186 34.3328 329.024 34.7261 328.734 35.0164C328.445 35.3066 328.053 35.4701 327.643 35.471Z" fill="#6C63FF"/>
<path d="M297.572 63.8071C301.822 56.9604 299.725 47.9599 292.889 43.7039C286.052 39.4479 277.065 41.5481 272.816 48.3948C268.566 55.2414 270.663 64.2419 277.499 68.4979C284.336 72.7539 293.323 70.6537 297.572 63.8071Z" fill="#3F3D56"/>
<path d="M612.376 399H412.131C411.966 399 411.807 398.934 411.69 398.817C411.573 398.7 411.508 398.542 411.508 398.376C411.508 398.211 411.573 398.052 411.69 397.935C411.807 397.818 411.966 397.752 412.131 397.752H612.376C612.541 397.752 612.699 397.818 612.816 397.935C612.933 398.052 612.999 398.211 612.999 398.376C612.999 398.542 612.933 398.7 612.816 398.817C612.699 398.934 612.541 399 612.376 399Z" fill="#CCCCCC"/>
<path d="M91.036 169.975C85.0562 154.143 85.601 136.58 92.5506 121.151C99.5002 105.722 112.285 93.6889 128.093 87.7001C143.901 81.7113 161.437 82.2569 176.844 89.2169C192.25 96.177 204.265 108.981 210.244 124.813L208.976 125.294C206.079 117.621 201.7 110.596 196.091 104.618C190.482 98.6404 183.753 93.8277 176.286 90.4547C168.82 87.0818 160.764 85.2146 152.577 84.9599C144.391 84.7051 136.234 86.0678 128.573 88.97C120.912 91.8723 113.897 96.2572 107.929 101.875C101.96 107.492 97.1545 114.232 93.7866 121.709C90.4187 129.186 88.5543 137.255 88.3 145.454C88.0456 153.653 89.4062 161.822 92.3041 169.494L91.036 169.975Z" fill="#3F3D56"/>
<path d="M146.784 106.759H125.23C124.769 106.76 124.315 106.657 123.9 106.457C123.485 106.256 123.121 105.965 122.834 105.604C122.552 105.251 122.352 104.84 122.251 104.4C122.149 103.959 122.149 103.502 122.25 103.061C124.29 94.0422 124.175 84.6681 121.913 75.7022C121.752 75.0677 121.802 74.3983 122.053 73.7941C122.304 73.19 122.744 72.6836 123.307 72.351C131.115 67.7994 139.453 67.9382 148.088 72.7649C148.497 72.9882 148.849 73.302 149.119 73.6825C149.388 74.0629 149.567 74.4999 149.642 74.9602C151.179 84.6189 151.235 94.456 149.807 104.131C149.705 104.861 149.343 105.53 148.787 106.013C148.231 106.496 147.52 106.761 146.784 106.759Z" fill="#6C63FF"/>
<path d="M136.711 85.8211H129.297C128.887 85.8202 128.495 85.6567 128.206 85.3664C127.916 85.0762 127.754 84.6829 127.754 84.2728C127.754 83.8627 127.916 83.4694 128.206 83.1792C128.495 82.8889 128.887 82.7254 129.297 82.7245H136.711C137.121 82.7254 137.513 82.8889 137.802 83.1792C138.091 83.4694 138.254 83.8627 138.254 84.2728C138.254 84.6829 138.091 85.0762 137.802 85.3664C137.513 85.6567 137.121 85.8202 136.711 85.8211Z" fill="white"/>
<path d="M145.776 91.9387H129.296C128.886 91.9387 128.493 91.7756 128.203 91.4852C127.913 91.1949 127.75 90.8011 127.75 90.3904C127.75 89.9798 127.913 89.586 128.203 89.2956C128.493 89.0053 128.886 88.8422 129.296 88.8422H145.776C146.186 88.843 146.578 89.0065 146.867 89.2968C147.157 89.5871 147.319 89.9804 147.319 90.3904C147.319 90.8005 147.157 91.1938 146.867 91.4841C146.578 91.7743 146.186 91.9378 145.776 91.9387Z" fill="white"/>
<path d="M75.8645 169.119H6.96467C5.11816 169.117 3.34788 168.382 2.0422 167.074C0.736522 165.766 0.00208252 163.993 0 162.144V119.645C0.00208252 117.795 0.736522 116.022 2.0422 114.715C3.34788 113.407 5.11816 112.672 6.96467 112.669H75.8645C77.711 112.672 79.4813 113.407 80.787 114.715C82.0927 116.022 82.8271 117.795 82.8292 119.645V162.144C82.8271 163.993 82.0927 165.766 80.787 167.074C79.4813 168.382 77.711 169.117 75.8645 169.119Z" fill="#E6E6E6"/>
<path d="M48.4897 163.645H11.8081C10.0788 163.643 8.42079 162.954 7.19792 161.73C5.97504 160.505 5.28715 158.845 5.28516 157.113V124.676C5.28715 122.944 5.97504 121.284 7.19792 120.059C8.42079 118.834 10.0788 118.146 11.8081 118.144H71.0217C72.7511 118.146 74.409 118.834 75.6318 120.059C76.8546 121.284 77.5425 122.944 77.5444 124.676V134.547C77.5356 142.262 74.4717 149.658 69.0248 155.113C63.5779 160.568 56.1928 163.636 48.4897 163.645Z" fill="white"/>
<path d="M65.1135 135.905H17.7138C17.3038 135.905 16.9106 135.742 16.6207 135.452C16.3308 135.161 16.168 134.768 16.168 134.357C16.168 133.946 16.3308 133.553 16.6207 133.262C16.9106 132.972 17.3038 132.809 17.7138 132.809H65.1135C65.5235 132.809 65.9167 132.972 66.2066 133.262C66.4965 133.553 66.6593 133.946 66.6593 134.357C66.6593 134.768 66.4965 135.161 66.2066 135.452C65.9167 135.742 65.5235 135.905 65.1135 135.905Z" fill="#6C63FF"/>
<path d="M25.1291 142.023H17.7146C17.3051 142.022 16.9127 141.858 16.6235 141.568C16.3343 141.278 16.1719 140.885 16.1719 140.475C16.1719 140.064 16.3343 139.671 16.6235 139.381C16.9127 139.091 17.3051 138.927 17.7146 138.926H25.1291C25.5386 138.927 25.9309 139.091 26.2202 139.381C26.5094 139.671 26.6718 140.064 26.6718 140.475C26.6718 140.885 26.5094 141.278 26.2202 141.568C25.9309 141.858 25.5386 142.022 25.1291 142.023Z" fill="#6C63FF"/>
<path d="M38.2612 148.14H17.7146C17.3051 148.14 16.9127 147.976 16.6235 147.686C16.3343 147.396 16.1719 147.002 16.1719 146.592C16.1719 146.182 16.3343 145.789 16.6235 145.499C16.9127 145.208 17.3051 145.045 17.7146 145.044H38.2612C38.6712 145.044 39.0644 145.207 39.3543 145.497C39.6442 145.788 39.8071 146.182 39.8071 146.592C39.8071 147.003 39.6442 147.397 39.3543 147.687C39.0644 147.977 38.6712 148.14 38.2612 148.14Z" fill="#6C63FF"/>
<path d="M103.069 175.119C107.318 168.272 105.221 159.272 98.3848 155.016C91.5484 150.76 82.5614 152.86 78.3118 159.707C74.0622 166.553 76.1592 175.554 82.9956 179.81C89.832 184.066 98.819 181.966 103.069 175.119Z" fill="#3F3D56"/>
<path d="M220.652 147.483H199.098C198.638 147.484 198.183 147.381 197.768 147.18C197.353 146.98 196.989 146.689 196.703 146.327C196.42 145.975 196.22 145.564 196.119 145.123C196.018 144.683 196.017 144.226 196.118 143.785C198.155 134.782 198.043 125.425 195.793 116.473C195.633 115.829 195.687 115.152 195.947 114.542C196.207 113.932 196.658 113.424 197.232 113.094C207.703 107.092 215.994 107.257 222.579 113.601C223.04 114.053 223.344 114.643 223.446 115.281C225.046 125.068 225.123 135.045 223.675 144.855C223.573 145.585 223.211 146.254 222.655 146.737C222.1 147.22 221.388 147.485 220.652 147.483Z" fill="#FF6584"/>
<path d="M211.938 127.224H204.523C204.114 127.223 203.721 127.059 203.432 126.769C203.143 126.479 202.98 126.086 202.98 125.675C202.98 125.265 203.143 124.872 203.432 124.582C203.721 124.292 204.114 124.128 204.523 124.127H211.938C212.347 124.128 212.74 124.292 213.029 124.582C213.318 124.872 213.48 125.265 213.48 125.675C213.48 126.086 213.318 126.479 213.029 126.769C212.74 127.059 212.347 127.223 211.938 127.224Z" fill="white"/>
<path d="M221.003 133.341H204.522C204.112 133.341 203.719 133.178 203.429 132.888C203.139 132.598 202.977 132.204 202.977 131.793C202.977 131.382 203.139 130.989 203.429 130.698C203.719 130.408 204.112 130.245 204.522 130.245H221.003C221.412 130.246 221.805 130.409 222.094 130.699C222.383 130.99 222.546 131.383 222.546 131.793C222.546 132.203 222.383 132.596 222.094 132.887C221.805 133.177 221.412 133.34 221.003 133.341Z" fill="white"/>
</g>
<defs>
<clipPath id="clip0_334_2006">
<rect width="613" height="399" fill="white"/>
</clipPath>
</defs>
</svg>
