<svg  viewBox="0 0 650 484" fill="none" xmlns="http://www.w3.org/2000/svg">
<g clip-path="url(#clip0_334_2260)">
<path d="M353.656 49.3627C362.132 49.3627 369.003 42.4954 369.003 34.0242C369.003 25.553 362.132 18.6857 353.656 18.6857C345.18 18.6857 338.309 25.553 338.309 34.0242C338.309 42.4954 345.18 49.3627 353.656 49.3627Z" fill="#6C63FF"/>
<path d="M352.135 39.8754C351.79 39.8759 351.454 39.7643 351.177 39.5573L351.16 39.5444L347.553 36.7869C347.386 36.6589 347.246 36.4993 347.141 36.3172C347.036 36.135 346.967 35.934 346.94 35.7254C346.912 35.5168 346.926 35.3049 346.98 35.1017C347.035 34.8984 347.128 34.7079 347.257 34.541C347.385 34.374 347.544 34.2339 347.727 34.1286C347.909 34.0234 348.11 33.955 348.319 33.9275C348.527 33.8999 348.739 33.9137 348.943 33.9681C349.146 34.0224 349.337 34.1163 349.504 34.2443L351.84 36.0348L357.36 28.8367C357.488 28.6698 357.648 28.5297 357.83 28.4245C358.012 28.3193 358.214 28.251 358.422 28.2234C358.631 28.1959 358.843 28.2097 359.046 28.264C359.249 28.3184 359.44 28.4122 359.607 28.5401L359.607 28.5405L359.573 28.588L359.608 28.5405C359.945 28.7993 360.165 29.181 360.221 29.602C360.277 30.0229 360.163 30.4488 359.905 30.786L353.411 39.2487C353.261 39.4437 353.068 39.6015 352.847 39.7098C352.626 39.8182 352.382 39.8741 352.136 39.8734L352.135 39.8754Z" fill="white"/>
<path d="M353.656 153.055C362.132 153.055 369.003 146.188 369.003 137.717C369.003 129.246 362.132 122.378 353.656 122.378C345.18 122.378 338.309 129.246 338.309 137.717C338.309 146.188 345.18 153.055 353.656 153.055Z" fill="#6C63FF"/>
<path d="M352.135 143.568C351.79 143.569 351.454 143.457 351.177 143.25L351.16 143.237L347.553 140.48C347.386 140.352 347.246 140.192 347.141 140.01C347.036 139.828 346.967 139.627 346.94 139.418C346.912 139.21 346.926 138.998 346.98 138.794C347.035 138.591 347.128 138.401 347.257 138.234C347.385 138.067 347.544 137.927 347.727 137.821C347.909 137.716 348.11 137.648 348.319 137.62C348.527 137.593 348.739 137.607 348.943 137.661C349.146 137.715 349.337 137.809 349.504 137.937L351.84 139.728L357.36 132.529C357.488 132.363 357.648 132.223 357.83 132.117C358.012 132.012 358.214 131.944 358.422 131.916C358.631 131.889 358.843 131.903 359.046 131.957C359.249 132.011 359.44 132.105 359.607 132.233L359.607 132.233L359.573 132.281L359.608 132.233C359.945 132.492 360.165 132.874 360.221 133.295C360.277 133.716 360.163 134.142 359.905 134.479L353.411 142.942C353.261 143.137 353.068 143.294 352.847 143.403C352.626 143.511 352.382 143.567 352.136 143.566L352.135 143.568Z" fill="white"/>
<path d="M392.198 298.894C392.148 297.622 392.378 296.355 392.871 295.181C393.364 294.008 394.109 292.957 395.052 292.103C395.996 291.248 397.115 290.61 398.332 290.235C399.549 289.86 400.833 289.755 402.094 289.93L416.15 262.368L424.092 276.347L409.527 300.377C409.094 302.475 407.905 304.342 406.187 305.623C404.468 306.904 402.339 307.511 400.203 307.328C398.067 307.145 396.073 306.185 394.597 304.631C393.122 303.076 392.268 301.035 392.198 298.894L392.198 298.894Z" fill="#FFB7B7"/>
<path d="M457.728 472.445L446.697 472.444L441.449 429.922L457.729 429.922L457.728 472.445Z" fill="#FFB7B7"/>
<path d="M460.54 483.132L424.973 483.13V482.681C424.973 479.011 426.432 475.492 429.028 472.897C431.624 470.303 435.145 468.845 438.817 468.845H438.817L460.541 468.846L460.54 483.132Z" fill="#2F2E41"/>
<path d="M517.524 472.445L506.494 472.444L501.246 429.922L517.526 429.922L517.524 472.445Z" fill="#FFB7B7"/>
<path d="M520.337 483.132L484.77 483.13V482.681C484.77 479.011 486.228 475.492 488.825 472.897C491.421 470.303 494.942 468.845 498.613 468.845H498.614L520.338 468.846L520.337 483.132Z" fill="#2F2E41"/>
<path d="M409.14 274.906L404.324 282.927C404.324 282.927 412.35 282.927 413.955 294.959L420.376 286.938L409.14 274.906Z" fill="#E5E5E5"/>
<path d="M493.409 258.062C493.409 258.062 506.25 291.751 508.657 312.606C511.065 333.461 515.078 388.807 515.078 388.807L523.104 460.196L500.632 463.404L491.001 391.214L469.332 319.825L464.516 391.214L460.503 456.185L439.637 456.987L438.031 389.609L429.203 303.782L434.019 262.874L493.409 258.062Z" fill="#2F2E41"/>
<path d="M457.295 156.283C468.376 156.283 477.359 147.305 477.359 136.23C477.359 125.155 468.376 116.177 457.295 116.177C446.214 116.177 437.23 125.155 437.23 136.23C437.23 147.305 446.214 156.283 457.295 156.283Z" fill="#FFB7B7"/>
<path d="M477.759 155.792L485.786 161.406L496.219 266.484L431.211 268.088L440.04 195.095L448.065 174.24L453.858 166.586L477.759 155.792Z" fill="#E5E5E5"/>
<path d="M479.367 231.191L481.823 158.633C481.823 158.633 486.59 159 488.195 161.406C489.801 163.813 516.285 168.625 516.285 168.625L511.47 243.222C511.47 243.222 531.534 302.579 524.311 305.788C517.088 308.996 504.247 308.194 504.247 308.194L479.367 231.191Z" fill="#2F2E41"/>
<path d="M440.442 221.966L448.956 173.065L430.009 185.871L434.824 221.164L430.811 245.228C430.811 245.228 415.562 311.804 420.378 314.21C425.193 316.617 430.811 314.21 430.811 314.21L440.442 246.832V221.966Z" fill="#2F2E41"/>
<path d="M435.624 184.267L430.006 185.871L427.599 217.956L423.586 246.03L404.324 280.521C404.324 280.521 413.955 274.104 417.968 292.553L439.181 255.642L435.624 184.267Z" fill="#2F2E41"/>
<path d="M474.091 117.124L477.875 115.61C477.875 115.61 469.964 106.905 458.957 107.662L462.053 104.256C462.053 104.256 454.486 101.228 447.606 109.176C443.99 113.354 439.806 118.265 437.198 123.797H433.146L434.837 127.519L428.918 131.24L434.993 130.572C434.631 132.61 434.576 134.69 434.828 136.745C435.089 138.8 436.138 140.673 437.755 141.97C437.755 141.97 442.447 132.262 442.447 130.749V134.533C442.447 134.533 446.231 131.127 446.231 128.856L448.294 131.505L449.326 127.342L462.053 131.505L459.989 128.099L467.9 129.235L464.804 125.071L477.053 142.263C477.053 142.263 484.066 122.801 474.091 117.124Z" fill="#2F2E41"/>
<path d="M479.28 292.315C479.478 291.058 479.949 289.86 480.661 288.805C481.373 287.749 482.307 286.863 483.399 286.207C484.49 285.552 485.712 285.144 486.979 285.012C488.245 284.879 489.525 285.026 490.729 285.442L509.87 261.132L514.946 276.386L495.991 297.133C495.158 299.107 493.63 300.708 491.695 301.631C489.761 302.554 487.554 302.736 485.494 302.142C483.435 301.549 481.664 300.22 480.519 298.409C479.373 296.598 478.932 294.43 479.28 292.315V292.315Z" fill="#FFB7B7"/>
<path d="M511.869 283.729L504.647 292.553L495.016 275.708L499.028 268.49L511.869 283.729Z" fill="#E5E5E5"/>
<path d="M510.264 171.433L516.685 168.224C516.685 168.224 521.5 174.641 522.303 180.256C523.105 185.871 527.118 193.09 527.118 197.101C527.118 201.111 538.354 238.811 538.354 238.811L512.672 290.949C512.672 290.949 507.054 271.698 495.016 270.094L515.08 242.019L503.844 221.966L510.264 171.433Z" fill="#2F2E41"/>
<path d="M649.19 483.626H340.369C340.154 483.626 339.948 483.541 339.796 483.389C339.644 483.237 339.559 483.031 339.559 482.816C339.559 482.601 339.644 482.395 339.796 482.243C339.948 482.091 340.154 482.006 340.369 482.006H649.19C649.405 482.006 649.611 482.091 649.763 482.243C649.915 482.395 650.001 482.601 650.001 482.816C650.001 483.031 649.915 483.237 649.763 483.389C649.611 483.541 649.405 483.626 649.19 483.626Z" fill="#CBCBCB"/>
<path d="M295.852 171.741H0V103.693H295.852V171.741Z" fill="white"/>
<path d="M42.6981 126.193C41.9344 126.194 41.2025 126.498 40.6629 127.038C40.1234 127.578 39.8203 128.311 39.8203 129.074C39.8203 129.837 40.1234 130.569 40.6629 131.109C41.2025 131.649 41.9344 131.954 42.6981 131.955H253.166C253.93 131.954 254.662 131.649 255.201 131.109C255.741 130.569 256.044 129.837 256.044 129.074C256.044 128.311 255.741 127.578 255.201 127.038C254.662 126.498 253.93 126.194 253.166 126.193H42.6981Z" fill="#6C63FF"/>
<path d="M42.6973 143.479C42.3188 143.478 41.9438 143.552 41.5937 143.696C41.2437 143.84 40.9255 144.052 40.6572 144.319C40.389 144.586 40.176 144.903 40.0304 145.252C39.8848 145.601 39.8094 145.976 39.8086 146.354C39.8078 146.732 39.8816 147.107 40.0257 147.457C40.1698 147.807 40.3815 148.125 40.6486 148.393C40.9157 148.661 41.2331 148.874 41.5825 149.019C41.9319 149.165 42.3066 149.24 42.6852 149.241H175.745C176.124 149.242 176.499 149.168 176.85 149.023C177.2 148.879 177.518 148.667 177.787 148.399C178.055 148.131 178.268 147.814 178.413 147.464C178.558 147.114 178.633 146.739 178.633 146.36C178.633 145.981 178.558 145.606 178.413 145.256C178.268 144.907 178.055 144.589 177.787 144.321C177.518 144.054 177.2 143.841 176.85 143.697C176.499 143.552 176.124 143.478 175.745 143.479H42.6973Z" fill="#6C63FF"/>
<path d="M295.852 171.741H0V103.693H295.852V171.741ZM4.86332 166.881H290.989V108.553H4.86332V166.881Z" fill="#E5E5E5"/>
<path d="M295.852 275.434H0V207.385H295.852V275.434Z" fill="white"/>
<path d="M42.6981 229.886C41.9344 229.887 41.2025 230.191 40.6629 230.731C40.1234 231.271 39.8203 232.003 39.8203 232.767C39.8203 233.53 40.1234 234.262 40.6629 234.802C41.2025 235.342 41.9344 235.646 42.6981 235.648H253.166C253.93 235.646 254.662 235.342 255.201 234.802C255.741 234.262 256.044 233.53 256.044 232.767C256.044 232.003 255.741 231.271 255.201 230.731C254.662 230.191 253.93 229.887 253.166 229.886H42.6981Z" fill="#E6E6E6"/>
<path d="M42.6973 247.172C42.3188 247.171 41.9438 247.245 41.5937 247.389C41.2437 247.533 40.9255 247.744 40.6572 248.011C40.389 248.278 40.176 248.595 40.0304 248.945C39.8848 249.294 39.8094 249.668 39.8086 250.047C39.8078 250.425 39.8816 250.8 40.0257 251.15C40.1698 251.5 40.3815 251.818 40.6486 252.086C40.9157 252.354 41.2331 252.567 41.5825 252.712C41.9319 252.858 42.3066 252.933 42.6852 252.934H175.745C176.124 252.934 176.499 252.86 176.85 252.716C177.2 252.571 177.518 252.359 177.787 252.092C178.055 251.824 178.268 251.506 178.413 251.156C178.558 250.807 178.633 250.432 178.633 250.053C178.633 249.674 178.558 249.299 178.413 248.949C178.268 248.599 178.055 248.281 177.787 248.014C177.518 247.746 177.2 247.534 176.85 247.39C176.499 247.245 176.124 247.171 175.745 247.172H42.6973Z" fill="#E6E6E6"/>
<path d="M295.852 275.434H0V207.385H295.852V275.434ZM4.86332 270.573H290.989V212.246H4.86332V270.573Z" fill="#E5E5E5"/>
<path d="M298.282 68.0484H2.42969V0H298.282V68.0484Z" fill="white"/>
<path d="M45.1278 22.5C44.3641 22.5013 43.6322 22.8054 43.0926 23.3456C42.553 23.8857 42.25 24.6178 42.25 25.381C42.25 26.1443 42.553 26.8764 43.0926 27.4165C43.6322 27.9567 44.3641 28.2608 45.1278 28.2621H255.596C256.359 28.2608 257.091 27.9567 257.631 27.4165C258.17 26.8764 258.473 26.1443 258.473 25.381C258.473 24.6178 258.17 23.8857 257.631 23.3456C257.091 22.8054 256.359 22.5013 255.596 22.5H45.1278Z" fill="#6C63FF"/>
<path d="M45.1309 39.7863C44.3664 39.7846 43.6325 40.0866 43.0908 40.6258C42.5491 41.165 42.2438 41.8971 42.2422 42.6612C42.2406 43.4253 42.5427 44.1588 43.0822 44.7002C43.6217 45.2416 44.3542 45.5467 45.1188 45.5483H178.179C178.558 45.549 178.933 45.4749 179.283 45.3304C179.634 45.1859 179.952 44.9738 180.22 44.7062C180.488 44.4386 180.701 44.1208 180.846 43.7709C180.991 43.4211 181.066 43.0461 181.066 42.6673C181.066 42.2886 180.991 41.9135 180.846 41.5637C180.701 41.2138 180.488 40.896 180.22 40.6284C179.952 40.3608 179.634 40.1487 179.283 40.0042C178.933 39.8597 178.558 39.7856 178.179 39.7863H45.1309Z" fill="#6C63FF"/>
<path d="M298.282 68.0484H2.42969V0H298.282V68.0484ZM7.29301 63.1878H293.418V4.8606H7.29301V63.1878Z" fill="#E5E5E5"/>
<path d="M599.199 484V425.397C599.199 425.397 622.05 466.944 599.199 484Z" fill="#F1F1F1"/>
<path d="M600.612 483.99L557.418 444.359C557.418 444.359 603.494 455.632 600.612 483.99Z" fill="#F1F1F1"/>
<path d="M392.562 297.128C401.038 297.128 407.909 290.261 407.909 281.79C407.909 273.318 401.038 266.451 392.562 266.451C384.086 266.451 377.215 273.318 377.215 281.79C377.215 290.261 384.086 297.128 392.562 297.128Z" fill="#6C63FF"/>
<path d="M391.042 287.641C390.697 287.641 390.361 287.53 390.084 287.323L390.067 287.31L386.461 284.552C386.293 284.424 386.153 284.265 386.048 284.083C385.942 283.9 385.874 283.699 385.846 283.491C385.818 283.282 385.832 283.07 385.886 282.867C385.941 282.663 386.035 282.473 386.163 282.306C386.291 282.139 386.451 281.998 386.633 281.893C386.815 281.788 387.017 281.72 387.226 281.692C387.434 281.665 387.646 281.678 387.85 281.733C388.053 281.787 388.244 281.882 388.411 282.01L390.747 283.8L396.268 276.602C396.396 276.435 396.555 276.295 396.737 276.19C396.92 276.085 397.121 276.016 397.329 275.989C397.538 275.961 397.75 275.975 397.953 276.029C398.156 276.084 398.347 276.178 398.514 276.306L398.514 276.306L398.48 276.353L398.515 276.306C398.852 276.565 399.073 276.946 399.128 277.367C399.184 277.788 399.07 278.214 398.812 278.551L392.318 287.014C392.168 287.209 391.975 287.367 391.754 287.475C391.533 287.584 391.29 287.64 391.043 287.639L391.042 287.641Z" fill="white"/>
</g>
<defs>
<clipPath id="clip0_334_2260">
<rect width="650" height="484" fill="white"/>
</clipPath>
</defs>
</svg>
