<svg  viewBox="0 0 667 533" fill="none" xmlns="http://www.w3.org/2000/svg">
<g clip-path="url(#clip0_334_2073)">
<path opacity="0.1" d="M191.611 91.4116H141.577C138.691 91.4116 136.352 93.7507 136.352 96.6361V104.469C136.352 107.355 138.691 109.694 141.577 109.694H191.611C194.497 109.694 196.837 107.355 196.837 104.469V96.6361C196.837 93.7507 194.497 91.4116 191.611 91.4116Z" fill="#6C63FF"/>
<path opacity="0.1" d="M254.912 109.694H204.878C201.992 109.694 199.652 112.033 199.652 114.918V122.752C199.652 125.637 201.992 127.976 204.878 127.976H254.912C257.798 127.976 260.138 125.637 260.138 122.752V114.918C260.138 112.033 257.798 109.694 254.912 109.694Z" fill="#6C63FF"/>
<path opacity="0.1" d="M318.209 127.976H268.175C265.289 127.976 262.949 130.315 262.949 133.201V141.034C262.949 143.919 265.289 146.259 268.175 146.259H318.209C321.095 146.259 323.435 143.919 323.435 141.034V133.201C323.435 130.315 321.095 127.976 318.209 127.976Z" fill="#6C63FF"/>
<path opacity="0.1" d="M191.611 63.9881H141.577C138.691 63.9881 136.352 66.3272 136.352 69.2126V77.0459C136.352 79.9313 138.691 82.2704 141.577 82.2704H191.611C194.497 82.2704 196.837 79.9313 196.837 77.0459V69.2126C196.837 66.3272 194.497 63.9881 191.611 63.9881Z" fill="#6C63FF"/>
<path opacity="0.1" d="M254.912 82.2704H204.878C201.992 82.2704 199.652 84.6095 199.652 87.495V95.3283C199.652 98.2137 201.992 100.553 204.878 100.553H254.912C257.798 100.553 260.138 98.2137 260.138 95.3283V87.495C260.138 84.6095 257.798 82.2704 254.912 82.2704Z" fill="#6C63FF"/>
<path opacity="0.1" d="M318.209 100.553H268.175C265.289 100.553 262.949 102.892 262.949 105.777V113.611C262.949 116.496 265.289 118.835 268.175 118.835H318.209C321.095 118.835 323.435 116.496 323.435 113.611V105.777C323.435 102.892 321.095 100.553 318.209 100.553Z" fill="#6C63FF"/>
<path opacity="0.1" d="M388.541 91.4116H338.507C335.621 91.4116 333.281 93.7507 333.281 96.6361V104.469C333.281 107.355 335.621 109.694 338.507 109.694H388.541C391.427 109.694 393.767 107.355 393.767 104.469V96.6361C393.767 93.7507 391.427 91.4116 388.541 91.4116Z" fill="#6C63FF"/>
<path opacity="0.1" d="M451.842 109.694H401.808C398.922 109.694 396.582 112.033 396.582 114.918V122.752C396.582 125.637 398.922 127.976 401.808 127.976H451.842C454.728 127.976 457.067 125.637 457.067 122.752V114.918C457.067 112.033 454.728 109.694 451.842 109.694Z" fill="#6C63FF"/>
<path opacity="0.1" d="M515.139 127.976H465.105C462.219 127.976 459.879 130.315 459.879 133.201V141.034C459.879 143.919 462.219 146.259 465.105 146.259H515.139C518.025 146.259 520.364 143.919 520.364 141.034V133.201C520.364 130.315 518.025 127.976 515.139 127.976Z" fill="#6C63FF"/>
<path opacity="0.1" d="M388.541 63.9881H338.507C335.621 63.9881 333.281 66.3272 333.281 69.2126V77.0459C333.281 79.9313 335.621 82.2704 338.507 82.2704H388.541C391.427 82.2704 393.767 79.9313 393.767 77.0459V69.2126C393.767 66.3272 391.427 63.9881 388.541 63.9881Z" fill="#6C63FF"/>
<path opacity="0.1" d="M451.842 82.2704H401.808C398.922 82.2704 396.582 84.6095 396.582 87.495V95.3283C396.582 98.2137 398.922 100.553 401.808 100.553H451.842C454.728 100.553 457.067 98.2137 457.067 95.3283V87.495C457.067 84.6095 454.728 82.2704 451.842 82.2704Z" fill="#6C63FF"/>
<path opacity="0.1" d="M515.139 100.553H465.105C462.219 100.553 459.879 102.892 459.879 105.777V113.611C459.879 116.496 462.219 118.835 465.105 118.835H515.139C518.025 118.835 520.364 116.496 520.364 113.611V105.777C520.364 102.892 518.025 100.553 515.139 100.553Z" fill="#6C63FF"/>
<path opacity="0.1" d="M191.611 27.4235H141.577C138.691 27.4235 136.352 29.7626 136.352 32.648V40.4813C136.352 43.3667 138.691 45.7058 141.577 45.7058H191.611C194.497 45.7058 196.837 43.3667 196.837 40.4813V32.648C196.837 29.7626 194.497 27.4235 191.611 27.4235Z" fill="#6C63FF"/>
<path opacity="0.1" d="M254.912 45.7058H204.878C201.992 45.7058 199.652 48.0449 199.652 50.9303V58.7636C199.652 61.649 201.992 63.9881 204.878 63.9881H254.912C257.798 63.9881 260.138 61.649 260.138 58.7636V50.9303C260.138 48.0449 257.798 45.7058 254.912 45.7058Z" fill="#6C63FF"/>
<path opacity="0.1" d="M318.209 63.9881H268.175C265.289 63.9881 262.949 66.3272 262.949 69.2126V77.0459C262.949 79.9313 265.289 82.2704 268.175 82.2704H318.209C321.095 82.2704 323.435 79.9313 323.435 77.0459V69.2126C323.435 66.3272 321.095 63.9881 318.209 63.9881Z" fill="#6C63FF"/>
<path opacity="0.1" d="M191.611 0H141.577C138.691 0 136.352 2.3391 136.352 5.22452V13.0578C136.352 15.9432 138.691 18.2823 141.577 18.2823H191.611C194.497 18.2823 196.837 15.9432 196.837 13.0578V5.22452C196.837 2.3391 194.497 0 191.611 0Z" fill="#6C63FF"/>
<path opacity="0.1" d="M254.912 18.2823H204.878C201.992 18.2823 199.652 20.6214 199.652 23.5069V31.3401C199.652 34.2256 201.992 36.5647 204.878 36.5647H254.912C257.798 36.5647 260.138 34.2256 260.138 31.3401V23.5069C260.138 20.6214 257.798 18.2823 254.912 18.2823Z" fill="#6C63FF"/>
<path opacity="0.1" d="M318.209 36.5646H268.175C265.289 36.5646 262.949 38.9037 262.949 41.7892V49.6224C262.949 52.5079 265.289 54.847 268.175 54.847H318.209C321.095 54.847 323.435 52.5079 323.435 49.6224V41.7892C323.435 38.9037 321.095 36.5646 318.209 36.5646Z" fill="#6C63FF"/>
<path opacity="0.1" d="M388.541 27.4235H338.507C335.621 27.4235 333.281 29.7626 333.281 32.648V40.4813C333.281 43.3667 335.621 45.7058 338.507 45.7058H388.541C391.427 45.7058 393.767 43.3667 393.767 40.4813V32.648C393.767 29.7626 391.427 27.4235 388.541 27.4235Z" fill="#6C63FF"/>
<path opacity="0.1" d="M451.842 45.7058H401.808C398.922 45.7058 396.582 48.0449 396.582 50.9303V58.7636C396.582 61.649 398.922 63.9881 401.808 63.9881H451.842C454.728 63.9881 457.067 61.649 457.067 58.7636V50.9303C457.067 48.0449 454.728 45.7058 451.842 45.7058Z" fill="#6C63FF"/>
<path opacity="0.1" d="M515.139 63.9881H465.105C462.219 63.9881 459.879 66.3272 459.879 69.2126V77.0459C459.879 79.9313 462.219 82.2704 465.105 82.2704H515.139C518.025 82.2704 520.364 79.9313 520.364 77.0459V69.2126C520.364 66.3272 518.025 63.9881 515.139 63.9881Z" fill="#6C63FF"/>
<path opacity="0.1" d="M388.541 0H338.507C335.621 0 333.281 2.3391 333.281 5.22452V13.0578C333.281 15.9432 335.621 18.2823 338.507 18.2823H388.541C391.427 18.2823 393.767 15.9432 393.767 13.0578V5.22452C393.767 2.3391 391.427 0 388.541 0Z" fill="#6C63FF"/>
<path opacity="0.1" d="M451.842 18.2823H401.808C398.922 18.2823 396.582 20.6214 396.582 23.5069V31.3401C396.582 34.2256 398.922 36.5647 401.808 36.5647H451.842C454.728 36.5647 457.067 34.2256 457.067 31.3401V23.5069C457.067 20.6214 454.728 18.2823 451.842 18.2823Z" fill="#6C63FF"/>
<path opacity="0.1" d="M515.139 36.5646H465.105C462.219 36.5646 459.879 38.9037 459.879 41.7892V49.6224C459.879 52.5079 462.219 54.847 465.105 54.847H515.139C518.025 54.847 520.364 52.5079 520.364 49.6224V41.7892C520.364 38.9037 518.025 36.5646 515.139 36.5646Z" fill="#6C63FF"/>
<path opacity="0.1" d="M191.611 416.978H141.577C138.691 416.978 136.352 419.317 136.352 422.202V430.035C136.352 432.921 138.691 435.26 141.577 435.26H191.611C194.497 435.26 196.837 432.921 196.837 430.035V422.202C196.837 419.317 194.497 416.978 191.611 416.978Z" fill="#6C63FF"/>
<path opacity="0.1" d="M254.912 435.26H204.878C201.992 435.26 199.652 437.599 199.652 440.484V448.318C199.652 451.203 201.992 453.542 204.878 453.542H254.912C257.798 453.542 260.138 451.203 260.138 448.318V440.484C260.138 437.599 257.798 435.26 254.912 435.26Z" fill="#6C63FF"/>
<path opacity="0.1" d="M318.209 453.542H268.175C265.289 453.542 262.949 455.881 262.949 458.767V466.6C262.949 469.485 265.289 471.825 268.175 471.825H318.209C321.095 471.825 323.435 469.485 323.435 466.6V458.767C323.435 455.881 321.095 453.542 318.209 453.542Z" fill="#6C63FF"/>
<path opacity="0.1" d="M191.611 389.554H141.577C138.691 389.554 136.352 391.893 136.352 394.779V402.612C136.352 405.497 138.691 407.836 141.577 407.836H191.611C194.497 407.836 196.837 405.497 196.837 402.612V394.779C196.837 391.893 194.497 389.554 191.611 389.554Z" fill="#6C63FF"/>
<path opacity="0.1" d="M254.912 407.836H204.878C201.992 407.836 199.652 410.175 199.652 413.061V420.894C199.652 423.78 201.992 426.119 204.878 426.119H254.912C257.798 426.119 260.138 423.78 260.138 420.894V413.061C260.138 410.175 257.798 407.836 254.912 407.836Z" fill="#6C63FF"/>
<path opacity="0.1" d="M318.209 426.119H268.175C265.289 426.119 262.949 428.458 262.949 431.343V439.177C262.949 442.062 265.289 444.401 268.175 444.401H318.209C321.095 444.401 323.435 442.062 323.435 439.177V431.343C323.435 428.458 321.095 426.119 318.209 426.119Z" fill="#6C63FF"/>
<path opacity="0.1" d="M388.541 416.978H338.507C335.621 416.978 333.281 419.317 333.281 422.202V430.035C333.281 432.921 335.621 435.26 338.507 435.26H388.541C391.427 435.26 393.767 432.921 393.767 430.035V422.202C393.767 419.317 391.427 416.978 388.541 416.978Z" fill="#6C63FF"/>
<path opacity="0.1" d="M451.842 435.26H401.808C398.922 435.26 396.582 437.599 396.582 440.484V448.318C396.582 451.203 398.922 453.542 401.808 453.542H451.842C454.728 453.542 457.067 451.203 457.067 448.318V440.484C457.067 437.599 454.728 435.26 451.842 435.26Z" fill="#6C63FF"/>
<path opacity="0.1" d="M515.139 453.542H465.105C462.219 453.542 459.879 455.881 459.879 458.767V466.6C459.879 469.485 462.219 471.825 465.105 471.825H515.139C518.025 471.825 520.364 469.485 520.364 466.6V458.767C520.364 455.881 518.025 453.542 515.139 453.542Z" fill="#6C63FF"/>
<path opacity="0.1" d="M388.541 389.554H338.507C335.621 389.554 333.281 391.893 333.281 394.779V402.612C333.281 405.497 335.621 407.836 338.507 407.836H388.541C391.427 407.836 393.767 405.497 393.767 402.612V394.779C393.767 391.893 391.427 389.554 388.541 389.554Z" fill="#6C63FF"/>
<path opacity="0.1" d="M451.842 407.836H401.808C398.922 407.836 396.582 410.175 396.582 413.061V420.894C396.582 423.78 398.922 426.119 401.808 426.119H451.842C454.728 426.119 457.067 423.78 457.067 420.894V413.061C457.067 410.175 454.728 407.836 451.842 407.836Z" fill="#6C63FF"/>
<path opacity="0.1" d="M515.139 426.119H465.105C462.219 426.119 459.879 428.458 459.879 431.343V439.177C459.879 442.062 462.219 444.401 465.105 444.401H515.139C518.025 444.401 520.364 442.062 520.364 439.177V431.343C520.364 428.458 518.025 426.119 515.139 426.119Z" fill="#6C63FF"/>
<path opacity="0.1" d="M191.611 352.989H141.577C138.691 352.989 136.352 355.329 136.352 358.214V366.047C136.352 368.933 138.691 371.272 141.577 371.272H191.611C194.497 371.272 196.837 368.933 196.837 366.047V358.214C196.837 355.329 194.497 352.989 191.611 352.989Z" fill="#6C63FF"/>
<path opacity="0.1" d="M254.912 371.272H204.878C201.992 371.272 199.652 373.611 199.652 376.496V384.33C199.652 387.215 201.992 389.554 204.878 389.554H254.912C257.798 389.554 260.138 387.215 260.138 384.33V376.496C260.138 373.611 257.798 371.272 254.912 371.272Z" fill="#6C63FF"/>
<path opacity="0.1" d="M318.209 389.554H268.175C265.289 389.554 262.949 391.893 262.949 394.779V402.612C262.949 405.497 265.289 407.836 268.175 407.836H318.209C321.095 407.836 323.435 405.497 323.435 402.612V394.779C323.435 391.893 321.095 389.554 318.209 389.554Z" fill="#6C63FF"/>
<path opacity="0.1" d="M191.611 325.566H141.577C138.691 325.566 136.352 327.905 136.352 330.79V338.624C136.352 341.509 138.691 343.848 141.577 343.848H191.611C194.497 343.848 196.837 341.509 196.837 338.624V330.79C196.837 327.905 194.497 325.566 191.611 325.566Z" fill="#6C63FF"/>
<path opacity="0.1" d="M254.912 343.848H204.878C201.992 343.848 199.652 346.187 199.652 349.073V356.906C199.652 359.792 201.992 362.131 204.878 362.131H254.912C257.798 362.131 260.138 359.792 260.138 356.906V349.073C260.138 346.187 257.798 343.848 254.912 343.848Z" fill="#6C63FF"/>
<path opacity="0.1" d="M318.209 362.131H268.175C265.289 362.131 262.949 364.47 262.949 367.355V375.188C262.949 378.074 265.289 380.413 268.175 380.413H318.209C321.095 380.413 323.435 378.074 323.435 375.188V367.355C323.435 364.47 321.095 362.131 318.209 362.131Z" fill="#6C63FF"/>
<path opacity="0.1" d="M388.541 352.989H338.507C335.621 352.989 333.281 355.329 333.281 358.214V366.047C333.281 368.933 335.621 371.272 338.507 371.272H388.541C391.427 371.272 393.767 368.933 393.767 366.047V358.214C393.767 355.329 391.427 352.989 388.541 352.989Z" fill="#6C63FF"/>
<path opacity="0.1" d="M451.842 371.272H401.808C398.922 371.272 396.582 373.611 396.582 376.496V384.33C396.582 387.215 398.922 389.554 401.808 389.554H451.842C454.728 389.554 457.067 387.215 457.067 384.33V376.496C457.067 373.611 454.728 371.272 451.842 371.272Z" fill="#6C63FF"/>
<path opacity="0.1" d="M515.139 389.554H465.105C462.219 389.554 459.879 391.893 459.879 394.779V402.612C459.879 405.497 462.219 407.836 465.105 407.836H515.139C518.025 407.836 520.364 405.497 520.364 402.612V394.779C520.364 391.893 518.025 389.554 515.139 389.554Z" fill="#6C63FF"/>
<path opacity="0.1" d="M388.541 325.566H338.507C335.621 325.566 333.281 327.905 333.281 330.79V338.624C333.281 341.509 335.621 343.848 338.507 343.848H388.541C391.427 343.848 393.767 341.509 393.767 338.624V330.79C393.767 327.905 391.427 325.566 388.541 325.566Z" fill="#6C63FF"/>
<path opacity="0.1" d="M451.842 343.848H401.808C398.922 343.848 396.582 346.187 396.582 349.073V356.906C396.582 359.792 398.922 362.131 401.808 362.131H451.842C454.728 362.131 457.067 359.792 457.067 356.906V349.073C457.067 346.187 454.728 343.848 451.842 343.848Z" fill="#6C63FF"/>
<path opacity="0.1" d="M515.139 362.131H465.105C462.219 362.131 459.879 364.47 459.879 367.355V375.188C459.879 378.074 462.219 380.413 465.105 380.413H515.139C518.025 380.413 520.364 378.074 520.364 375.188V367.355C520.364 364.47 518.025 362.131 515.139 362.131Z" fill="#6C63FF"/>
<path opacity="0.1" d="M339.261 533C509.588 533 647.666 521.667 647.666 507.686C647.666 493.705 509.588 482.372 339.261 482.372C168.933 482.372 30.8555 493.705 30.8555 507.686C30.8555 521.667 168.933 533 339.261 533Z" fill="#6C63FF"/>
<path d="M59.5359 131.351C88.6182 143.952 105.329 170.026 105.329 170.026C105.329 170.026 74.8823 175.651 45.7931 163.057C16.7038 150.464 0 124.383 0 124.383C0 124.383 30.4467 118.751 59.5359 131.351Z" fill="#6C63FF"/>
<path d="M148.785 82.9736C157.781 68.2071 173.099 61.1755 173.099 61.1755C173.099 61.1755 173.802 78.0093 164.835 92.7336C155.868 107.458 140.514 114.483 140.514 114.483C140.514 114.483 139.783 97.6557 148.785 82.9736Z" fill="#6C63FF"/>
<path d="M82.6589 98.7738C89.0943 121.739 106.832 136.857 106.832 136.857C106.832 136.857 114.139 114.729 107.704 91.7562C101.269 68.7837 83.524 53.6727 83.524 53.6727C83.524 53.6727 76.2165 75.8013 82.6589 98.7738Z" fill="#46455B"/>
<path d="M591.254 97.7401H88.6764C85.8758 97.7401 83.6055 100.01 83.6055 102.81V349.326C83.6055 352.126 85.8758 354.396 88.6764 354.396H591.254C594.054 354.396 596.325 352.126 596.325 349.326V102.81C596.325 100.01 594.054 97.7401 591.254 97.7401Z" fill="#3F3D56"/>
<path opacity="0.1" d="M83.6055 338.926H596.325V349.326C596.325 350.671 595.791 351.96 594.84 352.911C593.889 353.862 592.599 354.396 591.254 354.396H88.6764C87.3315 354.396 86.0417 353.862 85.0907 352.911C84.1397 351.96 83.6055 350.671 83.6055 349.326V338.926Z" fill="black"/>
<path d="M169.76 319.941H135.297C134.326 319.941 133.539 320.728 133.539 321.699V337.168C133.539 338.139 134.326 338.926 135.297 338.926H169.76C170.731 338.926 171.518 338.139 171.518 337.168V321.699C171.518 320.728 170.731 319.941 169.76 319.941Z" fill="#6C63FF"/>
<path d="M206.686 336.113H183.477C182.7 336.113 182.07 336.743 182.07 337.52C182.07 338.296 182.7 338.926 183.477 338.926H206.686C207.463 338.926 208.093 338.296 208.093 337.52C208.093 336.743 207.463 336.113 206.686 336.113Z" fill="#6C63FF"/>
<path d="M158.966 147.932C177.526 151.357 196.46 147.932 214.943 145.612L271.117 138.58C273.389 138.292 276.694 136.935 278.031 139.712C278.783 141.266 278.277 144.634 278.333 146.42C278.481 151.342 278.467 156.265 278.333 161.187C278.08 170.595 277.391 179.982 276.512 189.349C274.802 207.68 272.383 225.913 271.173 244.315C270.554 253.681 270.245 263.076 270.519 272.442C270.583 274.678 270.674 276.914 270.808 279.143C270.955 281.639 272.074 285.345 269.352 287.011C267.797 287.968 264.738 287.918 262.959 288.2C260.145 288.643 257.332 288.994 254.463 289.283C235.55 291.174 216.392 290.387 197.409 290.274L140.089 289.979L126.107 289.901C124.841 289.901 120.276 290.661 119.496 289.156C119.165 288.516 120.044 285.521 120.199 284.719C120.415 283.397 120.649 282.077 120.902 280.76C122.534 271.514 124.461 262.323 126.402 253.14C130.573 233.451 134.842 213.664 136.558 193.554C137.409 183.463 136.847 173.281 137.887 163.212C138.373 158.536 138.949 148.101 145.174 147.686C150.449 147.334 155.878 147.686 161.167 147.686C161.447 147.686 161.715 147.575 161.913 147.377C162.111 147.179 162.222 146.911 162.222 146.631C162.222 146.352 162.111 146.083 161.913 145.885C161.715 145.688 161.447 145.577 161.167 145.577C156.174 145.577 151.173 145.443 146.18 145.541C142.86 145.605 140.553 146.392 138.971 149.444C134.926 157.277 135.341 167.726 135.215 176.277C134.912 196.746 131.769 216.779 127.675 236.798C125.615 246.875 123.392 256.916 121.345 266.999C120.382 271.816 119.46 276.647 118.617 281.491C118.223 283.798 116.232 288.882 117.984 290.998C119.735 293.115 125.122 291.976 127.535 291.99L144.316 292.088L176.472 292.271C197.248 292.391 218.094 292.974 238.863 292.362C248.78 292.067 259.259 291.659 268.916 289.29C271.792 288.586 273.178 287.264 273.29 284.199C273.459 279.445 272.686 274.544 272.587 269.77C271.884 228.916 281.484 188.631 280.499 147.763C280.436 144.986 281.484 137.982 278.446 136.302C277.081 135.542 275.309 135.957 273.874 136.126C271.131 136.442 268.395 136.829 265.652 137.153L230.029 141.597C218.643 143.003 207.263 144.522 195.855 145.816C183.779 147.222 171.583 148.059 159.55 145.816C158.22 145.569 157.651 147.602 158.987 147.848L158.966 147.932Z" fill="#6C63FF"/>
<path d="M136.57 172.789L277.107 165.898C278.465 165.828 278.472 163.718 277.107 163.788L136.57 170.68C135.22 170.743 135.213 172.852 136.57 172.789Z" fill="#6C63FF"/>
<path d="M179.865 155.4C179.472 155.816 179.187 156.322 179.034 156.874C178.881 157.426 178.865 158.007 178.988 158.566C179.111 159.125 179.368 159.646 179.738 160.083C180.108 160.52 180.579 160.861 181.11 161.074C183.002 161.939 185.224 161.215 187.102 160.744C189.916 160.041 192.729 159.415 195.619 158.902C201.911 157.788 208.283 157.195 214.672 157.13C217.584 157.094 220.475 157.228 223.387 157.355C225.496 157.439 227.768 157.608 229.555 156.3C231.594 154.809 232.255 151.898 230.258 150.084C227.445 147.517 221.382 149.008 218.133 149.275C206.342 150.254 194.628 152.002 183.065 154.507C181.743 154.788 182.299 156.827 183.628 156.539C191.257 154.893 198.944 153.572 206.69 152.573C210.497 152.104 214.311 151.708 218.133 151.385C219.933 151.237 221.734 151.103 223.534 150.998C224.238 150.956 224.983 150.878 225.7 150.899C227.93 150.949 228.19 150.548 226.854 153.241C225.665 155.625 226.045 155.351 223.984 155.273C223.112 155.273 222.24 155.175 221.368 155.133C219.582 155.058 217.795 155.018 216.009 155.013C212.206 155.013 208.413 155.196 204.629 155.561C201.422 155.871 198.222 156.307 195.05 156.869C193.066 157.221 191.097 157.629 189.135 158.079C188.27 158.283 187.398 158.494 186.533 158.712C186.118 158.824 185.696 158.923 185.281 159.028C183.743 159.562 182.432 158.859 181.349 156.919C182.292 155.941 180.808 154.443 179.858 155.428L179.865 155.4Z" fill="#6C63FF"/>
<path d="M205.338 185.411C195.161 185.017 184.168 187.766 177.466 195.958C172.219 202.364 169.23 213.355 174.786 220.569C180.757 228.304 193.853 226.94 201.751 223.642C210.107 220.126 219.25 212.877 221.761 203.806C224.89 192.478 214.727 183.913 204.143 183.787C202.785 183.787 202.785 185.896 204.143 185.896C210.177 185.966 216.099 188.554 218.912 194.172C221.859 200.093 219.32 206.309 215.396 211.048C209.108 218.593 199.276 224.282 189.26 224.12C183.247 224.029 176.601 221.968 174.737 215.626C173.204 210.486 174.371 204.867 177.044 200.311C182.825 190.467 194.591 187.134 205.38 187.556C206.738 187.605 206.738 185.495 205.38 185.446L205.338 185.411Z" fill="#6C63FF"/>
<path d="M195.235 201.035C194.801 200.874 194.334 200.826 193.876 200.894C193.418 200.963 192.985 201.146 192.618 201.427C192.25 201.708 191.959 202.077 191.772 202.5C191.586 202.923 191.509 203.387 191.55 203.848C191.761 206.59 194.785 207.364 197.057 207.202C199.019 207.033 201.312 206.309 200.622 203.855C200.496 203.42 200.277 203.019 199.981 202.676C199.684 202.334 199.318 202.06 198.906 201.872C198.277 201.622 197.594 201.538 196.923 201.626C196.663 201.626 194.279 202.498 195.291 201.45L193.632 201.232C193.816 201.414 193.957 201.634 194.044 201.878C194.132 202.121 194.164 202.381 194.138 202.638C194.141 202.822 194.192 203.002 194.285 203.16C194.379 203.318 194.512 203.45 194.672 203.541C194.831 203.633 195.012 203.681 195.195 203.682C195.379 203.683 195.56 203.636 195.72 203.545C195.962 203.444 196.226 203.413 196.485 203.454C196.743 203.495 196.985 203.607 197.183 203.778C197.381 203.949 197.527 204.172 197.606 204.421C197.684 204.671 197.691 204.937 197.626 205.191C197.57 205.434 197.601 205.69 197.714 205.913C197.828 206.136 198.016 206.312 198.247 206.409C198.477 206.507 198.734 206.52 198.974 206.446C199.213 206.372 199.418 206.217 199.553 206.007C200.257 204.741 201.108 202.223 200.053 200.902C199.349 200.009 197.992 200.276 197.148 200.796C196.627 201.165 196.142 201.581 195.699 202.041C194.848 202.793 194.293 203.145 194.609 201.703C195.137 199.08 197.64 196.992 199.926 195.944L198.379 194.756C197.568 197.804 196.117 200.644 194.124 203.088L195.924 203.834C195.873 202.868 196.121 201.91 196.635 201.091C197.149 200.272 197.902 199.631 198.794 199.256H197.76L198.309 200.156C198.105 201.485 200.137 202.055 200.341 200.712C200.608 198.975 199.511 196.718 197.479 197.569C195.052 198.581 193.793 201.359 193.842 203.834C193.842 204.678 195.038 205.332 195.65 204.586C197.887 201.869 199.519 198.708 200.44 195.311C200.489 195.11 200.478 194.898 200.409 194.703C200.339 194.508 200.215 194.336 200.05 194.21C199.885 194.084 199.688 194.009 199.481 193.994C199.274 193.978 199.067 194.023 198.885 194.123C196.778 195.075 194.998 196.625 193.765 198.581C192.907 199.987 191.831 202.181 192.703 203.799C192.846 204.057 193.039 204.285 193.271 204.469C193.502 204.653 193.768 204.789 194.052 204.869C194.337 204.95 194.635 204.973 194.928 204.938C195.222 204.902 195.505 204.809 195.763 204.663C196.413 204.278 197.007 203.805 197.528 203.257C197.788 203.025 198.076 202.624 198.421 202.554C198.731 202.343 198.716 202.463 198.372 202.927C198.367 203.655 198.155 204.368 197.76 204.98L199.687 205.789C199.861 205.132 199.84 204.439 199.629 203.794C199.417 203.149 199.023 202.578 198.494 202.152C197.965 201.726 197.324 201.462 196.648 201.393C195.973 201.323 195.291 201.45 194.686 201.759L196.276 202.674C196.309 201.779 196.028 200.901 195.481 200.191C195.398 200.055 195.286 199.938 195.152 199.851C195.018 199.763 194.866 199.707 194.707 199.686C194.548 199.665 194.387 199.68 194.235 199.73C194.083 199.78 193.944 199.863 193.828 199.973C192.759 201.091 192.555 203.025 193.899 204.059C194.905 204.825 195.397 204.059 196.501 203.883C200.25 203.398 198.062 205.085 196.74 205.142C196.149 205.205 195.551 205.162 194.975 205.015C193.507 204.518 193.416 203.878 194.701 203.095C195.959 203.609 196.501 201.57 195.263 201.063L195.235 201.035Z" fill="#6C63FF"/>
<path d="M193.54 204.889C194.405 207.701 190.833 208.629 189.138 209.6C187.948 210.267 186.911 211.174 186.092 212.265C184.32 214.641 183.659 217.665 183.075 220.513C182.808 221.842 184.84 222.404 185.115 221.075C185.436 218.983 186.035 216.942 186.894 215.007C188.16 212.49 189.975 211.646 192.338 210.352C194.701 209.058 196.41 207.054 195.573 204.326C195.179 203.032 193.139 203.588 193.54 204.889Z" fill="#6C63FF"/>
<path d="M197.057 203.475C196.553 203.545 196.094 203.8 195.769 204.19C195.444 204.58 195.276 205.077 195.298 205.585C195.298 206.421 195.854 206.956 196.234 207.624C197.135 208.991 197.823 210.487 198.273 212.061C198.611 213.573 198.942 216.28 198.154 217.686C196.698 220.295 194.068 219.796 191.824 219.796C189.714 219.796 188.082 220.499 188.153 217.56C188.195 215.907 189.348 214.234 190.263 212.933L188.336 212.68C188.742 214.827 188.956 217.006 188.976 219.191C188.976 220.168 190.474 220.71 190.938 219.718C192.068 217.34 192.966 214.858 193.617 212.307L191.543 212.026L191.908 217.37C191.914 217.598 191.994 217.818 192.135 217.997C192.276 218.177 192.471 218.306 192.691 218.366C192.911 218.426 193.145 218.413 193.357 218.33C193.57 218.247 193.75 218.098 193.871 217.904C194.117 217.632 194.297 217.308 194.398 216.955C194.468 216.624 193.821 214.395 193.561 215.19L195.629 215.471L195.777 210.394L193.667 210.676C194.113 212.107 194.247 213.618 194.061 215.106C193.927 216.28 195.903 216.547 196.17 215.387L197.493 208.566L195.566 208.812C196.023 209.756 196.15 210.826 195.924 211.85C195.77 213.2 197.88 213.186 198.034 211.85C198.213 210.45 197.989 209.027 197.387 207.75C197.28 207.574 197.124 207.433 196.939 207.344C196.753 207.255 196.545 207.222 196.341 207.249C196.137 207.276 195.945 207.361 195.788 207.495C195.632 207.629 195.518 207.806 195.46 208.004L194.131 214.824L196.206 215.106C196.417 213.429 196.256 211.727 195.734 210.12C195.664 209.878 195.509 209.669 195.298 209.531C195.086 209.394 194.833 209.336 194.583 209.369C194.333 209.402 194.103 209.524 193.935 209.712C193.767 209.9 193.672 210.142 193.667 210.394L193.519 215.471C193.519 216.702 195.228 216.878 195.594 215.752L195.706 215.408C195.755 215.228 195.756 215.039 195.709 214.859C195.662 214.679 195.569 214.514 195.439 214.381C193.252 212.005 192.809 215.788 192.049 216.835L194.018 217.37L193.653 212.026C193.575 210.887 191.887 210.535 191.578 211.744C190.983 214.123 190.159 216.438 189.116 218.657L191.085 219.191C191.063 216.817 190.827 214.449 190.382 212.117C190.199 211.147 188.926 211.189 188.455 211.864C187.048 213.889 184.615 218.312 186.493 220.738C188.132 222.847 193.287 222.032 195.488 221.898C198.963 221.701 200.222 219.5 200.601 216.224C200.782 214.654 200.694 213.066 200.341 211.526C200.151 210.697 198.231 205.437 197.654 205.543C198.991 205.296 198.421 203.257 197.092 203.503L197.057 203.475Z" fill="#6C63FF"/>
<path d="M192.972 208.214L187.212 215.816L189.033 216.878L193.253 210.774L191.326 209.958L189.223 217.981C189.166 218.225 189.198 218.481 189.311 218.704C189.425 218.927 189.613 219.102 189.844 219.2C190.074 219.297 190.331 219.31 190.57 219.237C190.809 219.163 191.015 219.007 191.15 218.797C192.107 217.212 193.182 215.701 194.364 214.276L192.606 213.249C192.134 215.066 191.223 216.739 189.955 218.122L191.72 219.149C191.828 218.177 192.087 217.228 192.487 216.336C193.028 215.12 191.312 214.044 190.665 215.267C190.07 216.382 189.39 217.449 188.632 218.46L190.559 218.713L190.988 216.709L189.061 216.456L189.371 218.214C189.422 218.39 189.518 218.551 189.649 218.68C189.781 218.808 189.944 218.901 190.122 218.947C190.3 218.994 190.487 218.994 190.665 218.947C190.842 218.899 191.005 218.807 191.136 218.678C192.92 216.832 194.35 214.675 195.356 212.314H193.542C194.019 213.193 194.353 214.143 194.533 215.127C194.786 216.392 196.467 215.921 196.601 214.845C196.903 212.49 197.058 210.118 197.065 207.743H194.955V212.166C194.955 213.312 196.833 213.65 197.03 212.448C197.169 211.381 197.521 210.353 198.064 209.424H196.214C196.66 210.143 196.903 210.969 196.917 211.815C196.917 212.094 197.029 212.363 197.226 212.561C197.424 212.758 197.693 212.869 197.972 212.869C198.252 212.869 198.521 212.758 198.718 212.561C198.916 212.363 199.027 212.094 199.027 211.815L199.295 210.408H197.262C197.466 211.653 198.24 218.664 195.49 217.841C195.026 217.728 194.892 217.756 195.089 217.918L195.715 216.582L197.185 213.467L195.215 212.933C195.342 214.381 195.476 216.449 194.604 217.686C193.9 218.692 191.734 219.092 190.63 218.502C189.901 217.982 189.278 217.328 188.794 216.575L187.352 217.981C188.52 218.832 190.412 220.921 191.917 221.04C193.063 221.132 194.027 220.182 194.779 219.423C195.934 218.23 196.834 216.816 197.425 215.265C198.016 213.714 198.286 212.06 198.219 210.401C198.219 210.122 198.107 209.853 197.91 209.656C197.712 209.458 197.443 209.347 197.164 209.347C196.884 209.347 196.615 209.458 196.418 209.656C196.22 209.853 196.109 210.122 196.109 210.401V212.806C196.109 213.086 196.22 213.354 196.418 213.552C196.615 213.75 196.884 213.861 197.164 213.861C197.443 213.861 197.712 213.75 197.91 213.552C198.107 213.354 198.219 213.086 198.219 212.806V206.907C198.219 206.627 198.107 206.359 197.91 206.161C197.712 205.963 197.443 205.852 197.164 205.852C196.884 205.852 196.615 205.963 196.418 206.161C196.22 206.359 196.109 206.627 196.109 206.907C196.105 208.321 195.982 209.732 195.743 211.126L197.818 211.407C197.652 209.727 197.575 208.039 197.586 206.351C197.582 206.098 197.488 205.855 197.321 205.666C197.153 205.477 196.923 205.354 196.673 205.32C196.422 205.286 196.168 205.343 195.956 205.48C195.744 205.618 195.589 205.827 195.518 206.07C195.201 207.413 194.815 208.735 194.442 210.05L196.369 209.797L196.221 209.234C196.123 207.891 194.013 207.884 194.111 209.234C194.134 209.803 194.283 210.361 194.547 210.865C194.955 211.723 196.228 211.421 196.474 210.612C196.875 209.29 197.234 207.968 197.55 206.632L195.476 206.351C195.465 208.039 195.543 209.727 195.708 211.407C195.813 212.49 197.557 212.954 197.776 211.688C198.056 210.1 198.205 208.491 198.219 206.878H196.109V212.778H198.219V210.373H196.109C196.233 213.026 195.311 215.621 193.542 217.602C193.267 217.913 192.971 218.205 192.655 218.474C192.156 218.952 191.699 218.882 191.298 218.256C190.299 217.841 189.265 216.772 188.393 216.146C187.521 215.52 186.325 216.758 186.944 217.588C188.562 219.739 190.974 222.137 193.978 221.104C197.135 219.986 197.565 215.71 197.325 212.898C197.248 211.962 195.848 211.33 195.363 212.37C194.66 213.854 193.956 215.331 193.253 216.821C193.007 217.342 192.55 218.059 192.62 218.678C192.852 220.26 194.772 220 195.954 219.908C200.533 219.564 199.808 213.073 199.281 209.811C199.105 208.728 197.529 208.897 197.248 209.811C197.025 210.453 196.908 211.128 196.903 211.808H199.013C198.937 210.599 198.599 209.421 198.022 208.355C197.927 208.198 197.794 208.068 197.634 207.977C197.475 207.887 197.294 207.839 197.111 207.839C196.927 207.839 196.747 207.887 196.588 207.977C196.428 208.068 196.294 208.198 196.2 208.355C195.571 209.441 195.147 210.632 194.948 211.871L197.058 212.152V207.729C197.058 207.45 196.947 207.181 196.749 206.984C196.551 206.786 196.283 206.675 196.003 206.675C195.723 206.675 195.455 206.786 195.257 206.984C195.059 207.181 194.948 207.45 194.948 207.729C194.941 210.104 194.786 212.476 194.484 214.831L196.559 214.55C196.32 213.4 195.915 212.292 195.356 211.259C195.262 211.102 195.128 210.972 194.969 210.881C194.809 210.791 194.629 210.743 194.445 210.743C194.262 210.743 194.082 210.791 193.922 210.881C193.762 210.972 193.629 211.102 193.534 211.259C192.617 213.461 191.298 215.474 189.645 217.194L191.41 217.658L191.101 215.9C190.939 214.965 189.617 214.937 189.174 215.647C188.824 216.176 188.587 216.771 188.477 217.395C188.367 218.019 188.386 218.659 188.534 219.275C188.71 220.274 189.976 220.168 190.461 219.528C191.219 218.52 191.898 217.455 192.494 216.343L190.672 215.274C190.186 216.325 189.854 217.441 189.687 218.586C189.561 219.514 190.665 220.485 191.453 219.613C192.965 217.959 194.059 215.967 194.646 213.805C194.906 212.848 193.584 211.941 192.88 212.778C191.586 214.328 190.411 215.974 189.364 217.7L191.291 218.516L193.436 210.521C193.493 210.277 193.462 210.022 193.348 209.799C193.235 209.576 193.046 209.4 192.816 209.303C192.585 209.205 192.328 209.192 192.089 209.266C191.85 209.339 191.644 209.495 191.509 209.705L187.289 215.816C186.501 216.948 188.309 217.925 189.111 216.878L194.85 209.283C195.666 208.2 193.837 207.174 193.028 208.214H192.972Z" fill="#6C63FF"/>
<path d="M282.701 233.592C291.141 228.431 297.851 220.731 305.306 214.29C313.394 207.307 321.883 200.803 330.626 194.643C347.604 182.69 365.433 171.994 383.248 161.327C383.479 161.181 383.644 160.952 383.709 160.686C383.773 160.421 383.733 160.141 383.595 159.905C383.458 159.669 383.234 159.495 382.971 159.421C382.708 159.347 382.427 159.377 382.186 159.506C364.371 170.173 346.535 180.847 329.556 192.822C321.546 198.448 313.725 204.41 306.227 210.739C298.069 217.63 290.804 226.209 281.611 231.771C280.451 232.474 281.513 234.302 282.673 233.592H282.701Z" fill="#6C63FF"/>
<path d="M410.484 128.574C401.34 129.502 391.494 131.83 385.867 139.825C381.008 146.702 381.113 158.698 385.678 165.757C390.861 173.781 401.453 174.069 409.682 171.474C417.911 168.879 426.428 164.33 426.35 154.5C426.308 149.226 424.402 143.734 422.299 138.953C420.485 134.825 417.271 131.218 412.404 131.675C411.06 131.801 411.046 133.911 412.404 133.784C418.923 133.18 421.019 140.922 422.567 145.809C423.973 150.372 425.274 155.772 423.066 160.308C420.858 164.843 415.533 167.157 410.983 168.816C406.06 170.602 400.651 171.692 395.51 170.222C385.326 167.375 382.513 154.472 385.445 145.316C388.821 134.769 400.778 131.668 410.519 130.683C411.855 130.55 411.869 128.44 410.519 128.574H410.484Z" fill="#6C63FF"/>
<path d="M424.55 210.141C415.407 211.069 405.56 213.397 399.934 221.392C395.074 228.269 395.179 240.265 399.744 247.325C404.927 255.348 415.519 255.636 423.748 253.041C431.977 250.447 440.494 245.897 440.417 236.067C440.375 230.793 438.469 225.301 436.366 220.52C434.551 216.392 431.337 212.785 426.47 213.242C425.127 213.369 425.113 215.478 426.47 215.352C432.99 214.747 435.086 222.489 436.633 227.376C438.04 231.939 439.341 237.34 437.132 241.875C434.924 246.411 429.6 248.724 425.049 250.383C420.126 252.169 414.718 253.259 409.576 251.79C399.392 248.942 396.579 236.039 399.512 226.884C402.888 216.336 414.844 213.235 424.585 212.251C425.922 212.117 425.936 210.008 424.585 210.141H424.55Z" fill="#6C63FF"/>
<path d="M396.692 149.113L403.353 156.708C403.485 156.835 403.647 156.926 403.825 156.972C404.002 157.018 404.188 157.017 404.365 156.969C404.542 156.922 404.704 156.829 404.835 156.701C404.965 156.573 405.06 156.413 405.111 156.237C406.518 152.538 406.25 148.706 406.581 144.817C406.945 140.798 407.955 136.864 409.57 133.166C412.815 125.665 418.317 119.36 425.31 115.129C426.471 114.426 425.409 112.598 424.248 113.308C417.352 117.46 411.82 123.536 408.332 130.789C406.625 134.318 405.44 138.078 404.816 141.948C404.112 146.512 404.752 151.293 403.064 155.674L404.83 155.203L398.204 147.623C397.304 146.603 395.82 148.101 396.713 149.113H396.692Z" fill="#6C63FF"/>
<path d="M286.095 241.812C322.372 240.706 358.659 240.471 394.955 241.109C396.312 241.109 396.312 238.999 394.955 238.999C358.668 238.352 322.381 238.587 286.095 239.702C284.738 239.745 284.73 241.854 286.095 241.812Z" fill="#6C63FF"/>
<path d="M402.536 221.012C414.937 225.878 426.866 231.871 438.173 238.915C439.327 239.618 440.389 237.811 439.235 237.094C427.779 229.963 415.692 223.899 403.127 218.98C401.868 218.481 401.319 220.52 402.571 221.012H402.536Z" fill="#6C63FF"/>
<path d="M425.057 211.456C412.481 226.113 405.196 244.57 404.372 263.863C404.316 265.22 406.426 265.22 406.482 263.863C407.281 245.124 414.347 227.195 426.548 212.947C427.427 211.92 425.943 210.422 425.057 211.456Z" fill="#6C63FF"/>
<path d="M143.765 234.154L222.375 233.128L231.413 233.008C233.037 233.008 234.662 232.952 236.287 232.945C238.572 232.945 240.113 234.843 240.07 237.164C239.965 242.086 236.87 241.91 232.819 242.086L223.05 242.529L183.27 244.28C176.146 244.596 169.014 244.983 161.889 245.229C155.461 245.426 143.237 243.331 146.093 233.979C146.487 232.678 144.454 232.122 144.053 233.416C142.647 238.015 145.136 242.684 149.145 245.096C154.835 248.513 162.333 247.353 168.613 247.072L217.452 244.857L229.31 244.329C232.348 244.189 236.575 244.807 239.367 243.394C242.645 241.742 243.221 235.181 241.153 232.418C240.091 231.011 238.6 230.885 236.934 230.821C232.559 230.653 228.107 230.941 223.725 230.997L199.376 231.321L143.737 232.024C142.379 232.024 142.379 234.133 143.737 234.133L143.765 234.154Z" fill="#6C63FF"/>
<path d="M461.369 492.568C459.596 493.679 457.571 494.305 455.742 495.282C453.913 496.26 452.134 497.729 451.614 499.754C451.419 500.383 451.452 501.06 451.705 501.667C452.16 502.4 452.856 502.952 453.674 503.228C457.389 504.877 461.402 505.752 465.466 505.798C469.53 505.844 473.562 505.06 477.313 503.495C478.633 502.861 479.996 502.32 481.392 501.878C483.112 501.527 484.862 501.348 486.618 501.343C488.463 501.236 490.298 501.001 492.111 500.64C493.022 500.539 493.885 500.18 494.6 499.607C495.253 498.855 495.645 497.913 495.719 496.921C496.551 491.442 495.296 485.851 492.202 481.254C491.812 480.61 491.29 480.056 490.669 479.63C489.912 479.238 489.079 479.015 488.228 478.976C484.712 478.547 481.026 477.759 477.475 477.675C474.929 477.619 473.649 478.828 471.848 480.579C468.128 484.299 465.954 489.706 461.369 492.568Z" fill="#323444"/>
<path d="M513.196 492.048C513.196 495.493 513.61 499.143 515.699 501.892C516.655 503.081 517.812 504.092 519.117 504.88C523.534 507.693 529.386 508.727 534.042 506.343C534.794 506.005 535.437 505.465 535.899 504.782C536.602 503.558 536.229 502.033 535.835 500.682L529.098 477.337C524.744 478.005 518.344 478.476 514.476 480.684C511.669 482.281 513.196 488.968 513.196 492.048Z" fill="#323444"/>
<path d="M457.417 348.299C457.009 349.586 455.532 350.184 454.724 351.267C453.774 352.539 453.873 354.304 454.217 355.851C454.643 358.132 455.715 360.243 457.305 361.934C458.112 362.771 459.108 363.403 460.209 363.777C461.31 364.152 462.484 364.257 463.635 364.085C465.899 363.657 467.855 361.652 467.932 359.353C467.891 358.307 467.667 357.277 467.271 356.308L462.474 342.442C462.455 342.344 462.414 342.251 462.356 342.17C462.298 342.089 462.223 342.021 462.137 341.971C461.956 341.931 461.766 341.963 461.609 342.062C460.477 342.597 458.205 343.159 457.544 344.333C456.883 345.508 457.896 347.027 457.417 348.299Z" fill="#FBB3B2"/>
<path d="M455.172 347.603C456.923 347.329 458.456 346.302 460.095 345.627C461.734 344.952 463.788 344.692 465.166 345.817C465.56 346.141 465.94 346.584 466.453 346.577C465.755 343.138 464.699 339.782 463.302 336.564C463.253 336.409 463.157 336.274 463.028 336.177C462.836 336.099 462.622 336.099 462.43 336.177L457.697 337.414C455.946 337.871 455.742 337.731 455.875 339.454C455.91 340.22 456.304 347.603 455.172 347.603Z" fill="#323444"/>
<path d="M454.653 247.472C453.95 248.555 453.95 249.905 453.95 251.178C453.95 257.401 454.013 263.659 454.935 269.819C455.153 271.296 455.427 272.772 455.568 274.263C455.727 276.338 455.76 278.421 455.666 280.5L454.963 307.572C454.878 310.884 454.71 314.442 452.663 317.044C452.042 317.916 451.751 318.98 451.84 320.046C452.375 326.839 453.5 333.575 454.618 340.29C456.419 339.478 458.386 339.104 460.359 339.198C462.332 339.292 464.255 339.852 465.97 340.832C469.518 329.677 471.481 318.078 471.8 306.377C471.962 300.618 471.716 294.824 472.602 289.135C474.086 279.558 473.481 269.735 472.391 260.101C472.046 257.049 471.315 253.906 469.36 251.544C467.509 249.476 465.044 248.057 462.326 247.493C459.724 246.811 457.396 247.515 454.653 247.472Z" fill="#5B5583"/>
<path opacity="0.1" d="M454.653 247.472C453.95 248.555 453.95 249.905 453.95 251.178C453.95 257.401 454.013 263.659 454.935 269.819C455.153 271.296 455.427 272.772 455.568 274.263C455.727 276.338 455.76 278.421 455.666 280.5L454.963 307.572C454.878 310.884 454.71 314.442 452.663 317.044C452.042 317.916 451.751 318.98 451.84 320.046C452.375 326.839 453.5 333.575 454.618 340.29C456.419 339.478 458.386 339.104 460.359 339.198C462.332 339.292 464.255 339.852 465.97 340.832C469.518 329.677 471.481 318.078 471.8 306.377C471.962 300.618 471.716 294.824 472.602 289.135C474.086 279.558 473.481 269.735 472.391 260.101C472.046 257.049 471.315 253.906 469.36 251.544C467.509 249.476 465.044 248.057 462.326 247.493C459.724 246.811 457.396 247.515 454.653 247.472Z" fill="black"/>
<path d="M463.249 325.981C458.532 350.148 461.107 375.172 470.648 397.873C471.472 399.553 472.05 401.343 472.364 403.189C472.751 406.634 471.161 409.946 470.254 413.279C468.144 420.859 469.361 428.931 470.711 436.687C471.274 439.922 471.853 443.154 472.448 446.384C473.032 449.534 473.595 452.959 472.132 455.813C473.391 461.059 474.136 466.255 475.395 471.501C475.529 471.916 475.569 472.355 475.515 472.788C475.261 473.474 474.814 474.073 474.228 474.511C473.289 475.462 472.615 476.641 472.271 477.932C471.927 479.223 471.925 480.581 472.265 481.873C475.479 479.566 479.96 480.375 483.631 481.873C487.302 483.371 490.917 485.389 494.884 485.389C494.307 480.734 493.752 475.847 495.468 471.48C496.467 468.949 498.225 466.558 498.176 463.851C498.126 461.425 496.642 459.259 496.284 456.861C496.15 455.369 496.207 453.867 496.452 452.389C497.395 443.782 496.326 435.091 495.257 426.498C495.136 424.804 494.737 423.141 494.075 421.576C493.576 420.564 492.83 419.593 492.844 418.461C492.844 417.146 493.906 416.078 494.3 414.826C495.004 412.52 493.71 409.383 495.658 407.956C500.792 404.187 498.823 395.187 498.71 388.823C498.621 383.333 498.387 377.849 498.007 372.369C501.239 381.456 502.561 391.113 501.889 400.734C501.664 403.885 501.249 407.197 502.48 410.108C503.422 412.344 505.293 414.186 505.8 416.556C506.116 418.018 505.891 419.53 505.961 421.021C506.032 422.512 506.538 424.136 507.825 424.888C507.924 431.667 508.528 438.916 508.634 445.695C508.566 449.16 508.848 452.623 509.478 456.031C509.794 457.116 509.969 458.236 509.998 459.364C509.84 460.78 509.465 462.162 508.887 463.464C507.661 467.093 507.341 470.966 507.954 474.746C508.567 478.527 510.094 482.101 512.404 485.157C514.064 482.21 517.524 480.649 520.9 480.403C524.276 480.157 527.609 481.008 530.88 481.866C530.38 477.757 531.198 473.596 533.215 469.982C533.756 469.168 534.171 468.276 534.446 467.338C534.826 465.552 533.939 463.773 533.461 462.008C532.68 459.196 532.955 456.165 533.138 453.226C533.751 443.382 533.315 433.501 531.836 423.749C531.608 421.828 531.157 419.941 530.493 418.124C530.24 417.477 529.93 416.858 529.719 416.204C529.388 415.031 529.199 413.822 529.157 412.604L528.348 401.353C527.778 393.471 530.366 385.687 532.174 377.994C532.983 374.549 533.862 371.11 534.404 367.608C535.142 362.841 535.262 357.968 536.345 353.264C537.315 349.045 539.067 344.931 539.432 340.607C539.995 333.906 537.21 327.429 534.509 321.284C533.384 318.752 529.129 319.005 526.393 318.555C506.988 315.37 486.55 315.349 468.249 322.528C466.357 323.312 464.652 324.489 463.249 325.981Z" fill="#3C354C"/>
<path d="M477.238 201.176L479.39 209.544C479.975 211.463 480.299 213.452 480.353 215.457C480.375 216.189 480.213 216.914 479.882 217.567C479.528 218.103 479.074 218.566 478.546 218.931C477.076 220.049 476.056 222.658 474.375 223.431C475.24 224.936 476.436 223.958 477.997 224.711C480.747 226.047 483.265 227.967 486.247 228.627C489.06 229.246 492.014 228.663 494.806 227.924C498.766 226.848 502.705 225.365 505.891 222.77C509.077 220.175 510.891 217.883 510.877 213.784C507.361 214.199 504.231 210.648 502.677 207.455C502.138 206.242 501.741 204.97 501.495 203.665L499.61 195.375C497.556 195.825 495.883 197.294 493.92 198.061C491.958 198.827 489.637 198.898 487.457 198.996C483.587 199.172 479.738 199.671 475.95 200.487C475.43 200.592 474.776 200.923 474.902 201.429" fill="#FBB3B2"/>
<path opacity="0.1" d="M477.238 201.176L479.39 209.544C479.975 211.463 480.299 213.452 480.353 215.457C480.375 216.189 480.213 216.914 479.882 217.567C479.528 218.103 479.074 218.566 478.546 218.931C477.076 220.049 476.056 222.658 474.375 223.431C475.24 224.936 476.436 223.958 477.997 224.711C480.747 226.047 483.265 227.967 486.247 228.627C489.06 229.246 492.014 228.663 494.806 227.924C498.766 226.848 502.705 225.365 505.891 222.77C509.077 220.175 510.891 217.883 510.877 213.784C507.361 214.199 504.231 210.648 502.677 207.455C502.138 206.242 501.741 204.97 501.495 203.665L499.61 195.375C497.556 195.825 495.883 197.294 493.92 198.061C491.958 198.827 489.637 198.898 487.457 198.996C483.587 199.172 479.738 199.671 475.95 200.487C475.43 200.592 474.776 200.923 474.902 201.429" fill="black"/>
<path d="M486.479 205.789C496.765 205.789 505.103 197.452 505.103 187.169C505.103 176.885 496.765 168.549 486.479 168.549C476.194 168.549 467.855 176.885 467.855 187.169C467.855 197.452 476.194 205.789 486.479 205.789Z" fill="#FBB3B2"/>
<path d="M491.604 217.862C492.6 215.711 494.037 213.795 495.824 212.237C498.447 209.937 502.034 208.074 502.653 204.643L508.336 211.259C508.644 211.566 508.884 211.935 509.039 212.342C509.111 212.724 509.1 213.116 509.008 213.493C508.916 213.87 508.744 214.224 508.504 214.529C507.098 216.772 504.882 218.375 502.786 220C497.982 223.804 493.383 227.86 489.008 232.15C488.816 232.374 488.557 232.532 488.27 232.6C487.998 232.608 487.73 232.532 487.503 232.382C483.728 230.401 480.388 227.685 477.678 224.394C477.474 224.148 477.221 223.867 476.89 223.888C476.691 223.925 476.507 224.02 476.363 224.162C474.471 225.709 472.403 227.559 469.977 227.32C473.12 225.062 474.9 221.293 475.561 217.475C475.692 216.168 475.96 214.879 476.363 213.629C476.571 213.003 476.93 212.439 477.409 211.985C477.887 211.531 478.47 211.202 479.106 211.027C477.572 213.369 478.62 216.688 480.681 218.579C482.683 220.278 485.084 221.442 487.658 221.962C490.049 222.412 490.753 219.704 491.604 217.862Z" fill="#323444"/>
<path d="M467.376 327.894C470.028 328.547 472.539 329.658 475.113 330.481C479.804 331.95 484.742 332.469 489.636 332.007C491.143 331.974 492.608 331.508 493.856 330.664C494.187 330.397 494.489 330.08 494.841 329.834C495.429 329.481 496.067 329.218 496.733 329.054C503.182 327.036 508.584 322.683 513.824 318.422C513.992 318.281 514.182 318.105 514.168 317.88C514.144 317.727 514.07 317.586 513.957 317.48L511.2 314.315C503.97 315.546 496.564 315.082 489.229 314.899C487.722 314.832 486.214 314.872 484.713 315.019C483.264 315.187 481.837 315.553 480.409 315.862C474.986 317.044 469.444 317.494 463.951 318.267C463.567 318.296 463.194 318.411 462.861 318.605C462.629 318.784 462.432 319.003 462.277 319.252L460.35 321.959C459.602 322.869 459.051 323.925 458.733 325.06C458.282 327.169 459.225 327.872 461.018 327.598C463.137 327.288 465.296 327.388 467.376 327.894Z" fill="#323444"/>
<path d="M488.934 228.93C486.783 226.726 484.343 224.822 481.683 223.269C480.608 222.587 479.416 222.11 478.166 221.863C477.538 221.739 476.89 221.754 476.268 221.907C475.645 222.06 475.064 222.347 474.565 222.749C473.939 223.304 473.545 224.078 472.941 224.662C472.179 225.301 471.307 225.794 470.366 226.117C467.165 227.485 464.13 229.214 461.322 231.271C459.791 232.342 458.412 233.615 457.221 235.054C454.035 239.133 453.557 244.681 453.642 249.856C453.705 253.456 457.158 256.128 459.535 258.821C461.765 261.472 463.783 264.293 465.57 267.259C466.85 269.285 468.186 271.478 468.024 273.89C467.891 275.866 466.737 277.723 466.92 279.691C466.984 280.395 467.209 281.041 467.272 281.724C467.398 283.13 466.843 284.536 466.702 285.943C466.512 287.932 467.159 289.908 467.195 291.912C467.169 293.284 466.994 294.649 466.674 295.984C465.324 302.411 463.629 308.873 463.973 315.433L460.077 316.137C460.446 316.498 460.725 316.942 460.891 317.431C461.056 317.92 461.105 318.442 461.031 318.953C460.958 319.465 460.765 319.952 460.469 320.375C460.172 320.798 459.78 321.146 459.324 321.389C465.408 323.421 471.984 322.395 478.434 322.388C483.772 322.388 489.089 323.091 494.42 322.992C499.751 322.894 505.251 321.931 509.647 318.914C510.842 318.098 511.94 317.142 513.199 316.432C514.885 315.558 516.702 314.964 518.579 314.674C522.056 314.011 525.59 313.695 529.129 313.732C530.859 313.732 532.744 313.802 534.122 312.761C535.641 311.608 536.028 309.52 536.232 307.628C536.436 305.631 536.563 303.627 536.598 301.623C536.657 300.063 536.575 298.5 536.352 296.954C536.141 295.824 535.866 294.706 535.529 293.607L532.877 284.269C531.78 280.416 533.306 276.19 533.63 272.196C533.707 271.253 533.721 270.156 532.997 269.552C532.737 269.334 532.378 269.186 532.294 268.849C532.256 268.688 532.251 268.522 532.28 268.36C532.309 268.198 532.371 268.043 532.462 267.906C533.869 265.094 535.979 262.611 537.906 260.073C541.143 255.62 544.148 251.004 546.909 246.242C546.044 236.277 541.847 226.894 534.994 219.606C533.588 218.08 531.977 216.617 530.008 215.928C528.721 215.535 527.386 215.32 526.041 215.288C520.527 214.916 514.788 214.585 509.984 211.815C509.64 211.576 509.249 211.411 508.838 211.33C507.776 211.21 507.002 212.258 506.313 213.087C504.541 215.197 501.931 216.406 499.639 217.96C495.362 220.864 492.022 224.858 488.934 228.93Z" fill="#5B5583"/>
<path d="M547.383 249.118C548.48 252.591 548.374 256.304 548.733 259.925C548.945 262.111 549.329 264.276 549.879 266.402C550.131 267.57 550.583 268.686 551.216 269.699C551.849 270.628 552.756 271.38 553.157 272.428C553.376 273.138 553.473 273.879 553.445 274.622L553.53 279.473C553.71 282.045 553.319 284.624 552.383 287.025L549.352 296.244C547.713 301.236 546.032 306.306 543.078 310.652C542.662 311.387 542.032 311.978 541.271 312.346C540.675 312.504 540.065 312.598 539.449 312.628C538.377 312.819 537.405 313.378 536.7 314.208C535.995 315.038 535.602 316.088 535.588 317.177C534.884 316.149 534.006 315.252 532.993 314.526L526.825 309.604C524.715 307.888 522.513 306.145 519.953 305.153C523.396 304.078 526.453 302.027 528.753 299.248C531.053 296.47 532.496 293.083 532.908 289.501C532.906 288.434 533.147 287.381 533.612 286.421C534.125 285.591 535.075 284.958 535.145 283.981C535.229 282.75 533.837 281.822 533.837 280.592C533.837 279.776 534.442 279.101 534.709 278.334C534.959 277.387 534.959 276.391 534.709 275.444L533.858 270.719C533.808 270.246 533.664 269.787 533.436 269.369C533.117 268.968 532.764 268.597 532.381 268.258C530.918 266.62 531.565 264.039 532.381 262.021C534.254 257.541 536.668 253.307 539.569 249.413C540.601 248.105 541.557 246.739 542.431 245.321C543.177 244.027 543.346 242.234 544.133 241.102C545.146 243.76 546.518 246.382 547.383 249.118Z" fill="#5B5583"/>
<path d="M519.738 305.441C519.424 305.674 519.153 305.96 518.936 306.285C518.107 307.325 517.004 308.112 515.75 308.556C516.453 309.063 517.093 309.562 517.754 310.075C522.646 313.852 527.125 318.135 531.118 322.852C531.561 321.27 534.212 321.382 534.859 319.87C535.012 319.438 535.06 318.975 535 318.52C534.865 316.152 534.527 313.799 533.987 311.489C533.774 310.299 533.293 309.174 532.58 308.198C531.596 307.009 530.063 306.44 528.6 305.948C526.384 305.174 521.988 304.084 519.738 305.441Z" fill="#323444"/>
<path d="M510.947 310.968C508.837 312.529 506.987 314.484 504.617 315.553C502.943 316.312 501.037 316.643 499.574 317.775C500.369 319.526 502.437 320.433 504.357 320.363C506.279 320.174 508.121 319.499 509.709 318.401C510.968 317.627 512.445 316.727 513.816 317.269C514.027 318.337 513.113 319.343 513.113 320.426C513.113 321.509 514.013 322.296 514.899 322.866C519.119 325.587 524.549 325.362 529.578 325.046C529.866 325.056 530.15 324.972 530.387 324.807C530.496 324.679 530.578 324.532 530.63 324.373C530.682 324.213 530.702 324.045 530.689 323.878C530.752 322.767 530.78 321.663 530.787 320.552C530.93 319.657 530.813 318.739 530.452 317.907C530.091 317.075 529.5 316.363 528.748 315.855C526.019 313.51 523.075 311.426 519.956 309.632C516.862 307.839 513.725 308.901 510.947 310.968Z" fill="#FBB3B2"/>
<path d="M493.018 179.385C489.895 179.757 487.623 182.197 487.94 184.848C488.256 187.499 491.041 189.328 494.164 188.948C497.287 188.568 499.558 186.135 499.242 183.491C498.925 180.847 496.14 179.012 493.018 179.385ZM494.08 188.217C491.435 188.533 489.079 186.979 488.805 184.743C488.53 182.507 490.464 180.44 493.102 180.123C495.739 179.807 498.103 181.361 498.377 183.597C498.651 185.833 496.717 187.9 494.08 188.217Z" fill="#BD8632"/>
<path d="M477.795 181.213C474.672 181.586 472.4 184.026 472.717 186.67C473.033 189.314 475.819 191.149 478.941 190.776C482.064 190.403 484.336 187.963 484.019 185.312C483.703 182.662 480.918 180.84 477.795 181.213ZM478.857 190.038C476.212 190.354 473.856 188.8 473.589 186.571C473.322 184.342 475.242 182.268 477.886 181.944C480.531 181.621 482.887 183.182 483.154 185.418C483.421 187.654 481.494 189.721 478.857 190.038Z" fill="#BD8632"/>
<path d="M466.496 182.57L473.283 184.019L472.615 185.805L466.215 183.927L466.496 182.57Z" fill="#BD8632"/>
<path d="M504.326 178.028L498.066 181.044L499.143 182.619L504.917 179.279L504.326 178.028Z" fill="#BD8632"/>
<path d="M483.395 183.569L488.156 182.999L487.91 184.18L483.824 184.455L483.395 183.569Z" fill="#BD8632"/>
<path d="M474.16 181.972C474.608 181.009 474.848 179.962 474.863 178.9C474.88 178.264 474.989 177.634 475.187 177.029C475.532 176.261 476.058 175.588 476.72 175.067C478.914 173.211 482.058 172.255 485.16 172.121C488.542 171.965 491.906 172.692 494.922 174.231C495.843 174.662 496.668 175.274 497.348 176.031C498.333 177.233 498.544 178.787 499.536 179.975C500.212 180.696 501.064 181.231 502.008 181.526C502.952 181.822 503.956 181.869 504.923 181.663C505.268 180.44 504.818 179.146 504.993 177.894C505.271 176.822 505.645 175.777 506.112 174.772C507.202 171.559 505.612 167.832 502.335 165.912C501.188 165.209 499.831 164.752 498.973 163.803C498.115 162.853 497.911 161.869 497.32 160.92C495.752 158.409 491.694 157.235 488.606 158.395C487.635 158.761 486.777 159.316 485.793 159.71C483.964 160.463 481.882 160.596 479.871 160.849C477.888 161.033 475.949 161.541 474.132 162.354C472.395 163.212 470.939 164.59 470.538 166.236C470.348 166.995 470.39 167.783 470.2 168.535C469.23 172.353 462.963 174.209 462.611 178.105C462.485 179.511 463.251 180.861 464.208 182.008C464.869 182.788 466.451 184.876 467.57 185.179C468.688 185.481 469.539 184.419 470.608 184.054C472.296 183.526 473.316 183.414 474.16 181.972Z" fill="#AC864C"/>
<path d="M553.504 429.635C553.504 464.962 575.673 493.552 603.067 493.552L553.504 429.635Z" fill="#46455B"/>
<path d="M603.07 493.559C603.07 457.832 627.813 428.924 658.386 428.924L603.07 493.559Z" fill="#6C63FF"/>
<path d="M571.469 432.841C571.469 466.403 585.605 493.559 603.069 493.559L571.469 432.841Z" fill="#6C63FF"/>
<path d="M603.07 493.559C603.07 447.91 631.667 410.965 667.002 410.965L603.07 493.559Z" fill="#46455B"/>
<path opacity="0.1" d="M600.924 505.766C607.729 505.766 613.246 504.834 613.246 503.685C613.246 502.535 607.729 501.604 600.924 501.604C594.118 501.604 588.602 502.535 588.602 503.685C588.602 504.834 594.118 505.766 600.924 505.766Z" fill="#6C63FF"/>
<path d="M592.645 494.009C592.645 494.009 599.678 493.791 601.788 492.287C603.898 490.782 612.598 488.975 613.125 491.394C613.653 493.813 623.675 503.425 615.749 503.488C607.822 503.551 597.308 502.25 595.198 500.964C593.088 499.677 592.645 494.009 592.645 494.009Z" fill="#A8A8A8"/>
<path opacity="0.2" d="M615.896 502.644C607.963 502.708 597.462 501.407 595.345 500.12C593.735 499.143 593.095 495.62 592.877 494.002H592.645C592.645 494.002 593.088 499.67 595.205 500.957C597.322 502.244 607.822 503.544 615.756 503.481C618.048 503.481 618.836 502.644 618.794 501.442C618.477 502.173 617.64 502.63 615.896 502.644Z" fill="black"/>
<path d="M15.8164 450.28C15.8164 478.406 33.4486 501.133 55.2445 501.133L15.8164 450.28Z" fill="#46455B"/>
<path d="M55.2461 501.133C55.2461 472.711 74.939 449.71 99.2528 449.71L55.2461 501.133Z" fill="#6C63FF"/>
<path d="M30.1016 452.839C30.1016 479.559 41.3547 501.147 55.2452 501.147L30.1016 452.839Z" fill="#6C63FF"/>
<path d="M55.2461 501.133C55.2461 464.814 77.9985 435.422 106.11 435.422L55.2461 501.133Z" fill="#46455B"/>
<path opacity="0.1" d="M53.5347 510.85C58.9495 510.85 63.339 510.107 63.339 509.191C63.339 508.274 58.9495 507.531 53.5347 507.531C48.12 507.531 43.7305 508.274 43.7305 509.191C43.7305 510.107 48.12 510.85 53.5347 510.85Z" fill="#6C63FF"/>
<path d="M46.9531 501.491C46.9531 501.491 52.5445 501.315 54.2254 500.085C55.9064 498.854 62.8341 497.448 63.249 499.382C63.664 501.315 71.6537 508.952 65.359 509.001C59.0643 509.05 50.6877 508.017 49.0068 506.997C47.3259 505.977 46.9531 501.491 46.9531 501.491Z" fill="#A8A8A8"/>
<path opacity="0.2" d="M65.4504 508.389C59.1205 508.438 50.7792 507.405 49.0982 506.378C47.8182 505.605 47.3118 502.799 47.136 501.512H46.9531C46.9531 501.512 47.3048 506.02 48.9857 507.046C50.6666 508.073 59.0291 509.099 65.3379 509.05C67.1595 509.05 67.7925 508.389 67.7573 507.426C67.5041 507.988 66.8078 508.347 65.4504 508.389Z" fill="black"/>
</g>
<defs>
<clipPath id="clip0_334_2073">
<rect width="667" height="533" fill="white"/>
</clipPath>
</defs>
</svg>
