<svg  viewBox="0 0 716 381" fill="none" xmlns="http://www.w3.org/2000/svg">
<g clip-path="url(#clip0_334_2183)">
<path opacity="0.1" d="M661.103 301.276C660.306 302.995 659.51 304.69 658.717 306.363C657.48 308.962 656.258 311.511 655.053 314.009C654.516 315.115 653.98 316.202 653.457 317.288C647.544 329.368 642.023 340.052 637.333 348.838C633.078 356.799 626.76 363.47 619.041 368.151C611.322 372.832 602.486 375.351 593.458 375.445L489.185 376.579H488.085L479.147 376.676L471.501 376.758L448.054 377.012H447.105L435.169 377.143H434.804L361.232 377.941L295.56 378.628L287.921 378.711L240.478 379.226H240.423L209.653 379.556H209.323L112.029 380.608L82.9236 380.924C76.7124 380.995 70.5274 380.109 64.5856 378.298C54.2458 375.175 44.9532 369.292 37.7078 361.282C25.2074 347.511 16.0969 331.444 9.97733 314.009C9.09263 311.492 8.26753 308.944 7.50201 306.363C-13.6826 234.759 12.1432 142.377 58.6242 80.5561C60.5724 77.971 62.5527 75.4501 64.565 72.9934L64.6131 72.9384C78.9081 55.393 94.9358 40.7352 112.009 30.3125C142.263 11.8115 175.783 6.60013 208.752 22.1311C236.648 35.2764 262.694 41.4571 287.942 43.1347C290.493 43.2997 293.044 43.4234 295.581 43.499C353.497 45.3209 407.775 24.4549 471.514 10.9865C474.052 10.4502 476.596 9.92082 479.16 9.41894C524.631 0.371243 575.072 -4.40011 635.057 5.63073C641.289 6.64871 647.439 8.1193 653.457 10.0308C656.102 10.8833 658.651 11.8 661.103 12.7809C689.734 24.4274 705.35 45.9466 711.985 72.9109C712.613 75.4135 713.156 77.9596 713.615 80.5492C725.379 145.409 690.924 237.413 661.103 301.276Z" fill="#6C63FF"/>
<g opacity="0.1">
<path opacity="0.1" d="M112.006 30.3125V380.684L82.9005 381C76.6893 381.07 70.5043 380.184 64.5625 378.374V72.9384H64.6106C78.9056 55.3724 94.9333 40.7146 112.006 30.3125Z" fill="#6C63FF"/>
<path opacity="0.1" d="M713.646 80.5561H58.6211C60.5693 77.971 62.5495 75.4501 64.5619 72.9934V72.9384H712.016C712.644 75.4272 713.187 77.9664 713.646 80.5561Z" fill="#6C63FF"/>
<path opacity="0.1" d="M661.103 12.7877V306.357H658.717C657.479 308.955 656.258 311.504 655.052 314.002C654.516 315.109 653.98 316.195 653.457 317.281V10.0102C656.102 10.8627 658.651 11.7886 661.103 12.7877Z" fill="#6C63FF"/>
<path opacity="0.1" d="M479.158 9.39832V376.703L471.512 376.786V10.9658C474.049 10.4296 476.593 9.9002 479.158 9.39832Z" fill="#6C63FF"/>
<path opacity="0.1" d="M295.581 43.4784V378.697L287.941 378.779V43.114C290.492 43.279 293.043 43.3753 295.581 43.4784Z" fill="#6C63FF"/>
<path opacity="0.1" d="M658.715 306.363C657.478 308.962 656.256 311.511 655.051 314.009H9.97532C9.09062 311.492 8.26552 308.944 7.5 306.363H658.715Z" fill="#6C63FF"/>
</g>
<path d="M158.556 182.762H145.492V222.404H158.556V182.762Z" fill="#3F3D56"/>
<path d="M510.142 180.699H497.078V222.638H510.142V180.699Z" fill="#3F3D56"/>
<path d="M593.458 366.892V375.83L488.999 376.792L487.885 376.813L448.184 377.177L447.235 377.191L435.168 377.294H434.81L361.252 377.975L240.505 379.096H240.402L209.701 379.384L209.371 379.391L72.9531 380.643V370.33L105.029 351.079L169.387 350.543L170.763 350.536L171.216 350.529L172.592 350.509L203.492 350.254L204.874 350.247L205.314 350.241L206.689 350.234L216.597 350.151L216.859 350.144L241.302 349.938H241.502L432.239 348.329L436.908 348.295H437.375L440.937 348.261L466.825 348.047L468.2 348.027L469.472 348.013H470.132L478.184 347.951L479.779 347.931L481.917 347.917L488.621 347.855L499.258 347.766L500.633 347.752L503.026 347.738H503.473L554.843 347.298L593.458 366.892Z" fill="#65617D"/>
<path opacity="0.2" d="M593.458 366.892V375.83L488.999 376.792L487.885 376.813L448.184 377.177L447.235 377.191L435.168 377.294H434.81L361.252 377.975L240.505 379.096H240.402L209.701 379.384L209.371 379.391L72.9531 380.643V370.33L105.029 351.079L169.387 350.543L170.763 350.536L171.216 350.529L172.592 350.509L203.492 350.254L204.874 350.247L205.314 350.241L206.689 350.234L216.597 350.151L216.859 350.144L241.302 349.938H241.502L432.239 348.329L436.908 348.295H437.375L440.937 348.261L466.825 348.047L468.2 348.027L469.472 348.013H470.132L478.184 347.951L479.779 347.931L481.917 347.917L488.621 347.855L499.258 347.766L500.633 347.752L503.026 347.738H503.473L554.843 347.298L593.458 366.892Z" fill="black"/>
<path d="M203.594 332.523V349.361C203.594 350.158 203.368 350.939 202.942 351.613C202.516 352.288 201.908 352.827 201.187 353.169C200.651 353.429 200.064 353.57 199.468 353.582L175.471 354.091C174.83 354.106 174.195 353.972 173.615 353.699C172.882 353.363 172.261 352.823 171.825 352.144C171.39 351.465 171.159 350.676 171.16 349.869V332.523H203.594Z" fill="#3F3D56"/>
<path opacity="0.1" d="M203.594 332.523V349.361C203.594 350.158 203.368 350.939 202.942 351.613C202.516 352.288 201.908 352.827 201.187 353.169C200.651 353.429 200.064 353.57 199.468 353.582L175.471 354.091C174.83 354.106 174.195 353.972 173.615 353.699C172.882 353.363 172.261 352.823 171.825 352.144C171.39 351.465 171.159 350.676 171.16 349.869V332.523H203.594Z" fill="black"/>
<path d="M204.969 332.523V349.361C204.969 350.158 204.743 350.939 204.317 351.613C203.891 352.288 203.283 352.827 202.562 353.169C202.026 353.429 201.439 353.57 200.843 353.582L176.846 354.091C176.205 354.106 175.57 353.972 174.99 353.699C174.257 353.363 173.636 352.823 173.2 352.144C172.765 351.465 172.534 350.676 172.535 349.869V332.523H204.969Z" fill="#3F3D56"/>
<path d="M500.633 332.523H468.199V354.18H500.633V332.523Z" fill="#3F3D56"/>
<path opacity="0.1" d="M500.633 332.523H468.199V354.18H500.633V332.523Z" fill="black"/>
<path d="M499.258 332.523H466.824V354.18H499.258V332.523Z" fill="#3F3D56"/>
<path opacity="0.1" d="M158.556 182.755V186.695L145.492 186.358V182.755H158.556Z" fill="black"/>
<path d="M244.549 71.7766L228.851 184.529C228.752 185.249 228.39 185.907 227.836 186.378C227.282 186.849 226.573 187.098 225.847 187.08L100.155 183.821L97.7694 183.759C97.354 183.749 96.9453 183.652 96.57 183.473C96.1947 183.295 95.8612 183.04 95.5913 182.724C95.3215 182.408 95.1212 182.038 95.0036 181.64C94.8861 181.241 94.8538 180.823 94.909 180.411L112.532 62.3783C112.646 61.6471 113.029 60.9852 113.607 60.5231C114.185 60.0611 114.915 59.8325 115.654 59.8826L241.799 68.4215C242.206 68.4451 242.603 68.5528 242.967 68.7377C243.33 68.9227 243.651 69.181 243.909 69.4963C244.168 69.8115 244.358 70.1769 244.468 70.5694C244.578 70.9619 244.606 71.3729 244.549 71.7766Z" fill="#65617D"/>
<path d="M120.967 68.174L107.676 172.216L223.191 175.88L237.396 75.5029L120.967 68.174Z" fill="#6C63FF"/>
<path d="M401.509 66.5652H268.11C266.086 66.5652 264.445 68.2058 264.445 70.2296V182.068C264.445 184.091 266.086 185.732 268.11 185.732H401.509C403.533 185.732 405.174 184.091 405.174 182.068V70.2296C405.174 68.2058 403.533 66.5652 401.509 66.5652Z" fill="#65617D"/>
<path d="M398.981 74.5885H271.09V173.818H398.981V74.5885Z" fill="#6C63FF"/>
<path opacity="0.1" d="M510.142 180.693V183.298L497.078 183.566V180.693H510.142Z" fill="black"/>
<path d="M569.09 178.493C569.109 178.777 569.07 179.063 568.975 179.332C568.881 179.602 568.733 179.849 568.54 180.06C568.347 180.27 568.114 180.44 567.854 180.558C567.594 180.676 567.313 180.741 567.028 180.748L438.311 183.408C437.776 183.419 437.257 183.228 436.858 182.872C436.459 182.516 436.209 182.023 436.159 181.49L425.096 66.4827C425.068 66.1974 425.099 65.9095 425.186 65.6364C425.274 65.3634 425.415 65.1109 425.603 64.8943C425.791 64.6776 426.021 64.5014 426.279 64.3761C426.536 64.2509 426.817 64.1794 427.103 64.1658L554.844 57.8131L556.219 57.7444C556.765 57.7156 557.302 57.9002 557.715 58.2594C558.128 58.6186 558.385 59.1241 558.433 59.6694L569.09 178.493Z" fill="#65617D"/>
<path d="M432.445 70.9241L549.109 65.1902L558.962 169.692L443.22 172.442L432.445 70.9241Z" fill="#6C63FF"/>
<path opacity="0.1" d="M569.091 178.493C569.109 178.777 569.07 179.063 568.975 179.332C568.881 179.602 568.733 179.849 568.54 180.06C568.347 180.27 568.114 180.44 567.854 180.558C567.594 180.676 567.313 180.741 567.028 180.748L554.844 57.8131L556.219 57.7444C556.766 57.7156 557.302 57.9002 557.715 58.2594C558.128 58.6186 558.386 59.1241 558.433 59.6694L569.091 178.493Z" fill="black"/>
<path opacity="0.1" d="M115.674 59.8757L100.155 183.821L97.7694 183.759C97.354 183.749 96.9453 183.652 96.57 183.473C96.1947 183.295 95.8612 183.04 95.5913 182.724C95.3215 182.408 95.1212 182.038 95.0036 181.64C94.8861 181.241 94.8538 180.823 94.909 180.411L112.532 62.3782C112.644 61.642 113.03 60.9753 113.613 60.5114C114.195 60.0474 114.931 59.8204 115.674 59.8757Z" fill="black"/>
<path opacity="0.1" d="M158.556 210.661H145.492V222.404H158.556V210.661Z" fill="black"/>
<path opacity="0.1" d="M204.969 332.516V335.933L172.535 336.8V332.516H204.969Z" fill="black"/>
<path d="M262.213 214.752V330.392C262.205 331.098 261.925 331.774 261.432 332.279C260.94 332.785 260.271 333.081 259.566 333.108L127.789 336.614H127.755C127.037 336.605 126.352 336.316 125.844 335.809C125.337 335.301 125.048 334.616 125.039 333.898V214.752C125.048 214.035 125.337 213.349 125.844 212.842C126.352 212.334 127.037 212.045 127.755 212.036H259.497C260.215 212.045 260.9 212.334 261.408 212.842C261.915 213.349 262.204 214.035 262.213 214.752Z" fill="#65617D"/>
<path opacity="0.1" d="M127.789 212.036V336.614H127.755C127.037 336.605 126.352 336.316 125.844 335.809C125.337 335.301 125.048 334.616 125.039 333.898V214.752C125.048 214.035 125.337 213.349 125.844 212.842C126.352 212.334 127.037 212.045 127.755 212.036H127.789Z" fill="black"/>
<path d="M133.805 219.42H255.852V321.344L133.805 324.094V219.42Z" fill="#D4DFEC"/>
<path opacity="0.1" d="M510.142 210.661H497.078V222.638H510.142V210.661Z" fill="black"/>
<path opacity="0.1" d="M499.258 332.516V336.923L466.824 336.057V332.516H499.258Z" fill="black"/>
<path d="M542.061 214.752V333.898C542.052 334.622 541.758 335.312 541.243 335.821C540.728 336.329 540.034 336.614 539.31 336.614L407.507 333.108C406.801 333.081 406.133 332.785 405.64 332.279C405.147 331.774 404.868 331.098 404.859 330.392V214.752C404.868 214.035 405.157 213.349 405.665 212.842C406.172 212.334 406.858 212.045 407.575 212.036H539.317C540.04 212.038 540.732 212.324 541.246 212.832C541.759 213.34 542.052 214.03 542.061 214.752Z" fill="#65617D"/>
<path opacity="0.1" d="M542.059 214.752V333.898C542.05 334.622 541.756 335.312 541.241 335.821C540.727 336.329 540.032 336.614 539.309 336.614V212.036C540.032 212.036 540.727 212.321 541.241 212.83C541.756 213.338 542.05 214.029 542.059 214.752Z" fill="black"/>
<path d="M533.293 219.42H411.246V321.344L533.293 324.094V219.42Z" fill="#D4DFEC"/>
<path d="M401.447 214.752V330.392C401.439 331.098 401.16 331.774 400.667 332.279C400.174 332.785 399.506 333.081 398.8 333.108L267.024 336.614C266.3 336.614 265.606 336.329 265.091 335.821C264.576 335.312 264.282 334.622 264.273 333.898V214.752C264.282 214.035 264.571 213.349 265.079 212.842C265.586 212.334 266.272 212.045 266.989 212.036H398.731C399.449 212.045 400.135 212.334 400.642 212.842C401.15 213.349 401.439 214.035 401.447 214.752Z" fill="#65617D"/>
<path d="M273.043 219.42H395.09V321.344L273.043 324.094V219.42Z" fill="#D4DFEC"/>
<path opacity="0.1" d="M593.458 366.892V375.83L488.999 376.792L487.885 376.813L448.184 377.177L447.235 377.191L435.168 377.294H434.81L361.252 377.975L240.505 379.096H240.402L209.701 379.384L209.371 379.391L72.9531 380.643V370.33L212.197 369.415H212.527L240.711 369.223H240.842L435.484 367.937H435.684L435.801 367.93H436.124L439.417 367.91H440.421L491.64 367.566L494.665 367.552L495.339 367.545L593.458 366.892Z" fill="black"/>
<path d="M335.036 222.404C354.528 222.404 370.33 206.604 370.33 187.114C370.33 167.624 354.528 151.824 335.036 151.824C315.544 151.824 299.742 167.624 299.742 187.114C299.742 206.604 315.544 222.404 335.036 222.404Z" fill="#FBBEBE"/>
<path d="M370.334 259.303C370.334 259.303 301.919 267.553 308.451 259.303C310.817 256.319 311.47 247.478 311.339 237.406C311.298 234.346 311.188 231.177 311.03 228.021C310.273 212.896 308.451 198.114 308.451 198.114C308.451 198.114 368.272 169.926 361.396 192.27C358.645 201.297 359.546 213.975 361.636 225.876C362.248 229.348 362.957 232.751 363.699 235.983C365.511 243.864 367.726 251.648 370.334 259.303Z" fill="#FBBEBE"/>
<path opacity="0.1" d="M370.334 259.303C370.334 259.303 301.919 267.553 308.451 259.303C310.817 256.319 311.47 247.478 311.339 237.406C321.77 232.951 335.04 236.271 335.04 236.271C349.012 233.487 357.972 234.03 363.699 235.983C365.511 243.864 367.726 251.648 370.334 259.303Z" fill="black"/>
<path d="M240.477 379.873V379.295L361.232 377.982L434.804 377.294H435.01L434.934 378.312L435.037 377.294H435.168V377.177L436.11 367.93L436.468 364.431L436.578 363.338L436.674 362.423L440.923 348.254L445.172 334.105L448.748 322.19L454.207 303.985C454.207 303.985 451.113 296.766 449.394 294.703C447.675 292.641 445.956 278.547 445.956 278.547C445.956 278.547 431.283 264.569 424.868 262.961C422.18 262.273 416.871 261.359 411.233 260.211C409.122 259.784 406.956 259.331 404.873 258.836C403.697 258.567 402.542 258.286 401.435 258.004C399.28 257.466 397.157 256.809 395.075 256.037C393.983 255.641 392.944 255.112 391.981 254.463C386.927 250.757 374.261 250.338 373.773 250.338C373.772 250.322 373.772 250.306 373.773 250.29V250.228C373.791 249.939 373.791 249.65 373.773 249.362C373.773 249.087 373.773 248.763 373.711 248.399C373.711 248.289 373.711 248.172 373.663 248.055C373.629 247.808 373.588 247.547 373.526 247.272C373.505 247.149 373.477 247.027 373.443 246.907C373.244 246.079 372.956 245.274 372.584 244.508C372.536 244.398 372.474 244.281 372.419 244.171C372.082 243.536 371.691 242.931 371.25 242.363C371.16 242.246 371.064 242.122 370.961 242.005C370.398 241.341 369.771 240.733 369.091 240.19C368.905 240.046 368.713 239.895 368.513 239.757C368.402 239.667 368.285 239.584 368.163 239.51L367.551 239.111L366.98 238.781C366.478 238.506 365.948 238.238 365.371 237.983C365.192 237.901 365 237.825 364.807 237.749C364.615 237.674 364.312 237.557 364.058 237.461H364.016L363.501 237.254C363.109 237.124 362.71 237.007 362.29 236.89L361.651 236.725L360.963 236.567L360.276 236.423C359.588 236.285 358.853 236.161 358.082 236.065L357.299 235.969L356.494 235.886L355.662 235.818L354.48 235.749L353.104 235.701C347.039 235.7 340.991 236.343 335.062 237.619C330.943 236.702 326.724 236.314 322.507 236.464H321.908L321.221 236.505H320.781L319.894 236.588C319.598 236.588 319.296 236.649 319 236.691C318.704 236.732 318.395 236.766 318.099 236.814L317.645 236.89C317.198 236.966 316.745 237.048 316.27 237.144C316.119 237.172 315.968 237.206 315.816 237.248C315.218 237.378 314.62 237.536 314.029 237.715C313.733 237.798 313.437 237.894 313.142 237.997C312.99 238.038 312.846 238.093 312.702 238.148L312.262 238.306L311.828 238.478L311.313 238.685C311.051 238.795 310.797 238.911 310.543 239.035C310.398 239.097 310.254 239.166 310.116 239.241C309.979 239.317 309.834 239.379 309.704 239.455C308.149 240.258 306.712 241.271 305.434 242.466L305.083 242.803L304.739 243.153C304.622 243.27 304.512 243.394 304.402 243.518C303.954 244.008 303.536 244.524 303.151 245.065C303.041 245.209 302.938 245.353 302.835 245.505C302.398 246.148 302.003 246.819 301.652 247.512C301.563 247.677 301.48 247.849 301.398 248.014C300.837 249.176 300.376 250.383 300.022 251.624C299.894 252.082 299.777 252.54 299.672 252.999C299.672 252.999 285.116 259.42 273.041 264.068C269.83 265.305 266.805 266.426 264.275 267.271C263.539 267.519 262.851 267.746 262.212 267.959C260.824 268.46 259.382 268.793 257.915 268.949C257.223 268.96 256.533 269.025 255.852 269.141C250.303 270.042 240.794 273.954 239.755 277.88C239.671 278.193 239.648 278.52 239.687 278.842C239.687 278.842 239.687 278.89 239.687 278.918C240.374 283.73 235.561 283.043 235.561 283.043C235.561 283.043 233.842 295.762 231.435 299.2C229.696 301.675 228.506 307.195 228.355 311.362C228.269 312.66 228.371 313.963 228.658 315.232C228.658 315.267 228.658 315.301 228.658 315.329C228.933 316.25 228.273 318.766 227.152 321.991C225.935 325.531 224.161 329.931 222.456 334.084C219.884 340.354 217.464 346.047 217.312 347.298C217.251 347.855 217.072 348.852 216.824 350.138C215.82 355.376 213.593 365.352 212.492 369.388C211.674 372.399 210.485 376.524 209.666 379.357C209.666 379.439 209.618 379.522 209.598 379.597L240.422 379.295V379.873H240.519H240.477Z" fill="#6C63FF"/>
<path opacity="0.1" d="M251.727 298.835C251.727 298.835 290.919 319.117 305.015 316.711L251.727 298.835Z" fill="black"/>
<path opacity="0.1" d="M331.484 290.585C331.484 290.585 369.646 302.96 382.366 304.679C395.086 306.398 331.484 290.585 331.484 290.585Z" fill="black"/>
<path opacity="0.1" d="M373.815 250.764C353.875 254.435 316.333 253.645 300.105 253.088C306.053 231.775 335.056 239.021 335.056 239.021C370.955 231.857 373.705 246.722 373.815 250.764Z" fill="black"/>
<path d="M373.815 249.389C353.875 253.06 316.333 252.27 300.105 251.713C306.053 230.4 335.056 237.646 335.056 237.646C370.955 230.482 373.705 245.346 373.815 249.389Z" fill="#6C63FF"/>
<path d="M479.66 343.352C479.66 343.352 503.148 339.742 503.609 350.055C504.07 360.368 491.631 367.573 491.631 367.573L479.66 343.352Z" fill="#FBBEBE"/>
<path opacity="0.1" d="M361.636 225.876C360.626 226.328 359.593 226.727 358.542 227.072C351.13 229.63 343.656 232.208 335.852 233.143C328.048 234.078 319.859 233.253 313.051 229.362C312.337 228.958 311.648 228.51 310.989 228.021C310.232 212.896 308.41 198.114 308.41 198.114C308.41 198.114 368.23 169.926 361.354 192.27C358.618 201.297 359.546 213.975 361.636 225.876Z" fill="black"/>
<path d="M325.352 131.955C324.371 132.214 323.343 132.24 322.349 132.031C321.356 131.822 320.426 131.384 319.632 130.752L321.062 132.738C320.219 132.836 319.365 132.748 318.56 132.48C317.755 132.213 317.018 131.773 316.4 131.192C316.27 132.97 316.344 134.758 316.62 136.52C314.254 136.634 311.924 135.903 310.047 134.457C310.01 135.077 310.164 135.694 310.489 136.224C310.814 136.754 311.293 137.171 311.862 137.42C309.485 137.136 307.085 137.727 305.112 139.082C303.138 140.437 301.725 142.463 301.136 144.784L304.725 145.114C301.904 145.716 299.372 147.261 297.546 149.493C296.446 150.868 295.607 152.628 296.089 154.306C296.57 155.983 298.894 157.056 300.159 155.86C298.36 158.007 297.052 160.523 296.327 163.229C295.602 165.936 295.479 168.769 295.965 171.528C296.291 172.704 296.398 173.93 296.281 175.144C296.054 176.279 295.339 177.262 294.982 178.369C294.294 180.376 294.947 182.556 295.559 184.556L298.784 195.158C299.953 198.987 301.115 202.824 302.641 206.529C303.722 208.872 304.641 211.287 305.392 213.755C306.258 217.083 306.292 220.727 308.142 223.635C309.41 225.465 311.104 226.959 313.079 227.987C319.879 231.878 328.096 232.703 335.879 231.768C343.663 230.833 351.13 228.255 358.536 225.697C360.181 225.202 361.76 224.509 363.239 223.635C368.361 220.28 369.503 213.418 370.458 207.375C371.524 200.637 372.947 193.914 375.471 187.575C376.97 183.8 378.909 179.971 378.579 175.928C378.159 170.559 373.91 166.207 372.858 160.927C372.506 159.162 372.522 157.343 372.906 155.585C373.232 154.537 373.415 153.45 373.449 152.353C373.332 150.139 371.517 148.434 369.812 147.011C366.113 143.922 362.294 141.002 358.357 138.252C358.157 136.877 360.028 136.286 360.873 135.2C362.07 133.667 360.832 131.233 359.017 130.518C357.202 129.803 355.166 130.27 353.275 130.745C353.399 129.777 353.206 128.795 352.727 127.946C352.247 127.096 351.506 126.424 350.614 126.029C349.722 125.635 348.726 125.538 347.774 125.755C346.823 125.972 345.967 126.489 345.334 127.231C344.832 126.08 344.029 125.085 343.011 124.349C341.993 123.614 340.795 123.166 339.544 123.051C334.986 122.694 334.896 126.18 331.981 128.098C329.065 130.016 326.659 127.486 324.417 125.643C324.005 126.685 323.875 127.816 324.039 128.924C324.203 130.032 324.656 131.077 325.352 131.955Z" fill="#3F3D56"/>
<path d="M497.079 363.977C497.079 363.977 496.467 365.435 495.34 367.545C493.634 370.793 491.557 373.831 489.151 376.6L488.966 376.799H487.852L448.15 377.164H447.202L447.085 377.026L439.384 367.889L436.482 364.445L436.365 364.3L436.118 364.012L435.98 363.847L435.801 363.633L430.156 356.937L432.219 348.343L435.733 333.864L435.822 333.513L436.51 330.763L436.998 328.701L438.634 321.977L444.245 298.842L454.215 303.998L464.728 322.561L470.373 332.53H473.467C474.052 332.53 475.393 333.658 476.74 334.957C477.222 335.418 477.703 335.906 478.116 336.332C479.34 337.597 480.309 338.683 480.309 338.683C480.309 338.683 485.322 338.793 486.669 342.74C486.739 342.931 486.796 343.126 486.841 343.324C487.288 344.875 487.871 346.384 488.581 347.834C489.468 349.766 490.582 351.959 491.709 354.153C493.806 358.175 495.938 362.004 496.722 363.393L496.818 363.565L497.079 363.977Z" fill="#6C63FF"/>
<path opacity="0.1" d="M438.015 332.936L437.947 333.919V333.988L437.83 335.569L436.915 348.295L435.808 363.627L435.492 367.944L434.804 377.184V377.301L361.232 377.989L240.499 379.295V379.872H240.402V379.295V379.102L240.712 369.23L241.303 349.938L241.812 333.582L241.86 331.953C241.89 330.969 242.12 330.002 242.537 329.111C242.953 328.219 243.547 327.422 244.282 326.768C245.017 326.113 245.877 325.616 246.811 325.305C247.745 324.994 248.732 324.877 249.712 324.961C252.958 325.236 257.173 325.573 262.213 325.93L264.275 326.081C293.381 328.103 347.171 330.715 401.449 327.456C402.591 327.395 403.739 327.326 404.887 327.243C413.303 326.714 421.713 326.033 430.039 325.181C431.092 325.07 432.156 325.192 433.156 325.538C434.157 325.883 435.069 326.443 435.83 327.179C436.59 327.916 437.18 328.809 437.558 329.798C437.935 330.787 438.092 331.846 438.015 332.901V332.936Z" fill="black"/>
<path d="M240.477 379.872V379.295L361.231 377.982L434.803 377.294H435.009V377.177L435.697 367.937L435.992 363.812L437.12 348.267L438.007 335.961V335.658C438.048 335.091 438.023 334.521 437.931 333.96C437.935 333.937 437.935 333.914 437.931 333.892C437.743 332.731 437.27 331.635 436.556 330.701C435.799 329.731 434.807 328.969 433.674 328.488C432.541 328.006 431.304 327.822 430.079 327.951C421.753 328.804 413.343 329.485 404.927 330.014C403.779 330.096 402.631 330.165 401.489 330.227C347.211 333.451 293.421 330.839 264.315 328.852L262.253 328.701C257.212 328.343 252.998 328.013 249.752 327.731C247.967 327.581 246.189 328.097 244.762 329.18C243.334 330.263 242.359 331.836 242.024 333.596C241.954 333.968 241.913 334.345 241.9 334.723L241.432 349.959L240.793 369.257L240.49 379.13V379.322V379.9L240.477 379.872Z" fill="#3F3D56"/>
<path opacity="0.1" d="M438.223 337.755L437.377 348.295L436.119 364.005L435.803 367.937L435.115 376.744L435.074 377.184V377.301L434.971 378.319L435.046 377.301H434.847L361.275 377.989L240.5 379.295V379.102L240.837 369.23L241.525 349.938L241.965 337.116C241.986 336.387 242.19 335.674 242.558 335.044C242.925 334.413 243.445 333.885 244.069 333.506C244.847 333.029 245.758 332.813 246.668 332.888C248.112 333.005 249.886 333.142 251.955 333.293C255.318 333.541 259.464 333.83 264.291 334.132C273.229 334.696 284.444 335.301 297.295 335.796C333.049 337.171 381.318 337.632 427.167 333.616C429.229 333.438 431.361 333.238 433.444 333.039C434.269 332.957 435.1 333.114 435.837 333.493C436.046 333.597 436.244 333.721 436.428 333.864C437.027 334.298 437.501 334.881 437.804 335.555C437.874 335.689 437.931 335.83 437.976 335.975C438.182 336.544 438.266 337.151 438.223 337.755Z" fill="black"/>
<path opacity="0.1" d="M204.969 347.167V349.361C204.969 350.158 204.743 350.939 204.317 351.614C203.891 352.288 203.283 352.827 202.562 353.169L174.99 353.699C174.257 353.363 173.636 352.823 173.2 352.144C172.765 351.465 172.534 350.676 172.535 349.869V347.807L204.969 347.167Z" fill="black"/>
<path d="M205.313 354.462L169.387 355.149V349.189L205.313 348.501V354.462Z" fill="#3F3D56"/>
<path opacity="0.1" d="M205.313 354.462L169.387 355.149V349.189L205.313 348.501V354.462Z" fill="black"/>
<path d="M206.688 354.462L170.762 355.149V349.189L206.688 348.501V354.462Z" fill="#3F3D56"/>
<g opacity="0.1">
<path opacity="0.1" d="M325.635 129.7C324.964 128.827 324.517 127.802 324.336 126.716C324.17 127.778 324.269 128.864 324.625 129.878C324.966 129.847 325.304 129.787 325.635 129.7Z" fill="black"/>
<path opacity="0.1" d="M316.903 134.265C316.773 133.422 316.688 132.573 316.648 131.721C316.648 132.567 316.648 133.419 316.648 134.272L316.903 134.265Z" fill="black"/>
<path opacity="0.1" d="M372.942 157.207C372.98 156.595 373.063 155.986 373.189 155.385C373.515 154.339 373.7 153.255 373.739 152.161C373.724 151.915 373.687 151.671 373.629 151.432C373.513 152.065 373.327 152.697 373.189 153.323C372.915 154.598 372.831 155.907 372.942 157.207Z" fill="black"/>
<path opacity="0.1" d="M358.64 135.963L359.389 136.506C360.021 136.049 360.612 135.538 361.156 134.98C361.415 134.622 361.575 134.202 361.621 133.763C361.667 133.324 361.597 132.881 361.418 132.477C361.349 132.634 361.261 132.782 361.156 132.917C360.311 134.003 358.44 134.602 358.64 135.963Z" fill="black"/>
<path opacity="0.1" d="M302.141 142.577C301.89 143.078 301.69 143.603 301.543 144.144C302.619 143.544 303.777 143.106 304.981 142.845L302.141 142.577Z" fill="black"/>
<path opacity="0.1" d="M311.623 135.097C311.171 134.848 310.739 134.565 310.33 134.251C310.313 134.523 310.334 134.796 310.392 135.062C310.803 135.043 311.214 135.054 311.623 135.097Z" fill="black"/>
<path opacity="0.1" d="M378.848 175.605C378.566 178.939 377.012 182.15 375.753 185.313C373.23 191.652 371.807 198.375 370.741 205.12C369.785 211.163 368.678 218.025 363.521 221.373C362.048 222.253 360.47 222.946 358.825 223.435C351.413 226 343.939 228.571 336.135 229.506C328.331 230.441 320.141 229.623 313.334 225.732C311.361 224.702 309.666 223.209 308.397 221.38C306.561 218.472 306.527 214.828 305.647 211.5C304.896 209.029 303.978 206.613 302.897 204.267C301.377 200.569 300.208 196.705 299.046 192.903C297.969 189.369 296.894 185.833 295.821 182.295C295.468 181.23 295.206 180.138 295.037 179.029C294.769 180.789 295.292 182.631 295.821 184.357C296.894 187.9 297.969 191.436 299.046 194.965C300.208 198.795 301.377 202.631 302.897 206.33C303.978 208.675 304.896 211.092 305.647 213.563C306.513 216.89 306.548 220.534 308.397 223.442C309.666 225.271 311.361 226.765 313.334 227.794C320.141 231.686 328.351 232.504 336.135 231.569C343.918 230.634 351.385 228.062 358.825 225.498C360.47 225.008 362.048 224.316 363.521 223.435C368.644 220.087 369.785 213.226 370.741 207.183C371.807 200.438 373.23 193.714 375.753 187.375C377.252 183.608 379.191 179.778 378.861 175.729C378.861 175.687 378.848 175.646 378.848 175.605Z" fill="black"/>
<path opacity="0.1" d="M296.55 172.944C296.55 172.944 296.55 172.896 296.55 172.869C296.674 171.656 296.566 170.431 296.233 169.259C296.096 168.505 296.007 167.742 295.965 166.977C295.886 168.431 295.976 169.889 296.233 171.322C296.343 171.858 296.467 172.401 296.55 172.944Z" fill="black"/>
<path opacity="0.1" d="M298.649 156.128C299.178 155.239 299.778 154.396 300.444 153.605C299.185 154.808 296.861 153.735 296.373 152.064C296.193 152.74 296.193 153.451 296.373 154.127C296.543 154.632 296.842 155.082 297.242 155.434C297.642 155.785 298.127 156.024 298.649 156.128Z" fill="black"/>
</g>
<path opacity="0.1" d="M470.379 332.523C470.379 332.523 472.559 340.43 470.379 347.305C468.199 354.18 470.379 332.523 470.379 332.523Z" fill="black"/>
<path opacity="0.1" d="M479.66 340.588C479.66 340.588 480.574 350.626 478.512 352.406C476.449 354.187 479.66 340.588 479.66 340.588Z" fill="black"/>
<path d="M136.824 235.721L206.69 235.034" stroke="#6C63FF" stroke-width="2" stroke-miterlimit="10"/>
<path d="M136.824 244.295L206.69 243.614" stroke="#6C63FF" stroke-width="2" stroke-miterlimit="10"/>
<path d="M136.824 252.875L206.69 252.187" stroke="#6C63FF" stroke-width="2" stroke-miterlimit="10"/>
</g>
<defs>
<clipPath id="clip0_334_2183">
<rect width="716" height="381" fill="white"/>
</clipPath>
</defs>
</svg>
