<svg width="28" height="14" viewBox="0 0 28 14" fill="none" xmlns="http://www.w3.org/2000/svg">
    <path class="svg-element" d="M26.1181 4.66511L21.7462 0.328102C21.6412 0.224138 21.5163 0.141619 21.3786 0.0853057C21.241 0.0289925 21.0933 0 20.9442 0C20.795 0 20.6474 0.0289925 20.5097 0.0853057C20.3721 0.141619 20.2471 0.224138 20.1421 0.328102C19.9317 0.535927 19.8136 0.817058 19.8136 1.1101C19.8136 1.40313 19.9317 1.68426 20.1421 1.89209L24.1637 5.87415H1.12967C0.830067 5.87415 0.542729 5.99101 0.330874 6.19903C0.119019 6.40705 0 6.68918 0 6.98336H0C0 7.27754 0.119019 7.55967 0.330874 7.76769C0.542729 7.97571 0.830067 8.09257 1.12967 8.09257H24.2315L20.1421 12.0968C20.0362 12.1999 19.9522 12.3226 19.8948 12.4578C19.8375 12.5929 19.8079 12.7379 19.8079 12.8844C19.8079 13.0308 19.8375 13.1758 19.8948 13.3109C19.9522 13.4461 20.0362 13.5688 20.1421 13.6719C20.2471 13.7759 20.3721 13.8584 20.5097 13.9147C20.6474 13.971 20.795 14 20.9442 14C21.0933 14 21.241 13.971 21.3786 13.9147C21.5163 13.8584 21.6412 13.7759 21.7462 13.6719L26.1181 9.36816C26.7527 8.74423 27.1092 7.89846 27.1092 7.01664C27.1092 6.13481 26.7527 5.28904 26.1181 4.66511Z" fill="#36BCFF"/>
</svg>
