<svg width="116" height="40" viewBox="0 0 116 40" fill="none" xmlns="http://www.w3.org/2000/svg">
    <rect x="35.7734" y="11.3821" width="8.13008" height="28.6179" fill="#011C27"/>
    <rect x="35.1211" width="9.75609" height="9.75609" rx="4.87805" fill="#36BCFF"/>
    <path fill-rule="evenodd" clip-rule="evenodd" d="M115.446 23.7398H107.316C107.316 19.2497 103.676 15.6098 99.1859 15.6098C94.6958 15.6098 91.0559 19.2497 91.0559 23.7398H82.9258C82.9258 14.7596 90.2057 7.47968 99.1859 7.47968C108.166 7.47968 115.446 14.7596 115.446 23.7398ZM82.9265 40V23.7398H91.0566V40H82.9265ZM107.317 40V23.7398H115.447V40H107.317Z" fill="#011C27"/>
    <path fill-rule="evenodd" clip-rule="evenodd" d="M16.2602 31.8699C11.77 31.8699 8.13008 28.23 8.13008 23.7398C8.13008 19.2497 11.77 15.6098 16.2602 15.6098C20.7503 15.6098 24.3902 19.2497 24.3902 23.7398V37.8247V40H32.5203V23.7398C32.5203 14.7596 25.2404 7.47968 16.2602 7.47968C7.27991 7.47968 0 14.7596 0 23.7398C0 32.7201 7.27991 40 16.2602 40H21.1382V31.8699H16.2602Z" fill="#011C27"/>
    <path fill-rule="evenodd" clip-rule="evenodd" d="M63.4164 31.8699C58.9263 31.8699 55.2863 28.23 55.2863 23.7398C55.2863 19.2497 58.9263 15.6098 63.4164 15.6098C67.9065 15.6098 71.5465 19.2497 71.5465 23.7398V37.8247V40H79.6766V23.7398C79.6766 14.7596 72.3966 7.47968 63.4164 7.47968C54.4362 7.47968 47.1562 14.7596 47.1562 23.7398C47.1562 32.7201 54.4362 40 63.4164 40H68.2945V31.8699H63.4164Z" fill="#011C27"/>
</svg>
