<svg width="15" height="14" viewBox="0 0 15 14" fill="none" xmlns="http://www.w3.org/2000/svg">
<path d="M14.3297 6.2959L1.10952 0.074634C0.976407 0.0116562 0.82814 -0.0121938 0.681996 0.00586369C0.535852 0.0239212 0.397849 0.0831425 0.284072 0.176625C0.170295 0.270108 0.0854301 0.394002 0.0393676 0.533868C-0.00669485 0.673734 -0.0120575 0.823812 0.0239047 0.966609L1.53178 6.99968L0.0239047 13.0328C-0.012394 13.1756 -0.00726586 13.3258 0.0386894 13.4659C0.0846446 13.6059 0.169527 13.73 0.283407 13.8236C0.397287 13.9171 0.535456 13.9763 0.681752 13.9942C0.828047 14.0122 0.976421 13.9881 1.10952 13.9247L14.3297 7.70346C14.4633 7.64066 14.5763 7.54113 14.6554 7.41651C14.7345 7.29188 14.7765 7.14731 14.7765 6.99968C14.7765 6.85206 14.7345 6.70749 14.6554 6.58286C14.5763 6.45823 14.4633 6.3587 14.3297 6.2959ZM1.92995 11.8188L2.5824 9.20823L6.9995 6.99968L2.5824 4.79113L1.92995 2.18053L12.1717 6.99968L1.92995 11.8188Z" fill="white"/>
</svg>
