<svg  viewBox="0 0 550 400" fill="none" xmlns="http://www.w3.org/2000/svg">
<path d="M320.359 70.5154C330.666 70.5154 339.022 62.1595 339.022 51.8519C339.022 41.5444 330.666 33.1885 320.359 33.1885C310.051 33.1885 301.695 41.5444 301.695 51.8519C301.695 62.1595 310.051 70.5154 320.359 70.5154Z" fill="#F2F2F2"/>
<path d="M465.137 347.502C492.878 326.373 506.128 290.866 497.833 256.996C497.627 256.154 497.409 255.315 497.18 254.477C491.681 234.372 478.076 215.263 458.247 208.839C441.597 203.445 423.424 207.593 406.054 205.448C371.957 201.237 345.522 173.648 326.921 144.763C308.321 115.877 294.026 83.543 269.31 59.6791C228.569 20.3434 162.112 11.8744 111.6 37.479C61.0878 63.0836 28.9122 119.89 30.2844 176.504C31.6567 233.118 65.2661 287.245 114.075 315.963C132.006 326.513 152.744 333.987 173.383 331.372C191.291 329.103 207.563 319.48 225.387 316.623C253.41 312.132 281.254 324.802 305.492 339.567C329.73 354.331 353.142 371.832 380.685 378.677C407.429 385.323 440.563 366.22 465.137 347.502Z" fill="#F2F2F2"/>
<path d="M425.281 38.6679C424.673 38.2625 424.058 37.878 423.449 37.4866C405.871 26.244 387.029 17.1105 367.314 10.2751L362.743 73.3376H333.763V1.06945C331.938 0.691995 330.1 0.335513 328.262 0V73.3376H293.823C274.863 73.3376 256.681 65.8061 243.275 52.4001C229.869 38.994 222.337 20.8114 222.337 1.85239V1.85233C220.492 2.25075 218.661 2.67713 216.829 3.13147V73.3376H188.779L184.424 13.2038C164.164 20.974 144.93 31.1921 127.149 43.6307C126.842 43.8404 126.534 44.0571 126.234 44.2668C124.689 45.3502 123.165 46.4546 121.648 47.573V288.157H204.317L202.857 267.921L194.818 156.817H356.696L348.658 267.921L347.197 288.157H428.951V41.1004C427.734 40.2756 426.511 39.4648 425.281 38.6679ZM216.829 138.469H193.49L189.177 78.8456H216.829V138.469ZM328.262 138.469H289.063V137.288C289.063 136.72 288.951 136.158 288.733 135.633C288.516 135.108 288.197 134.632 287.795 134.231C287.393 133.83 286.916 133.511 286.391 133.295C285.866 133.078 285.304 132.967 284.736 132.968H267.695C267.127 132.968 266.565 133.079 266.041 133.296C265.517 133.513 265.041 133.832 264.64 134.233C264.238 134.634 263.92 135.11 263.703 135.634C263.486 136.159 263.375 136.72 263.375 137.288V138.469H222.337V78.8456H328.262V138.469ZM333.763 138.469V78.8456H362.344L358.031 138.469H333.763Z" fill="#3F3D56"/>
<path d="M0 303.563C6.07227 310.758 12.6401 317.52 19.6555 323.799L530.32 324.498C537.336 318.219 543.904 311.457 549.976 304.262L0 303.563Z" fill="#3F3D56"/>
<path d="M346.297 238.767V298.673C346.297 299.437 346.601 300.169 347.141 300.709C347.681 301.248 348.413 301.552 349.176 301.553H437.95C438.714 301.552 439.446 301.248 439.986 300.709C440.525 300.169 440.829 299.437 440.83 298.673V238.767C440.828 238.005 440.524 237.274 439.984 236.735C439.444 236.196 438.713 235.892 437.95 235.891H349.176C348.413 235.892 347.682 236.196 347.142 236.735C346.603 237.274 346.299 238.005 346.297 238.767Z" fill="#3F3D56"/>
<path d="M348.383 239.513V297.934C348.384 298.342 348.546 298.733 348.834 299.022C349.123 299.31 349.514 299.472 349.922 299.473H437.215C437.623 299.472 438.014 299.31 438.302 299.022C438.59 298.733 438.753 298.342 438.753 297.934V239.513C438.753 239.104 438.591 238.713 438.303 238.424C438.014 238.135 437.623 237.972 437.215 237.971H349.922C349.513 237.972 349.122 238.135 348.833 238.424C348.545 238.713 348.383 239.104 348.383 239.513Z" fill="#6C63FF"/>
<path d="M344.44 310.357C344.603 310.56 344.81 310.725 345.045 310.837C345.28 310.95 345.538 311.008 345.799 311.006H440.855C441.115 311.006 441.372 310.948 441.606 310.836C441.841 310.724 442.048 310.561 442.211 310.359C442.375 310.157 442.492 309.921 442.553 309.669C442.614 309.416 442.618 309.153 442.565 308.899L441.089 301.89C441.028 301.604 440.896 301.338 440.706 301.116C440.516 300.894 440.273 300.723 440 300.619C439.802 300.541 439.592 300.502 439.379 300.502H347.268C347.056 300.502 346.845 300.541 346.648 300.619C346.375 300.723 346.132 300.894 345.942 301.116C345.751 301.338 345.62 301.604 345.559 301.89L344.083 308.899C344.03 309.153 344.035 309.416 344.097 309.668C344.159 309.92 344.276 310.155 344.44 310.357Z" fill="#2F2E41"/>
<path d="M436.121 303.521H438.366C438.554 303.521 438.707 303.368 438.707 303.18V302.105C438.707 301.917 438.554 301.764 438.366 301.764H436.121C435.932 301.764 435.779 301.917 435.779 302.105V303.18C435.779 303.368 435.932 303.521 436.121 303.521Z" fill="#3F3D56"/>
<path d="M430.265 303.521H432.51C432.699 303.521 432.852 303.368 432.852 303.18V302.105C432.852 301.917 432.699 301.764 432.51 301.764H430.265C430.077 301.764 429.924 301.917 429.924 302.105V303.18C429.924 303.368 430.077 303.521 430.265 303.521Z" fill="#3F3D56"/>
<path d="M424.41 303.521H426.655C426.843 303.521 426.996 303.368 426.996 303.18V302.105C426.996 301.917 426.843 301.764 426.655 301.764H424.41C424.221 301.764 424.068 301.917 424.068 302.105V303.18C424.068 303.368 424.221 303.521 424.41 303.521Z" fill="#3F3D56"/>
<path d="M418.554 303.521H420.799C420.988 303.521 421.141 303.368 421.141 303.18V302.105C421.141 301.917 420.988 301.764 420.799 301.764H418.554C418.366 301.764 418.213 301.917 418.213 302.105V303.18C418.213 303.368 418.366 303.521 418.554 303.521Z" fill="#3F3D56"/>
<path d="M412.699 303.521H414.944C415.132 303.521 415.285 303.368 415.285 303.18V302.105C415.285 301.917 415.132 301.764 414.944 301.764H412.699C412.51 301.764 412.357 301.917 412.357 302.105V303.18C412.357 303.368 412.51 303.521 412.699 303.521Z" fill="#3F3D56"/>
<path d="M406.843 303.521H409.088C409.277 303.521 409.43 303.368 409.43 303.18V302.105C409.43 301.917 409.277 301.764 409.088 301.764H406.843C406.655 301.764 406.502 301.917 406.502 302.105V303.18C406.502 303.368 406.655 303.521 406.843 303.521Z" fill="#3F3D56"/>
<path d="M400.988 303.521H403.233C403.421 303.521 403.574 303.368 403.574 303.18V302.105C403.574 301.917 403.421 301.764 403.233 301.764H400.988C400.799 301.764 400.647 301.917 400.647 302.105V303.18C400.647 303.368 400.799 303.521 400.988 303.521Z" fill="#3F3D56"/>
<path d="M395.132 303.521H397.377C397.566 303.521 397.719 303.368 397.719 303.18V302.105C397.719 301.917 397.566 301.764 397.377 301.764H395.132C394.944 301.764 394.791 301.917 394.791 302.105V303.18C394.791 303.368 394.944 303.521 395.132 303.521Z" fill="#3F3D56"/>
<path d="M389.277 303.521H391.522C391.711 303.521 391.863 303.368 391.863 303.18V302.105C391.863 301.917 391.711 301.764 391.522 301.764H389.277C389.088 301.764 388.936 301.917 388.936 302.105V303.18C388.936 303.368 389.088 303.521 389.277 303.521Z" fill="#3F3D56"/>
<path d="M383.421 303.521H385.667C385.855 303.521 386.008 303.368 386.008 303.18V302.105C386.008 301.917 385.855 301.764 385.667 301.764H383.421C383.233 301.764 383.08 301.917 383.08 302.105V303.18C383.08 303.368 383.233 303.521 383.421 303.521Z" fill="#3F3D56"/>
<path d="M377.566 303.521H379.811C380 303.521 380.152 303.368 380.152 303.18V302.105C380.152 301.917 380 301.764 379.811 301.764H377.566C377.377 301.764 377.225 301.917 377.225 302.105V303.18C377.225 303.368 377.377 303.521 377.566 303.521Z" fill="#3F3D56"/>
<path d="M371.71 303.521H373.956C374.144 303.521 374.297 303.368 374.297 303.18V302.105C374.297 301.917 374.144 301.764 373.956 301.764H371.71C371.522 301.764 371.369 301.917 371.369 302.105V303.18C371.369 303.368 371.522 303.521 371.71 303.521Z" fill="#3F3D56"/>
<path d="M365.855 303.521H368.1C368.289 303.521 368.441 303.368 368.441 303.18V302.105C368.441 301.917 368.289 301.764 368.1 301.764H365.855C365.666 301.764 365.514 301.917 365.514 302.105V303.18C365.514 303.368 365.666 303.521 365.855 303.521Z" fill="#3F3D56"/>
<path d="M359.999 303.521H362.245C362.433 303.521 362.586 303.368 362.586 303.18V302.105C362.586 301.917 362.433 301.764 362.245 301.764H359.999C359.811 301.764 359.658 301.917 359.658 302.105V303.18C359.658 303.368 359.811 303.521 359.999 303.521Z" fill="#3F3D56"/>
<path d="M354.144 303.521H356.389C356.578 303.521 356.73 303.368 356.73 303.18V302.105C356.73 301.917 356.578 301.764 356.389 301.764H354.144C353.956 301.764 353.803 301.917 353.803 302.105V303.18C353.803 303.368 353.956 303.521 354.144 303.521Z" fill="#3F3D56"/>
<path d="M348.289 303.521H350.534C350.722 303.521 350.875 303.368 350.875 303.18V302.105C350.875 301.917 350.722 301.764 350.534 301.764H348.289C348.1 301.764 347.947 301.917 347.947 302.105V303.18C347.947 303.368 348.1 303.521 348.289 303.521Z" fill="#3F3D56"/>
<path d="M436.187 306.449H438.432C438.621 306.449 438.773 306.296 438.773 306.107V305.033C438.773 304.845 438.621 304.692 438.432 304.692H436.187C435.999 304.692 435.846 304.845 435.846 305.033V306.107C435.846 306.296 435.999 306.449 436.187 306.449Z" fill="#3F3D56"/>
<path d="M430.335 306.449H432.581C432.769 306.449 432.922 306.296 432.922 306.107V305.033C432.922 304.845 432.769 304.692 432.581 304.692H430.335C430.147 304.692 429.994 304.845 429.994 305.033V306.107C429.994 306.296 430.147 306.449 430.335 306.449Z" fill="#3F3D56"/>
<path d="M424.476 306.449H426.721C426.91 306.449 427.062 306.296 427.062 306.107V305.033C427.062 304.845 426.91 304.692 426.721 304.692H424.476C424.288 304.692 424.135 304.845 424.135 305.033V306.107C424.135 306.296 424.288 306.449 424.476 306.449Z" fill="#3F3D56"/>
<path d="M418.624 306.449H420.87C421.058 306.449 421.211 306.296 421.211 306.107V305.033C421.211 304.845 421.058 304.692 420.87 304.692H418.624C418.436 304.692 418.283 304.845 418.283 305.033V306.107C418.283 306.296 418.436 306.449 418.624 306.449Z" fill="#3F3D56"/>
<path d="M412.765 306.449H415.01C415.199 306.449 415.352 306.296 415.352 306.107V305.033C415.352 304.845 415.199 304.692 415.01 304.692H412.765C412.577 304.692 412.424 304.845 412.424 305.033V306.107C412.424 306.296 412.577 306.449 412.765 306.449Z" fill="#3F3D56"/>
<path d="M406.914 306.449H409.159C409.347 306.449 409.5 306.296 409.5 306.107V305.033C409.5 304.845 409.347 304.692 409.159 304.692H406.914C406.725 304.692 406.572 304.845 406.572 305.033V306.107C406.572 306.296 406.725 306.449 406.914 306.449Z" fill="#3F3D56"/>
<path d="M401.054 306.449H403.299C403.488 306.449 403.641 306.296 403.641 306.107V305.033C403.641 304.845 403.488 304.692 403.299 304.692H401.054C400.866 304.692 400.713 304.845 400.713 305.033V306.107C400.713 306.296 400.866 306.449 401.054 306.449Z" fill="#3F3D56"/>
<path d="M395.203 306.449H397.448C397.636 306.449 397.789 306.296 397.789 306.107V305.033C397.789 304.845 397.636 304.692 397.448 304.692H395.203C395.014 304.692 394.861 304.845 394.861 305.033V306.107C394.861 306.296 395.014 306.449 395.203 306.449Z" fill="#3F3D56"/>
<path d="M389.347 306.449H391.592C391.781 306.449 391.934 306.296 391.934 306.107V305.033C391.934 304.845 391.781 304.692 391.592 304.692H389.347C389.159 304.692 389.006 304.845 389.006 305.033V306.107C389.006 306.296 389.159 306.449 389.347 306.449Z" fill="#3F3D56"/>
<path d="M383.492 306.449H385.737C385.925 306.449 386.078 306.296 386.078 306.107V305.033C386.078 304.845 385.925 304.692 385.737 304.692H383.492C383.303 304.692 383.15 304.845 383.15 305.033V306.107C383.15 306.296 383.303 306.449 383.492 306.449Z" fill="#3F3D56"/>
<path d="M377.636 306.449H379.881C380.07 306.449 380.223 306.296 380.223 306.107V305.033C380.223 304.845 380.07 304.692 379.881 304.692H377.636C377.448 304.692 377.295 304.845 377.295 305.033V306.107C377.295 306.296 377.448 306.449 377.636 306.449Z" fill="#3F3D56"/>
<path d="M371.781 306.449H374.026C374.214 306.449 374.367 306.296 374.367 306.107V305.033C374.367 304.845 374.214 304.692 374.026 304.692H371.781C371.592 304.692 371.44 304.845 371.44 305.033V306.107C371.44 306.296 371.592 306.449 371.781 306.449Z" fill="#3F3D56"/>
<path d="M365.925 306.449H368.171C368.359 306.449 368.512 306.296 368.512 306.107V305.033C368.512 304.845 368.359 304.692 368.171 304.692H365.925C365.737 304.692 365.584 304.845 365.584 305.033V306.107C365.584 306.296 365.737 306.449 365.925 306.449Z" fill="#3F3D56"/>
<path d="M360.07 306.449H362.315C362.503 306.449 362.656 306.296 362.656 306.107V305.033C362.656 304.845 362.503 304.692 362.315 304.692H360.07C359.881 304.692 359.729 304.845 359.729 305.033V306.107C359.729 306.296 359.881 306.449 360.07 306.449Z" fill="#3F3D56"/>
<path d="M354.214 306.449H356.46C356.648 306.449 356.801 306.296 356.801 306.107V305.033C356.801 304.845 356.648 304.692 356.46 304.692H354.214C354.026 304.692 353.873 304.845 353.873 305.033V306.107C353.873 306.296 354.026 306.449 354.214 306.449Z" fill="#3F3D56"/>
<path d="M348.359 306.449H350.604C350.793 306.449 350.945 306.296 350.945 306.107V305.033C350.945 304.845 350.793 304.692 350.604 304.692H348.359C348.17 304.692 348.018 304.845 348.018 305.033V306.107C348.018 306.296 348.17 306.449 348.359 306.449Z" fill="#3F3D56"/>
<path d="M387.592 309.962H410.331C410.519 309.962 410.672 309.809 410.672 309.621V308.546C410.672 308.358 410.519 308.205 410.331 308.205H387.592C387.403 308.205 387.25 308.358 387.25 308.546V309.621C387.25 309.809 387.403 309.962 387.592 309.962Z" fill="#3F3D56"/>
<path d="M363.501 250.752H361.513C360.91 250.752 360.422 251.241 360.422 251.843C360.422 252.446 360.91 252.934 361.513 252.934H363.501C364.103 252.934 364.592 252.446 364.592 251.843C364.592 251.241 364.103 250.752 363.501 250.752Z" fill="white"/>
<path d="M386.231 250.752H384.244C383.641 250.752 383.152 251.241 383.152 251.843C383.152 252.446 383.641 252.934 384.244 252.934H386.231C386.834 252.934 387.322 252.446 387.322 251.843C387.322 251.241 386.834 250.752 386.231 250.752Z" fill="white"/>
<path d="M392.669 250.752H390.681C390.078 250.752 389.59 251.241 389.59 251.843C389.59 252.446 390.078 252.934 390.681 252.934H392.669C393.271 252.934 393.76 252.446 393.76 251.843C393.76 251.241 393.271 250.752 392.669 250.752Z" fill="white"/>
<path d="M380.047 250.57H367.693C367.09 250.57 366.602 251.059 366.602 251.661C366.602 252.264 367.09 252.753 367.693 252.753H380.047C380.649 252.753 381.138 252.264 381.138 251.661C381.138 251.059 380.649 250.57 380.047 250.57Z" fill="white"/>
<path d="M410.355 250.57H398.001C397.399 250.57 396.91 251.059 396.91 251.661C396.91 252.264 397.399 252.753 398.001 252.753H410.355C410.958 252.753 411.446 252.264 411.446 251.661C411.446 251.059 410.958 250.57 410.355 250.57Z" fill="white"/>
<path d="M369.559 255.678H367.572C366.969 255.678 366.48 256.166 366.48 256.769C366.48 257.371 366.969 257.86 367.572 257.86H369.559C370.162 257.86 370.651 257.371 370.651 256.769C370.651 256.166 370.162 255.678 369.559 255.678Z" fill="white"/>
<path d="M392.294 255.678H390.306C389.703 255.678 389.215 256.166 389.215 256.769C389.215 257.371 389.703 257.86 390.306 257.86H392.294C392.896 257.86 393.385 257.371 393.385 256.769C393.385 256.166 392.896 255.678 392.294 255.678Z" fill="white"/>
<path d="M398.735 255.678H396.747C396.145 255.678 395.656 256.166 395.656 256.769C395.656 257.371 396.145 257.86 396.747 257.86H398.735C399.338 257.86 399.826 257.371 399.826 256.769C399.826 256.166 399.338 255.678 398.735 255.678Z" fill="white"/>
<path d="M386.109 255.496H373.755C373.153 255.496 372.664 255.984 372.664 256.587C372.664 257.189 373.153 257.678 373.755 257.678H386.109C386.712 257.678 387.2 257.189 387.2 256.587C387.2 255.984 386.712 255.496 386.109 255.496Z" fill="white"/>
<path d="M416.422 255.496H404.068C403.465 255.496 402.977 255.984 402.977 256.587C402.977 257.189 403.465 257.678 404.068 257.678H416.422C417.024 257.678 417.513 257.189 417.513 256.587C417.513 255.984 417.024 255.496 416.422 255.496Z" fill="white"/>
<path d="M375.622 260.603H373.634C373.031 260.603 372.543 261.092 372.543 261.694C372.543 262.297 373.031 262.785 373.634 262.785H375.622C376.224 262.785 376.713 262.297 376.713 261.694C376.713 261.092 376.224 260.603 375.622 260.603Z" fill="white"/>
<path d="M398.356 260.603H396.368C395.766 260.603 395.277 261.092 395.277 261.694C395.277 262.297 395.766 262.785 396.368 262.785H398.356C398.959 262.785 399.447 262.297 399.447 261.694C399.447 261.092 398.959 260.603 398.356 260.603Z" fill="white"/>
<path d="M404.798 260.603H402.81C402.207 260.603 401.719 261.092 401.719 261.694C401.719 262.297 402.207 262.785 402.81 262.785H404.798C405.4 262.785 405.889 262.297 405.889 261.694C405.889 261.092 405.4 260.603 404.798 260.603Z" fill="white"/>
<path d="M392.172 260.421H379.818C379.215 260.421 378.727 260.91 378.727 261.512C378.727 262.115 379.215 262.603 379.818 262.603H392.172C392.774 262.603 393.263 262.115 393.263 261.512C393.263 260.91 392.774 260.421 392.172 260.421Z" fill="white"/>
<path d="M422.484 260.421H410.13C409.528 260.421 409.039 260.91 409.039 261.512C409.039 262.115 409.528 262.603 410.13 262.603H422.484C423.087 262.603 423.575 262.115 423.575 261.512C423.575 260.91 423.087 260.421 422.484 260.421Z" fill="white"/>
<path d="M381.684 265.529H379.697C379.094 265.529 378.605 266.017 378.605 266.62C378.605 267.222 379.094 267.711 379.697 267.711H381.684C382.287 267.711 382.775 267.222 382.775 266.62C382.775 266.017 382.287 265.529 381.684 265.529Z" fill="white"/>
<path d="M404.419 265.529H402.431C401.828 265.529 401.34 266.017 401.34 266.62C401.34 267.222 401.828 267.711 402.431 267.711H404.419C405.021 267.711 405.51 267.222 405.51 266.62C405.51 266.017 405.021 265.529 404.419 265.529Z" fill="white"/>
<path d="M410.856 265.529H408.869C408.266 265.529 407.777 266.017 407.777 266.62C407.777 267.222 408.266 267.711 408.869 267.711H410.856C411.459 267.711 411.947 267.222 411.947 266.62C411.947 266.017 411.459 265.529 410.856 265.529Z" fill="white"/>
<path d="M398.234 265.347H385.88C385.278 265.347 384.789 265.835 384.789 266.438C384.789 267.04 385.278 267.529 385.88 267.529H398.234C398.837 267.529 399.325 267.04 399.325 266.438C399.325 265.835 398.837 265.347 398.234 265.347Z" fill="white"/>
<path d="M386.231 285.115H384.244C383.641 285.115 383.152 285.603 383.152 286.206C383.152 286.808 383.641 287.297 384.244 287.297H386.231C386.834 287.297 387.322 286.808 387.322 286.206C387.322 285.603 386.834 285.115 386.231 285.115Z" fill="white"/>
<path d="M392.669 285.115H390.681C390.078 285.115 389.59 285.603 389.59 286.206C389.59 286.808 390.078 287.297 390.681 287.297H392.669C393.271 287.297 393.76 286.808 393.76 286.206C393.76 285.603 393.271 285.115 392.669 285.115Z" fill="white"/>
<path d="M410.355 285.296H398.001C397.399 285.296 396.91 285.785 396.91 286.388C396.91 286.99 397.399 287.479 398.001 287.479H410.355C410.958 287.479 411.446 286.99 411.446 286.388C411.446 285.785 410.958 285.296 410.355 285.296Z" fill="white"/>
<path d="M363.501 285.115H361.513C360.91 285.115 360.422 285.603 360.422 286.206C360.422 286.808 360.91 287.297 361.513 287.297H363.501C364.103 287.297 364.592 286.808 364.592 286.206C364.592 285.603 364.103 285.115 363.501 285.115Z" fill="white"/>
<path d="M380.047 285.296H367.693C367.09 285.296 366.602 285.785 366.602 286.388C366.602 286.99 367.09 287.479 367.693 287.479H380.047C380.649 287.479 381.138 286.99 381.138 286.388C381.138 285.785 380.649 285.296 380.047 285.296Z" fill="white"/>
<path d="M369.559 280.189H367.572C366.969 280.189 366.48 280.677 366.48 281.28C366.48 281.883 366.969 282.371 367.572 282.371H369.559C370.162 282.371 370.651 281.883 370.651 281.28C370.651 280.677 370.162 280.189 369.559 280.189Z" fill="white"/>
<path d="M392.294 280.189H390.306C389.703 280.189 389.215 280.677 389.215 281.28C389.215 281.883 389.703 282.371 390.306 282.371H392.294C392.896 282.371 393.385 281.883 393.385 281.28C393.385 280.677 392.896 280.189 392.294 280.189Z" fill="white"/>
<path d="M398.735 280.189H396.747C396.145 280.189 395.656 280.677 395.656 281.28C395.656 281.883 396.145 282.371 396.747 282.371H398.735C399.338 282.371 399.826 281.883 399.826 281.28C399.826 280.677 399.338 280.189 398.735 280.189Z" fill="white"/>
<path d="M386.109 280.371H373.755C373.153 280.371 372.664 280.859 372.664 281.462C372.664 282.065 373.153 282.553 373.755 282.553H386.109C386.712 282.553 387.2 282.065 387.2 281.462C387.2 280.859 386.712 280.371 386.109 280.371Z" fill="white"/>
<path d="M375.622 275.264H373.634C373.031 275.264 372.543 275.752 372.543 276.355C372.543 276.957 373.031 277.446 373.634 277.446H375.622C376.224 277.446 376.713 276.957 376.713 276.355C376.713 275.752 376.224 275.264 375.622 275.264Z" fill="white"/>
<path d="M398.356 275.264H396.368C395.766 275.264 395.277 275.752 395.277 276.355C395.277 276.957 395.766 277.446 396.368 277.446H398.356C398.959 277.446 399.447 276.957 399.447 276.355C399.447 275.752 398.959 275.264 398.356 275.264Z" fill="white"/>
<path d="M404.798 275.264H402.81C402.207 275.264 401.719 275.752 401.719 276.355C401.719 276.957 402.207 277.446 402.81 277.446H404.798C405.4 277.446 405.889 276.957 405.889 276.355C405.889 275.752 405.4 275.264 404.798 275.264Z" fill="white"/>
<path d="M392.172 275.445H379.818C379.215 275.445 378.727 275.934 378.727 276.537C378.727 277.139 379.215 277.628 379.818 277.628H392.172C392.774 277.628 393.263 277.139 393.263 276.537C393.263 275.934 392.774 275.445 392.172 275.445Z" fill="white"/>
<path d="M381.684 270.338H379.697C379.094 270.338 378.605 270.827 378.605 271.429C378.605 272.032 379.094 272.52 379.697 272.52H381.684C382.287 272.52 382.775 272.032 382.775 271.429C382.775 270.827 382.287 270.338 381.684 270.338Z" fill="white"/>
<path d="M404.419 270.338H402.431C401.828 270.338 401.34 270.827 401.34 271.429C401.34 272.032 401.828 272.52 402.431 272.52H404.419C405.021 272.52 405.51 272.032 405.51 271.429C405.51 270.827 405.021 270.338 404.419 270.338Z" fill="white"/>
<path d="M410.856 270.338H408.869C408.266 270.338 407.777 270.827 407.777 271.429C407.777 272.032 408.266 272.52 408.869 272.52H410.856C411.459 272.52 411.947 272.032 411.947 271.429C411.947 270.827 411.459 270.338 410.856 270.338Z" fill="white"/>
<path d="M398.234 270.52H385.88C385.278 270.52 384.789 271.008 384.789 271.611C384.789 272.214 385.278 272.702 385.88 272.702H398.234C398.837 272.702 399.325 272.214 399.325 271.611C399.325 271.008 398.837 270.52 398.234 270.52Z" fill="white"/>
<path d="M352.929 342.84L343.598 328.09L372.887 304.742L384.976 291.348C386.546 289.608 388.546 288.311 390.775 287.586C393.004 286.861 395.385 286.734 397.678 287.217C399.972 287.7 402.099 288.776 403.846 290.339C405.594 291.902 406.9 293.895 407.635 296.121C408.725 299.419 408.491 303.012 406.982 306.141C405.473 309.269 402.808 311.69 399.548 312.89L380.432 319.933L352.929 342.84Z" fill="#FFB6B6"/>
<path d="M133.988 235.894V307.582H184.21V235.894C184.211 235.379 184.047 234.876 183.741 234.461C183.435 234.046 183.004 233.74 182.512 233.588C182.28 233.511 182.036 233.473 181.792 233.476H136.414C136.096 233.475 135.781 233.537 135.486 233.658C135.192 233.78 134.925 233.958 134.7 234.182C134.475 234.407 134.296 234.674 134.174 234.967C134.052 235.261 133.989 235.576 133.988 235.894ZM153.588 260.526C153.601 259.113 154.172 257.762 155.176 256.768C156.18 255.773 157.536 255.215 158.949 255.215C160.362 255.215 161.719 255.773 162.723 256.768C163.727 257.762 164.297 259.113 164.31 260.526V268.844C164.303 270.262 163.735 271.618 162.73 272.618C161.726 273.617 160.366 274.178 158.949 274.178C157.532 274.178 156.172 273.617 155.168 272.618C154.163 271.618 153.595 270.262 153.588 268.844V260.526Z" fill="#2F2E41"/>
<path d="M133.832 305.29V312.202C133.833 312.561 133.975 312.904 134.228 313.158C134.481 313.412 134.823 313.556 135.181 313.559H183.013C183.371 313.557 183.714 313.413 183.967 313.159C184.22 312.905 184.362 312.561 184.362 312.202V305.29H133.832Z" fill="#3F3D56"/>
<path d="M54.9805 127.887V258.779C54.9818 260.447 55.645 262.047 56.8245 263.226C58.004 264.405 59.6033 265.069 61.2713 265.07H255.24C256.908 265.069 258.507 264.405 259.687 263.226C260.866 262.047 261.529 260.447 261.531 258.779V127.887C261.527 126.221 260.862 124.623 259.683 123.446C258.504 122.268 256.906 121.605 255.24 121.603H61.2713C59.6048 121.605 58.0069 122.268 56.8278 123.446C55.6487 124.623 54.9844 126.221 54.9805 127.887Z" fill="#3F3D56"/>
<path d="M59.5352 129.516V257.164C59.5367 258.056 59.8914 258.91 60.5216 259.54C61.1518 260.17 62.0061 260.525 62.8973 260.526H253.63C254.521 260.525 255.375 260.17 256.005 259.54C256.635 258.91 256.99 258.056 256.992 257.164V129.516C256.992 128.623 256.638 127.767 256.007 127.136C255.377 126.504 254.522 126.148 253.63 126.146H62.8973C62.005 126.148 61.1499 126.504 60.5196 127.136C59.8893 127.767 59.5352 128.623 59.5352 129.516Z" fill="white"/>
<path d="M94.9265 313.09C95.1206 313.334 95.3674 313.53 95.6483 313.664C95.9291 313.799 96.2368 313.868 96.5482 313.866H210.021C210.332 313.866 210.638 313.796 210.918 313.662C211.198 313.529 211.445 313.334 211.641 313.093C211.836 312.852 211.975 312.571 212.048 312.269C212.121 311.968 212.126 311.653 212.063 311.35L210.301 302.983C210.228 302.642 210.071 302.324 209.844 302.059C209.617 301.794 209.327 301.59 209.001 301.466C208.765 301.373 208.514 301.326 208.26 301.326H98.3026C98.0491 301.326 97.7977 301.373 97.5617 301.466C97.2357 301.59 96.9459 301.794 96.7188 302.059C96.4917 302.324 96.3346 302.642 96.2616 302.983L94.5001 311.35C94.4375 311.653 94.4432 311.967 94.517 312.268C94.5907 312.569 94.7306 312.85 94.9265 313.09Z" fill="#2F2E41"/>
<path d="M247.439 143.731H68.9715C68.786 143.727 68.6095 143.65 68.4797 143.517C68.35 143.385 68.2773 143.207 68.2773 143.021C68.2773 142.835 68.35 142.657 68.4797 142.525C68.6095 142.392 68.786 142.315 68.9715 142.311H247.439C247.624 142.315 247.801 142.392 247.931 142.525C248.06 142.657 248.133 142.835 248.133 143.021C248.133 143.207 248.06 143.385 247.931 143.517C247.801 143.65 247.624 143.727 247.439 143.731Z" fill="#3F3D56"/>
<path d="M81.1202 138.688C83.4173 138.688 85.2795 136.784 85.2795 134.436C85.2795 132.087 83.4173 130.184 81.1202 130.184C78.8231 130.184 76.9609 132.087 76.9609 134.436C76.9609 136.784 78.8231 138.688 81.1202 138.688Z" fill="#3F3D56"/>
<path d="M95.4874 138.688C97.7845 138.688 99.6466 136.784 99.6466 134.436C99.6466 132.087 97.7845 130.184 95.4874 130.184C93.1903 130.184 91.3281 132.087 91.3281 134.436C91.3281 136.784 93.1903 138.688 95.4874 138.688Z" fill="#3F3D56"/>
<path d="M109.855 138.688C112.152 138.688 114.014 136.784 114.014 134.436C114.014 132.087 112.152 130.184 109.855 130.184C107.557 130.184 105.695 132.087 105.695 134.436C105.695 136.784 107.557 138.688 109.855 138.688Z" fill="#3F3D56"/>
<path d="M238.784 131.235H228.579C228.377 131.24 228.185 131.323 228.044 131.468C227.903 131.612 227.824 131.806 227.824 132.007C227.824 132.209 227.903 132.403 228.044 132.547C228.185 132.692 228.377 132.775 228.579 132.78H238.784C238.987 132.777 239.181 132.694 239.323 132.55C239.466 132.405 239.546 132.21 239.546 132.007C239.546 131.804 239.466 131.61 239.323 131.465C239.181 131.321 238.987 131.238 238.784 131.235Z" fill="#3F3D56"/>
<path d="M238.785 134.136H228.58C228.378 134.14 228.186 134.224 228.044 134.368C227.903 134.513 227.824 134.706 227.824 134.908C227.824 135.11 227.903 135.304 228.044 135.449C228.186 135.593 228.378 135.676 228.58 135.681H238.785C238.988 135.678 239.182 135.596 239.325 135.451C239.468 135.307 239.548 135.112 239.548 134.908C239.548 134.705 239.468 134.51 239.325 134.365C239.182 134.221 238.988 134.138 238.785 134.136Z" fill="#3F3D56"/>
<path d="M238.784 137.037H228.579C228.377 137.041 228.185 137.125 228.044 137.269C227.903 137.414 227.824 137.607 227.824 137.809C227.824 138.011 227.903 138.205 228.044 138.349C228.185 138.493 228.377 138.577 228.579 138.581H238.784C238.987 138.579 239.181 138.496 239.323 138.351C239.466 138.207 239.546 138.012 239.546 137.809C239.546 137.606 239.466 137.411 239.323 137.267C239.181 137.122 238.987 137.04 238.784 137.037Z" fill="#3F3D56"/>
<path d="M484.814 308.323C485.122 309.22 485.706 309.996 486.482 310.54C487.259 311.084 488.188 311.368 489.136 311.351L507.653 310.874C508.608 310.856 509.531 310.529 510.285 309.942C511.038 309.355 511.582 308.54 511.834 307.619L514.454 279.599C515.384 280.02 516.396 280.228 517.416 280.207C518.303 280.185 519.176 279.988 519.987 279.629C520.797 279.269 521.529 278.753 522.14 278.11C522.751 277.468 523.23 276.711 523.549 275.883C523.867 275.056 524.02 274.173 523.998 273.287C523.976 272.4 523.779 271.527 523.419 270.716C523.059 269.906 522.543 269.174 521.901 268.563C521.258 267.952 520.501 267.473 519.674 267.154C518.846 266.836 517.964 266.683 517.077 266.705C516.669 266.704 516.263 266.746 515.864 266.832C515.43 266.362 514.903 265.989 514.316 265.736C513.729 265.483 513.096 265.355 512.457 265.362L483.973 266.097C483.737 266.106 483.501 266.135 483.27 266.184C482.646 266.301 482.053 266.55 481.533 266.914C481.012 267.279 480.576 267.751 480.253 268.298C479.931 268.845 479.729 269.456 479.662 270.087C479.594 270.719 479.663 271.358 479.864 271.961L484.814 308.323ZM514.991 277.696L516.856 271.019C517.068 270.248 517.073 269.434 516.87 268.66C516.961 268.66 517.041 268.617 517.131 268.617C518.41 268.59 519.646 269.072 520.57 269.956C521.494 270.84 522.03 272.055 522.06 273.333C522.09 274.611 521.612 275.85 520.73 276.776C519.848 277.702 518.636 278.241 517.357 278.275C516.531 278.301 515.713 278.101 514.991 277.696Z" fill="#2F2E41"/>
<path d="M483.27 266.184C483.876 269.654 490.699 272.093 498.903 271.669C506.447 271.322 512.615 268.673 513.745 265.533C513.327 265.41 512.892 265.352 512.456 265.362L483.972 266.097C483.736 266.106 483.501 266.135 483.27 266.184Z" fill="#3F3D56"/>
<path d="M500.407 292.926C500.445 292.916 500.48 292.901 500.513 292.88L504.534 290.247C504.583 290.216 504.623 290.172 504.65 290.121C504.678 290.07 504.692 290.013 504.693 289.955C504.693 289.897 504.678 289.84 504.65 289.789C504.623 289.738 504.583 289.695 504.534 289.663L500.355 286.925C500.316 286.9 500.273 286.882 500.228 286.874C500.183 286.865 500.136 286.865 500.091 286.874C500.046 286.884 500.004 286.902 499.965 286.928C499.927 286.953 499.895 286.987 499.87 287.025C499.844 287.063 499.827 287.107 499.819 287.152C499.81 287.197 499.811 287.243 499.82 287.288C499.829 287.333 499.848 287.376 499.874 287.414C499.9 287.452 499.933 287.484 499.972 287.509L503.705 289.955L500.13 292.295C500.061 292.34 500.01 292.408 499.986 292.488C499.963 292.567 499.968 292.652 500.001 292.728C500.035 292.803 500.094 292.865 500.168 292.901C500.242 292.937 500.327 292.946 500.407 292.926H500.407Z" fill="#6C63FF"/>
<path d="M494.054 293.219C494.122 293.202 494.183 293.165 494.229 293.113C494.275 293.061 494.305 292.997 494.315 292.928C494.324 292.859 494.313 292.789 494.282 292.726C494.251 292.664 494.203 292.612 494.142 292.577L490.436 290.452L494.018 287.791C494.055 287.763 494.086 287.729 494.11 287.69C494.133 287.65 494.149 287.607 494.156 287.561C494.162 287.516 494.16 287.47 494.149 287.425C494.138 287.381 494.118 287.339 494.09 287.302C494.063 287.265 494.029 287.234 493.989 287.211C493.95 287.187 493.906 287.172 493.861 287.165C493.816 287.158 493.769 287.161 493.725 287.172C493.68 287.183 493.639 287.203 493.602 287.23L489.59 290.21C489.544 290.244 489.507 290.29 489.482 290.342C489.458 290.395 489.446 290.453 489.45 290.511C489.453 290.569 489.471 290.625 489.502 290.674C489.532 290.723 489.575 290.764 489.625 290.793L493.795 293.183C493.873 293.229 493.966 293.241 494.054 293.219Z" fill="#6C63FF"/>
<path d="M500.007 295.233C500.041 295.224 500.073 295.211 500.103 295.192C500.142 295.168 500.176 295.137 500.203 295.1C500.23 295.063 500.25 295.021 500.261 294.976C500.272 294.932 500.274 294.885 500.266 294.84C500.259 294.795 500.244 294.751 500.22 294.712L494.519 285.34C494.471 285.261 494.393 285.204 494.303 285.182C494.213 285.161 494.118 285.175 494.039 285.224C493.96 285.272 493.903 285.349 493.881 285.439C493.859 285.529 493.874 285.624 493.922 285.704L499.622 295.076C499.661 295.14 499.72 295.189 499.789 295.217C499.858 295.246 499.934 295.251 500.007 295.233Z" fill="#6C63FF"/>
<path d="M179.526 182.314H148.637C147.377 182.314 146.355 183.336 146.355 184.596V187.614C146.355 188.874 147.377 189.895 148.637 189.895H179.526C180.786 189.895 181.807 188.874 181.807 187.614V184.596C181.807 183.336 180.786 182.314 179.526 182.314Z" fill="#6C63FF"/>
<path d="M197.532 197.476H130.633C129.373 197.476 128.352 198.498 128.352 199.758V202.776C128.352 204.036 129.373 205.057 130.633 205.057H197.532C198.792 205.057 199.813 204.036 199.813 202.776V199.758C199.813 198.498 198.792 197.476 197.532 197.476Z" fill="#E6E6E6"/>
<path d="M197.532 212.638H130.633C129.373 212.638 128.352 213.66 128.352 214.92V217.938C128.352 219.198 129.373 220.219 130.633 220.219H197.532C198.792 220.219 199.813 219.198 199.813 217.938V214.92C199.813 213.66 198.792 212.638 197.532 212.638Z" fill="#E6E6E6"/>
<path d="M203.203 263.41L203.355 263.888L203.363 263.904L207.924 277.771L213.17 293.75L223.042 323.78L223.138 328.444V328.46L223.871 365.985L221.838 371.072L224.126 379.413C224.126 379.413 223.074 366.805 217.428 374.045C214.231 378.16 210.491 382.37 207.421 386.317C211.895 388.127 216.44 389.764 221.056 391.229C222.053 391.548 223.058 391.851 224.063 392.154C224.278 392.218 224.493 392.281 224.708 392.345C240.013 396.871 255.834 399.414 271.786 399.912C272.615 399.936 273.428 399.952 274.218 399.968C274.497 399.976 274.768 399.984 275.039 399.984C275.932 399.992 276.817 400 277.71 400C279.512 400 281.306 399.973 283.093 399.92C296.313 399.548 309.456 397.77 322.3 394.618C322.212 389.315 321.973 383.119 321.63 376.501C321.47 373.256 317.89 369.739 317.675 366.343C317.523 363.791 320.737 361.391 320.569 358.799C319.485 342.844 318.129 348.969 317.125 337.67C317.021 336.561 316.925 335.501 316.838 334.488C316.192 327.232 315.745 322.695 315.745 322.695L320.035 295.656L326.773 253.203L326.255 252.35L325.673 252.063L290.133 234.473L288.204 229.529C287.642 228.105 286.666 226.881 285.403 226.016C284.14 225.151 282.646 224.683 281.115 224.673L257.704 224.577C256.489 224.572 255.29 224.856 254.207 225.407C253.124 225.957 252.188 226.758 251.476 227.743L245.137 236.522L203.203 263.41Z" fill="#3F3D56"/>
<path d="M228.439 317.097L223.137 328.444L219.517 336.195L213.289 368.8L210.171 372.109L207.5 360.394L179.542 366.602C178.625 361.507 179.297 366.774 178.73 361.185C178.89 361.025 179.057 360.866 179.225 360.706C179.671 360.291 180.046 359.901 180.038 359.526C179.719 340.245 180.676 307.433 188.666 287.555C189.917 284.309 191.567 281.231 193.578 278.393C193.737 278.177 193.889 277.962 194.04 277.747C197.724 272.588 200.052 267.508 203.354 263.896V263.888C203.374 263.872 203.393 263.853 203.409 263.832C203.421 263.827 203.432 263.818 203.441 263.809L226.119 251.784L227.092 279.118L227.785 298.766L228.439 317.097Z" fill="#3F3D56"/>
<path d="M310.211 320.32L316.834 334.492L319.146 339.428L325.372 372.029L328.48 375.331L331.157 363.619L332.415 363.361L355.103 358.662L361.716 379.664C363.206 377.18 363.793 374.259 363.378 371.392C362.963 368.526 361.57 365.891 359.436 363.933C358.985 363.524 358.608 363.126 358.619 362.75C358.995 340.073 357.608 298.664 345.082 281.622C341.103 276.213 338.716 270.826 335.243 267.063C335.232 267.052 335.232 267.041 335.222 267.041L326.77 253.203L326.254 252.353L325.673 252.063L310.211 320.32Z" fill="#3F3D56"/>
<path d="M270.087 217.915C287.288 217.915 301.233 203.971 301.233 186.769C301.233 169.568 287.288 155.624 270.087 155.624C252.886 155.624 238.941 169.568 238.941 186.769C238.941 203.971 252.886 217.915 270.087 217.915Z" fill="#FFB6B6"/>
<path d="M312.182 165.014C311.941 164.756 311.65 164.55 311.327 164.407C311.004 164.264 310.655 164.188 310.302 164.183L310.77 162.882C310.923 162.473 310.964 162.03 310.89 161.599C310.815 161.169 310.628 160.766 310.346 160.431C310.064 160.097 309.699 159.844 309.287 159.697C308.875 159.55 308.432 159.516 308.002 159.597L306.297 159.926L306.458 158.786C306.519 158.362 306.469 157.929 306.313 157.53C306.156 157.13 305.899 156.779 305.565 156.509C305.231 156.24 304.833 156.062 304.41 155.993C303.987 155.924 303.553 155.967 303.151 156.116C302.786 156.26 302.393 156.32 302.001 156.293C301.609 156.265 301.228 156.15 300.887 155.955C300.544 155.767 300.246 155.507 300.014 155.191C299.782 154.876 299.622 154.514 299.545 154.131L298.95 151.265L298.888 151.111C295.994 146.288 290.43 142.78 283.622 141.493C277.561 140.34 271.347 140.927 265.357 141.479C262.981 141.703 260.297 141.955 258.06 143.325C256.159 144.499 254.551 146.848 254.879 149.217C248.973 147.407 242.64 151.021 239.502 155.578C235.783 161.002 235.175 167.796 235.077 173.109C234.811 185.676 237.405 195.958 242.766 203.675C243.157 204.234 243.255 205.402 244.031 205.793L243.87 205.534C244.737 205.968 245.618 206.667 245.289 207.415C244.346 209.568 250.616 214.328 255.033 215.9C263.092 218.773 273.808 218.529 281.343 217.494L281.609 215.712C284.328 215.341 286.243 214.635 286.781 213.531C287.732 212.72 288.543 211.993 289.249 211.322L289.256 211.315C289.269 211.301 289.297 211.28 289.311 211.266C292.715 208.002 293.505 206.143 293.862 203.312C294.204 200.537 293.596 197.72 292.974 195.183C306.073 197.21 287.816 181.231 300.02 178.141C300.16 178.098 300.302 178.063 300.446 178.036C300.803 177.953 301.159 177.869 301.502 177.771C303.153 177.323 304.734 176.648 306.199 175.765C309.61 173.689 310.735 170.935 312.497 167.831C312.751 167.389 312.857 166.878 312.801 166.371C312.744 165.865 312.528 165.389 312.182 165.014Z" fill="#2F2E41"/>
<path d="M380.242 322.538C380.235 323.761 380.221 325.473 380.165 327.591C380.158 327.885 380.151 328.186 380.144 328.493C380.053 332.386 379.962 335.651 379.815 339.278C379.808 339.53 379.801 339.775 379.787 340.026C379.592 345.087 379.284 350.979 378.753 360.311C377.767 377.548 376.048 362.68 374.321 368.727C374.237 369.027 374.147 369.384 374.063 369.803C373.801 371.325 373.36 372.81 372.749 374.228C371.833 374.773 370.889 375.297 369.96 375.821C367.31 377.296 364.619 378.715 361.907 380.064C360.383 380.819 358.853 381.56 357.315 382.273C357.07 382.385 356.833 382.497 356.595 382.602C348.72 386.244 340.605 389.341 332.305 391.87C330.684 392.359 329.069 392.835 327.433 393.275C325.728 393.75 324.022 394.198 322.296 394.617C309.452 397.77 296.31 399.549 283.09 399.922C281.307 399.978 279.511 399.999 277.708 399.999C276.813 399.999 275.932 399.992 275.037 399.985C274.765 399.985 274.492 399.978 274.22 399.971C273.43 399.95 272.612 399.936 271.787 399.915C255.835 399.418 240.014 396.874 224.71 392.345L224.06 392.157C223.054 391.849 222.054 391.549 221.055 391.227C216.441 389.766 211.896 388.131 207.418 386.32C203.999 384.943 200.621 383.466 197.282 381.889C197.252 381.88 197.223 381.866 197.198 381.847C196.499 381.525 195.793 381.19 195.094 380.847C195.004 380.798 194.906 380.749 194.808 380.7C192.201 379.428 189.621 378.095 187.07 376.702C184.924 371.774 181.905 370.831 180.031 366.497C179.486 365.209 179.092 363.863 178.857 362.485C178.857 362.471 178.85 362.457 178.85 362.436C179.046 365.036 178.018 357.823 178.843 362.408C178.836 362.324 178.829 362.233 178.822 362.128C178.801 361.877 178.773 361.569 178.731 361.185C176.334 337.776 176.487 311.005 175.446 288.945C175.376 287.519 175.304 286.153 175.229 284.848C175.208 284.415 175.18 283.989 175.152 283.569C175.201 283.443 175.257 283.311 175.32 283.185C175.333 283.149 175.35 283.114 175.369 283.08C175.39 283.037 175.413 282.995 175.439 282.954C175.453 282.933 175.474 282.905 175.488 282.884C175.498 282.86 175.51 282.837 175.523 282.814C175.586 282.717 175.656 282.612 175.732 282.514C175.767 282.472 175.795 282.437 175.83 282.402C175.854 282.366 175.883 282.333 175.914 282.304C175.936 282.271 175.962 282.24 175.991 282.213C176.019 282.185 176.047 282.15 176.082 282.115C176.097 282.093 176.116 282.074 176.138 282.06C176.193 281.996 176.254 281.938 176.32 281.885C176.569 281.655 176.835 281.445 177.116 281.256C177.214 281.193 177.319 281.13 177.417 281.06C178.121 280.639 178.863 280.283 179.633 279.998C179.898 279.9 180.164 279.809 180.451 279.711C180.555 279.683 180.653 279.648 180.758 279.613C180.912 279.564 181.066 279.515 181.227 279.48C182.023 279.243 182.883 279.04 183.813 278.851C183.925 278.83 184.043 278.809 184.162 278.781C184.33 278.746 184.505 278.718 184.68 278.69C184.917 278.648 185.162 278.607 185.406 278.565C187.482 278.236 189.838 277.991 192.438 277.831C192.683 277.817 192.928 277.803 193.172 277.789C193.459 277.775 193.745 277.761 194.039 277.747C194.284 277.733 194.535 277.726 194.787 277.719C195.031 277.705 195.283 277.698 195.542 277.691C196.248 277.67 196.975 277.649 197.716 277.635C199.827 277.593 202.049 277.607 204.384 277.656C205.467 277.684 206.572 277.712 207.704 277.761C207.781 277.761 207.851 277.768 207.921 277.768C208.906 277.803 209.899 277.845 210.919 277.901C211.632 277.936 212.352 277.97 213.072 278.012C213.75 278.054 214.435 278.096 215.127 278.145C215.666 278.173 216.204 278.215 216.749 278.25C217.21 278.285 217.672 278.32 218.133 278.348L218.762 278.39C219.105 278.418 219.447 278.439 219.797 278.474C220.565 278.537 221.334 278.6 222.117 278.662C222.893 278.732 223.683 278.802 224.473 278.872C225.263 278.942 226.059 279.019 226.856 279.096C226.94 279.103 227.017 279.11 227.094 279.117C227.821 279.194 228.548 279.264 229.282 279.34C229.45 279.354 229.624 279.368 229.792 279.389C230.492 279.46 231.205 279.542 231.911 279.617C232.128 279.64 232.344 279.663 232.561 279.687C233.114 279.747 233.659 279.799 234.217 279.865C234.95 279.949 235.698 280.025 236.425 280.123C236.992 280.186 237.558 280.249 238.124 280.319C239.012 280.424 239.913 280.536 240.815 280.655C241.157 280.696 241.5 280.738 241.842 280.787C244.415 281.109 247.015 281.465 249.657 281.836C253.662 282.402 257.73 283.017 261.826 283.681C265.93 284.345 270.056 285.047 274.206 285.785C275.254 285.974 276.302 286.163 277.358 286.358C277.833 286.449 278.309 286.54 278.784 286.631C279.595 286.778 280.405 286.931 281.216 287.085C282.027 287.239 282.838 287.393 283.649 287.553C284.613 287.742 285.585 287.931 286.55 288.12C292.903 289.378 299.222 290.72 305.387 292.125C306.401 292.356 307.414 292.593 308.421 292.824C310.434 293.292 312.428 293.767 314.404 294.25C314.949 294.376 315.488 294.508 316.026 294.641C317.368 294.977 318.71 295.312 320.031 295.655L320.262 295.718C321.233 295.955 322.184 296.2 323.135 296.452C325.378 297.039 327.585 297.633 329.754 298.234C331.194 298.632 332.617 299.036 334.025 299.443C336.129 300.051 338.191 300.666 340.197 301.289C340.693 301.442 341.189 301.596 341.679 301.743C343.146 302.197 344.593 302.659 345.998 303.12C347.117 303.483 348.207 303.854 349.284 304.224C350.36 304.595 351.415 304.965 352.45 305.336C353.114 305.573 353.771 305.825 354.428 306.063C355.372 306.412 356.301 306.762 357.21 307.111C357.49 307.216 357.762 307.328 358.035 307.433C358.21 307.51 358.377 307.572 358.545 307.642C358.874 307.775 359.209 307.901 359.531 308.034C359.859 308.16 360.181 308.292 360.502 308.432C360.817 308.558 361.138 308.691 361.446 308.824C361.76 308.949 362.068 309.082 362.376 309.222C362.634 309.327 362.886 309.439 363.13 309.551C363.627 309.767 364.123 309.984 364.605 310.208C364.843 310.319 365.081 310.424 365.318 310.536L365.864 310.788C365.94 310.83 366.017 310.865 366.094 310.9C366.269 310.984 366.451 311.074 366.625 311.158C367.031 311.347 367.429 311.55 367.821 311.738C368.345 312.004 368.855 312.27 369.344 312.528C369.841 312.794 370.323 313.06 370.784 313.318C370.861 313.36 370.931 313.402 371.008 313.444C371.113 313.5 371.218 313.563 371.323 313.619C371.679 313.821 372.022 314.031 372.364 314.234C373.035 314.646 373.671 315.052 374.265 315.457C374.398 315.548 374.524 315.639 374.657 315.723C375.097 316.037 375.516 316.345 375.908 316.659C375.908 316.666 375.908 316.666 375.915 316.666C376.048 316.764 376.174 316.869 376.299 316.967C376.404 317.065 376.516 317.149 376.621 317.246C376.984 317.561 377.32 317.861 377.627 318.169C377.731 318.264 377.829 318.364 377.921 318.47C377.962 318.503 377.999 318.541 378.033 318.581C378.173 318.721 378.298 318.861 378.417 319.001C378.436 319.02 378.452 319.041 378.466 319.064C378.634 319.259 378.788 319.455 378.935 319.651C379.004 319.749 379.081 319.847 379.144 319.944C379.228 320.063 379.312 320.189 379.382 320.308C379.445 320.406 379.501 320.511 379.557 320.609C379.705 320.86 379.831 321.125 379.934 321.398C380.013 321.584 380.076 321.776 380.123 321.972C380.176 322.157 380.215 322.346 380.242 322.538Z" fill="#2F2E41"/>
<path opacity="0.2" d="M380.241 322.538C380.234 323.761 380.22 325.473 380.164 327.591C380.157 327.885 380.143 328.186 380.136 328.493C380.066 331.464 379.961 335.133 379.815 339.278C379.808 339.53 379.801 339.775 379.787 340.026C379.591 345.087 379.283 350.979 378.752 360.311C377.767 377.548 376.047 362.68 374.321 368.727C369.525 365.777 364.269 362.687 358.649 359.514C357.636 358.941 356.613 358.365 355.581 357.788C344.341 351.518 331.787 344.947 318.681 338.44C318.164 338.181 317.64 337.922 317.123 337.671C287.101 322.831 254.333 308.397 227.785 298.765C222.662 296.906 217.769 295.228 213.169 293.754C203.481 290.657 195.108 288.49 188.663 287.554C181.953 286.575 177.318 286.924 175.445 288.944C175.375 287.519 175.303 286.153 175.228 284.848C175.2 284.415 175.172 283.989 175.145 283.569C175.188 283.454 175.244 283.344 175.298 283.234C175.306 283.217 175.311 283.201 175.319 283.185C175.333 283.149 175.349 283.114 175.368 283.08C175.389 283.037 175.412 282.995 175.438 282.954C175.461 282.905 175.489 282.858 175.522 282.814C175.585 282.717 175.655 282.612 175.732 282.514C175.788 282.44 175.849 282.37 175.913 282.304C175.935 282.27 175.961 282.24 175.99 282.213C176.018 282.185 176.046 282.15 176.081 282.115C176.096 282.093 176.115 282.074 176.137 282.059C176.192 281.996 176.253 281.937 176.319 281.885C176.568 281.655 176.835 281.445 177.116 281.256C177.213 281.193 177.318 281.13 177.416 281.06C178.121 280.639 178.862 280.283 179.632 279.997C179.898 279.9 180.163 279.809 180.45 279.711C180.555 279.683 180.653 279.648 180.757 279.613C180.911 279.564 181.065 279.515 181.226 279.48C182.023 279.243 182.882 279.04 183.812 278.851C184.092 278.795 184.385 278.739 184.679 278.69C184.916 278.648 185.161 278.606 185.406 278.565C187.482 278.236 189.837 277.991 192.437 277.831C192.682 277.817 192.927 277.803 193.171 277.789C193.458 277.775 193.745 277.761 194.038 277.747C194.283 277.733 194.534 277.726 194.786 277.719C195.031 277.705 195.282 277.698 195.541 277.691C196.247 277.67 196.974 277.649 197.715 277.635C199.826 277.6 202.049 277.614 204.383 277.663C205.467 277.684 206.571 277.719 207.703 277.768C207.773 277.768 207.85 277.775 207.92 277.775C208.906 277.803 209.905 277.852 210.919 277.901C211.632 277.935 212.352 277.97 213.071 278.012C213.749 278.054 214.435 278.096 215.127 278.145C215.665 278.173 216.203 278.215 216.748 278.25C217.209 278.285 217.671 278.32 218.132 278.348C218.684 278.39 219.237 278.432 219.796 278.474C220.565 278.537 221.333 278.599 222.116 278.662C222.892 278.732 223.682 278.802 224.472 278.872C225.262 278.942 226.059 279.019 226.855 279.096C226.939 279.103 227.016 279.11 227.093 279.117C227.82 279.194 228.547 279.264 229.281 279.34C233.349 279.753 237.536 280.235 241.842 280.787C244.414 281.116 247.019 281.468 249.656 281.843C253.662 282.409 257.73 283.024 261.826 283.681C265.929 284.345 270.055 285.046 274.205 285.785C275.253 285.974 276.302 286.163 277.357 286.358C278.643 286.596 279.929 286.838 281.216 287.085C282.026 287.239 282.837 287.393 283.648 287.554C284.613 287.742 285.584 287.931 286.549 288.12C292.903 289.378 299.221 290.72 305.387 292.125C306.4 292.355 307.414 292.593 308.42 292.824C310.433 293.292 312.428 293.767 314.403 294.25C314.949 294.383 315.487 294.515 316.025 294.648C317.374 294.984 318.709 295.319 320.03 295.655V295.662C320.107 295.676 320.184 295.697 320.261 295.718C321.226 295.962 322.183 296.207 323.134 296.459C325.378 297.046 327.584 297.638 329.753 298.234C331.193 298.639 332.619 299.038 334.024 299.443C336.128 300.058 338.19 300.673 340.196 301.289C340.692 301.442 341.189 301.596 341.678 301.743C343.146 302.204 344.586 302.663 345.998 303.12C347.116 303.483 348.206 303.854 349.283 304.224C350.359 304.595 351.415 304.965 352.449 305.336C353.12 305.573 353.777 305.818 354.427 306.056C355.378 306.405 356.301 306.755 357.209 307.111C357.489 307.216 357.762 307.328 358.034 307.433C358.544 307.628 359.041 307.831 359.53 308.034C359.858 308.16 360.18 308.292 360.502 308.432C360.816 308.558 361.138 308.691 361.445 308.824C361.76 308.949 362.067 309.082 362.375 309.222C362.633 309.327 362.885 309.439 363.13 309.551C363.626 309.767 364.122 309.984 364.605 310.208C364.842 310.319 365.08 310.424 365.318 310.536L365.863 310.788C365.94 310.83 366.017 310.865 366.093 310.9C366.688 311.179 367.261 311.459 367.82 311.738C368.344 312.004 368.854 312.27 369.344 312.528C369.924 312.836 370.476 313.136 371.007 313.444C371.112 313.5 371.217 313.563 371.322 313.619C371.678 313.821 372.021 314.031 372.363 314.234C373.034 314.646 373.67 315.052 374.265 315.457C374.852 315.862 375.397 316.261 375.907 316.659C375.907 316.666 375.907 316.666 375.914 316.666C376.159 316.862 376.396 317.058 376.62 317.246C376.984 317.561 377.319 317.861 377.627 318.169C377.73 318.264 377.828 318.364 377.92 318.47C377.961 318.503 377.998 318.541 378.032 318.581C378.179 318.742 378.326 318.903 378.466 319.064C378.633 319.259 378.787 319.455 378.934 319.651C379.004 319.749 379.081 319.847 379.144 319.944C379.227 320.063 379.311 320.189 379.381 320.308C379.444 320.406 379.5 320.511 379.556 320.609C379.704 320.86 379.831 321.125 379.933 321.398C380.01 321.585 380.073 321.776 380.122 321.972C380.175 322.157 380.215 322.346 380.241 322.538Z" fill="black"/>
</svg>
