<svg viewBox="0 0 412 400" fill="none" xmlns="http://www.w3.org/2000/svg">
<path d="M387.215 110.401C383.362 103.45 379.087 96.7416 374.414 90.3129C371.14 85.8026 367.68 81.4429 364.034 77.2337H364.025C357.429 69.6138 350.256 62.5135 342.569 55.9959C340.995 54.6597 339.401 53.3509 337.785 52.0695C323.199 40.4657 307.024 31.0143 289.754 24.0041L289.907 49.2404L291.56 336.92H148.328L140.272 49.7832L140.873 24.9499C70.6503 54.4839 21.3438 123.923 21.3438 204.884C21.3307 221.594 23.4627 238.237 27.6873 254.405C29.4717 261.239 31.6321 267.97 34.1585 274.566C35.0706 276.961 36.0328 279.334 37.0452 281.685C37.5332 282.83 38.0303 283.965 38.5456 285.096C39.2069 286.574 39.8955 288.047 40.6023 289.502C41.1496 290.646 41.712 291.783 42.2897 292.913C43.033 294.395 43.8007 295.865 44.5927 297.323C45.2038 298.467 45.8331 299.603 46.4716 300.734C56.7719 318.953 69.9251 335.404 85.431 349.462C89.85 353.47 94.4484 357.271 99.2262 360.863C133.032 386.265 174.174 400 216.46 400C258.746 400 299.888 386.265 333.694 360.863C336.294 358.911 338.84 356.894 341.333 354.811C342.988 353.434 344.616 352.031 346.217 350.602C346.641 350.223 347.065 349.845 347.485 349.462C361.78 336.502 374.083 321.503 383.995 304.948C387.635 298.878 390.936 292.612 393.882 286.177C394.662 284.481 395.418 282.769 396.149 281.042C399.514 273.125 402.345 264.99 404.622 256.694C404.973 255.413 405.312 254.127 405.639 252.836V252.832C405.694 252.608 405.753 252.38 405.808 252.157C406.145 250.798 406.469 249.43 406.779 248.061V248.057C407.782 243.647 408.629 239.184 409.319 234.668C409.406 234.088 409.492 233.509 409.575 232.93C409.606 232.72 409.638 232.511 409.661 232.301V232.296C410.154 228.807 410.554 225.293 410.861 221.753C411.335 216.193 411.574 210.57 411.577 204.884C411.628 171.83 403.243 139.309 387.215 110.401Z" fill="#F2F2F2"/>
<path d="M368.052 322.664C379.6 307.06 384.042 285.08 375.058 267.871C366.633 287.228 351.633 302.981 332.711 312.343C325.4 315.927 316.896 319.153 313.512 326.558C311.407 331.166 311.808 336.607 313.5 341.381C315.193 346.156 318.072 350.405 320.92 354.594L321.07 355.85C339.003 348.415 356.503 338.269 368.052 322.664Z" fill="#E6E6E6"/>
<path d="M374.677 268.009C374.159 284.069 368.595 299.558 358.773 312.276C356.707 315.051 354.217 317.483 351.394 319.483C348.58 321.343 345.321 322.415 341.953 322.588C338.817 322.813 335.582 322.679 332.555 323.663C331.013 324.189 329.599 325.036 328.407 326.147C327.215 327.257 326.271 328.608 325.637 330.109C323.961 333.809 323.714 337.89 323.612 341.89C323.498 346.331 323.45 350.945 321.355 354.982C321.101 355.471 321.875 355.836 322.129 355.348C325.773 348.324 323.406 340.111 325.578 332.728C326.592 329.283 328.65 326.122 332.089 324.741C335.097 323.534 338.432 323.669 341.61 323.468C344.898 323.347 348.106 322.423 350.954 320.777C353.87 318.927 356.45 316.595 358.583 313.879C363.483 307.843 367.404 301.074 370.202 293.82C373.441 285.558 375.243 276.803 375.529 267.934C375.547 267.385 374.694 267.463 374.677 268.009Z" fill="white"/>
<path d="M362.178 308.367C364.536 309.725 367.299 310.201 369.975 309.71C372.651 309.218 375.065 307.792 376.787 305.685C377.133 305.258 376.485 304.699 376.138 305.127C374.539 307.092 372.29 308.42 369.797 308.872C367.304 309.325 364.732 308.871 362.544 307.593C362.068 307.316 361.705 308.091 362.178 308.367Z" fill="white"/>
<path d="M343.557 322.683C342.065 317.326 342.647 311.602 345.187 306.655C345.439 306.165 344.665 305.799 344.413 306.289C341.78 311.442 341.186 317.4 342.751 322.972C342.901 323.502 343.706 323.211 343.557 322.683H343.557Z" fill="white"/>
<path d="M372.305 285.598C371.284 285.262 370.361 284.678 369.621 283.898C368.881 283.118 368.346 282.167 368.065 281.129C367.922 280.596 367.117 280.888 367.259 281.417C367.575 282.562 368.167 283.612 368.983 284.476C369.799 285.34 370.814 285.99 371.939 286.371C372.042 286.416 372.159 286.42 372.264 286.382C372.37 286.344 372.458 286.267 372.509 286.167C372.557 286.065 372.562 285.947 372.524 285.841C372.486 285.734 372.407 285.647 372.305 285.598Z" fill="white"/>
<path d="M310.773 254.175C310.853 254.51 310.933 254.845 311.008 255.186C312.056 259.697 312.735 264.285 313.04 268.906C313.069 269.263 313.093 269.625 313.112 269.982C313.728 281.123 312.27 292.281 308.812 302.889C307.433 307.109 305.734 311.218 303.731 315.181C300.964 320.653 297.529 326.366 296.754 332.259C296.666 332.873 296.617 333.491 296.605 334.111L319.528 355.936C319.605 355.959 319.678 355.988 319.755 356.012L320.63 356.925C320.748 356.728 320.866 356.521 320.983 356.324C321.052 356.21 321.115 356.091 321.184 355.977C321.228 355.899 321.272 355.821 321.317 355.754C321.331 355.728 321.346 355.702 321.356 355.681C321.4 355.614 321.434 355.547 321.473 355.484C322.134 354.329 322.789 353.167 323.436 351.999C323.441 351.993 323.441 351.993 323.441 351.983C328.35 343.067 332.558 333.663 335.205 323.919C335.284 323.626 335.369 323.327 335.438 323.024C336.607 318.625 337.414 314.139 337.851 309.608C338.083 307.127 338.189 304.635 338.169 302.143C338.104 295.704 337.027 289.315 334.976 283.211C330.888 271.042 322.953 260.317 311.642 254.603C311.352 254.457 311.068 254.316 310.773 254.175Z" fill="#E6E6E6"/>
<path d="M310.546 254.515C319.802 267.65 324.685 283.367 324.5 299.435C324.521 302.895 323.997 306.336 322.947 309.633C321.82 312.811 319.863 315.629 317.279 317.795C314.91 319.863 312.247 321.704 310.422 324.312C309.507 325.661 308.888 327.188 308.605 328.792C308.322 330.397 308.382 332.044 308.78 333.624C309.669 337.587 311.929 340.994 314.255 344.25C316.838 347.864 319.578 351.577 320.336 356.061C320.428 356.605 321.265 356.43 321.174 355.888C319.855 348.086 313.02 342.953 310.309 335.75C309.044 332.389 308.784 328.627 310.699 325.453C312.374 322.679 315.118 320.778 317.535 318.705C320.087 316.629 322.092 313.96 323.375 310.93C324.589 307.698 325.245 304.282 325.314 300.83C325.592 293.06 324.647 285.294 322.513 277.818C320.125 269.271 316.293 261.196 311.182 253.942C310.866 253.493 310.232 254.069 310.546 254.515Z" fill="white"/>
<path d="M324.865 294.265C327.565 293.93 330.058 292.646 331.899 290.643C333.74 288.639 334.809 286.047 334.915 283.328C334.934 282.778 334.08 282.722 334.061 283.273C333.967 285.805 332.971 288.219 331.253 290.081C329.535 291.943 327.208 293.13 324.692 293.427C324.145 293.492 324.322 294.33 324.865 294.265H324.865Z" fill="white"/>
<path d="M318.616 316.905C314.199 313.526 311.218 308.606 310.267 303.126C310.173 302.583 309.336 302.757 309.429 303.299C310.429 309 313.542 314.114 318.147 317.62C318.586 317.954 319.053 317.237 318.616 316.905V316.905Z" fill="white"/>
<path d="M319.245 269.986C318.228 270.333 317.14 270.422 316.079 270.245C315.019 270.068 314.019 269.63 313.169 268.971C312.734 268.632 312.267 269.349 312.699 269.686C313.641 270.41 314.746 270.892 315.918 271.09C317.089 271.289 318.291 271.197 319.419 270.824C319.528 270.797 319.623 270.73 319.685 270.636C319.747 270.543 319.77 270.429 319.751 270.318C319.728 270.207 319.661 270.11 319.567 270.048C319.472 269.986 319.357 269.963 319.245 269.986Z" fill="white"/>
<path d="M9.10877 235.268C-1.13365 218.776 -3.77421 196.508 6.57818 180.086C13.4024 200.064 27.0731 216.984 45.1716 227.853C52.1666 232.019 60.3806 235.925 63.1514 243.581C64.8755 248.344 64.0337 253.735 61.9587 258.356C59.8835 262.978 56.6689 266.978 53.4894 270.922L53.2378 272.162C35.9684 263.294 19.3512 251.759 9.10877 235.268Z" fill="#E6E6E6"/>
<path d="M6.94889 180.254C6.15946 196.304 10.447 212.194 19.2026 225.667C21.036 228.601 23.3204 231.228 25.9718 233.451C28.6245 235.533 31.7863 236.866 35.1286 237.313C38.2366 237.791 41.4712 237.921 44.4087 239.148C45.903 239.797 47.243 240.756 48.3409 241.96C49.4388 243.164 50.2698 244.587 50.7793 246.135C52.1492 249.958 52.0635 254.046 51.8408 258.041C51.5935 262.476 51.2663 267.079 53.026 271.273C53.2392 271.781 52.4383 272.082 52.2254 271.575C49.1639 264.279 52.1899 256.285 50.6253 248.749C49.8953 245.233 48.1011 241.916 44.7853 240.26C41.8857 238.813 38.5502 238.676 35.3991 238.218C32.1322 237.83 29.0099 236.648 26.305 234.776C23.5491 232.695 21.1673 230.161 19.2616 227.281C14.868 220.867 11.5102 213.801 9.31133 206.344C6.75457 197.846 5.67025 188.974 6.10527 180.111C6.13242 179.562 6.97589 179.709 6.94891 180.254L6.94889 180.254Z" fill="white"/>
<path d="M16.1278 221.495C13.6678 222.657 10.8748 222.907 8.24756 222.2C5.62035 221.493 3.33003 219.875 1.78561 217.635C1.47467 217.181 2.16599 216.676 2.47734 217.131C3.91166 219.219 6.04526 220.726 8.49305 221.38C10.9409 222.033 13.5416 221.79 15.8259 220.694C16.3226 220.457 16.6216 221.259 16.1278 221.495Z" fill="white"/>
<path d="M33.5207 237.277C35.4436 232.059 35.3288 226.307 33.1993 221.169C32.9879 220.66 33.7887 220.359 33.9999 220.867C36.2059 226.218 36.3132 232.204 34.3003 237.63C34.1081 238.147 33.3295 237.792 33.5207 237.277Z" fill="white"/>
<path d="M7.88172 197.978C8.92725 197.726 9.894 197.219 10.6951 196.502C11.4963 195.785 12.1067 194.88 12.4716 193.868C12.6572 193.349 13.4356 193.705 13.2512 194.221C12.8428 195.337 12.1674 196.335 11.2841 197.13C10.4007 197.924 9.33619 198.49 8.1836 198.778C8.07724 198.815 7.96105 198.809 7.85866 198.763C7.75627 198.716 7.67536 198.633 7.63237 198.529C7.59293 198.423 7.59699 198.305 7.64368 198.202C7.69038 198.099 7.77592 198.018 7.88172 197.978Z" fill="white"/>
<path d="M71.7641 171.66C71.6574 171.987 71.5508 172.315 71.4484 172.648C70.0374 177.059 68.987 181.577 68.3077 186.158C68.2496 186.511 68.196 186.87 68.1481 187.225C66.6291 198.278 67.1755 209.518 69.7595 220.373C70.7918 224.691 72.151 228.924 73.8256 233.036C76.1385 238.715 79.0981 244.688 79.3913 250.625C79.4289 251.244 79.428 251.864 79.3888 252.483L54.7681 272.372C54.6895 272.39 54.6151 272.413 54.5362 272.43L53.5895 273.269C53.4883 273.063 53.3878 272.847 53.2866 272.641C53.2274 272.522 53.1737 272.398 53.1145 272.279C53.0768 272.198 53.0393 272.117 53.0007 272.046C52.988 272.019 52.9756 271.992 52.9675 271.97C52.9288 271.9 52.9004 271.83 52.8663 271.764C52.3012 270.559 51.7435 269.348 51.1934 268.131C51.1888 268.125 51.1888 268.125 51.1898 268.115C47.0215 258.83 43.5919 249.114 41.7458 239.187C41.6903 238.889 41.6301 238.585 41.5859 238.277C40.7786 233.798 40.3387 229.26 40.2707 224.709C40.2415 222.217 40.3384 219.725 40.5612 217.243C41.149 210.83 42.7419 204.55 45.2814 198.633C50.3455 186.837 59.1258 176.792 70.8638 172.016C71.1641 171.894 71.4592 171.776 71.7641 171.66Z" fill="#E6E6E6"/>
<path d="M71.9628 172.017C61.6697 184.356 55.5262 199.625 54.405 215.654C54.1023 219.101 54.3448 222.574 55.1236 225.945C55.9882 229.204 57.71 232.172 60.1098 234.541C62.303 236.795 64.8074 238.846 66.4146 241.593C67.2164 243.012 67.7093 244.584 67.8609 246.207C68.0125 247.829 67.8195 249.465 67.2944 251.008C66.0861 254.886 63.5564 258.098 60.9735 261.153C58.1057 264.546 55.0731 268.024 53.9532 272.432C53.8175 272.966 52.9967 272.724 53.1322 272.191C55.0807 264.522 62.3096 259.961 65.5972 253.003C67.1313 249.756 67.6961 246.027 66.0453 242.709C64.6018 239.807 62.021 237.689 59.7806 235.427C57.4057 233.15 55.6243 230.327 54.592 227.203C53.6442 223.883 53.2683 220.425 53.4805 216.979C53.8344 209.212 55.4073 201.549 58.1416 194.27C61.2162 185.946 65.692 178.209 71.3755 171.395C71.7275 170.973 72.3124 171.598 71.9628 172.017V172.017Z" fill="white"/>
<path d="M54.462 210.472C51.7981 209.918 49.4177 208.436 47.7457 206.29C46.0737 204.144 45.2191 201.473 45.3345 198.755C45.3403 198.644 45.3888 198.54 45.4699 198.464C45.551 198.388 45.6583 198.347 45.7692 198.349C45.8802 198.351 45.9861 198.395 46.0646 198.474C46.1432 198.552 46.1882 198.658 46.1903 198.769C46.0781 201.3 46.8744 203.788 48.4354 205.783C49.9965 207.779 52.2194 209.15 54.703 209.651C55.2426 209.76 54.9985 210.58 54.462 210.472Z" fill="white"/>
<path d="M58.8479 233.545C63.5252 230.536 66.8964 225.874 68.2895 220.49C68.427 219.956 69.2479 220.198 69.1104 220.731C67.6504 226.331 64.1322 231.175 59.258 234.296C58.7932 234.593 58.3856 233.84 58.8479 233.545V233.545Z" fill="white"/>
<path d="M62.0373 186.73C63.0234 187.158 64.1006 187.336 65.1721 187.245C66.2436 187.155 67.2759 186.8 68.1762 186.212C68.637 185.909 69.0442 186.662 68.5864 186.963C67.5886 187.608 66.4481 187.999 65.2644 188.101C64.0808 188.203 62.8901 188.014 61.7963 187.551C61.6896 187.516 61.6002 187.441 61.5463 187.342C61.4924 187.244 61.4781 187.128 61.5063 187.02C61.5388 186.911 61.6127 186.82 61.7122 186.765C61.8116 186.711 61.9284 186.698 62.0373 186.73Z" fill="white"/>
<path d="M199.241 66.928C214.212 66.928 226.348 54.7914 226.348 39.8202C226.348 24.8489 214.212 12.7123 199.241 12.7123C184.269 12.7123 172.133 24.8489 172.133 39.8202C172.133 54.7914 184.269 66.928 199.241 66.928Z" fill="#FF6584"/>
<path d="M282.24 38.4056C279.797 35.8252 277.218 33.3773 274.514 31.0725C269.233 26.5942 263.387 22.7862 256.87 20.3875C254.417 19.4814 251.882 18.814 249.3 18.3946C248.99 18.3444 248.684 18.2942 248.374 18.2532C248.351 18.2509 248.328 18.2509 248.306 18.2532C248.258 18.2397 248.209 18.2305 248.16 18.2258C247.526 18.1437 246.892 18.0799 246.254 18.0343C242.815 17.8057 239.362 18.1166 236.02 18.9555C234.081 19.4448 232.189 20.104 230.365 20.9256C228.538 21.8199 226.767 22.8235 225.061 23.9309C224.145 24.4874 223.202 24.9972 222.234 25.4586C219.409 26.7971 216.419 27.7541 213.341 28.3043C211.263 28.6771 209.159 28.8845 207.048 28.9245C205.215 28.961 203.486 29.0248 201.749 29.6861C199.894 30.3828 198.229 31.5037 196.885 32.9591C195.541 34.4146 194.557 36.1642 194.01 38.0681C193.967 38.2372 193.979 38.4156 194.044 38.5773C194.11 38.7389 194.226 38.8753 194.375 38.9665C194.844 39.304 195.3 39.687 195.797 39.988C196.236 40.1882 196.704 40.316 197.184 40.3665C197.968 40.5307 198.754 40.6903 199.541 40.8454C202.437 41.42 205.345 41.9292 208.266 42.3731C214.139 43.2624 220.047 43.8887 225.987 44.252C226.023 44.2573 226.06 44.2603 226.097 44.2611C232.808 44.6662 239.536 44.7316 246.254 44.4572C247.271 44.4162 248.283 44.366 249.3 44.3067C253.536 44.0696 257.762 43.6956 261.978 43.1848C265.877 42.7106 269.761 42.1223 273.63 41.42C276.393 40.9183 279.146 40.3589 281.888 39.7418C282.022 39.7024 282.142 39.6293 282.239 39.5296C282.336 39.4299 282.405 39.3069 282.44 39.1726C282.476 39.0383 282.476 38.8971 282.441 38.7627C282.405 38.6284 282.336 38.5054 282.24 38.4056Z" fill="#E6E6E6"/>
<path d="M225.895 74.5512C221.971 70.3531 217.647 66.547 212.985 63.1868C211.439 62.1014 209.847 61.0798 208.21 60.1449C206.203 58.9863 204.118 57.9669 201.971 57.094C201.492 56.898 201.009 56.711 200.526 56.5331C197.779 55.5159 194.931 54.8003 192.03 54.3989C192.007 54.3943 191.984 54.3989 191.961 54.3943C191.916 54.3852 191.865 54.3761 191.82 54.3669C190.414 54.1846 188.997 54.0977 187.579 54.107C186.562 54.107 185.54 54.1617 184.528 54.2621C182.892 54.4232 181.27 54.7036 179.675 55.1012C178.886 55.2973 178.102 55.5253 177.331 55.7852C176.207 56.1552 175.104 56.5844 174.025 57.0713C174.007 57.0804 173.993 57.0849 173.975 57.094C172.164 57.9798 170.41 58.9758 168.721 60.0766C168.685 60.0994 168.644 60.1222 168.607 60.1449C166.689 61.2923 164.66 62.2426 162.551 62.9815C160.741 63.6147 158.884 64.1057 156.997 64.45C154.919 64.8238 152.814 65.0296 150.703 65.0656C148.87 65.1021 147.142 65.1659 145.409 65.8318C143.554 66.5284 141.888 67.6491 140.543 69.1045C139.198 70.5599 138.213 72.3096 137.665 74.2138C137.623 74.3829 137.635 74.561 137.701 74.7225C137.767 74.8839 137.882 75.0204 138.03 75.1122C138.5 75.4496 138.96 75.8281 139.453 76.1291C139.891 76.3309 140.359 76.4587 140.839 76.5076C141.624 76.6718 142.408 76.836 143.197 76.991C146.093 77.5657 149.002 78.0734 151.925 78.5142C155.934 79.1208 159.959 79.6057 164.001 79.969C165.917 80.1468 167.834 80.2928 169.752 80.4068C174.673 80.7032 179.598 80.8187 184.528 80.7534C185.545 80.7397 186.562 80.7169 187.579 80.685C193.617 80.5071 199.636 80.0541 205.638 79.326C212.327 78.5166 218.971 77.3675 225.544 75.8829C225.677 75.8439 225.797 75.7713 225.894 75.672C225.991 75.5727 226.06 75.4501 226.095 75.3162C226.131 75.1822 226.131 75.0414 226.096 74.9074C226.061 74.7734 225.991 74.6507 225.895 74.5512Z" fill="#E6E6E6"/>
<path d="M158.327 1.79973L182.208 331.816L134.445 336.056V5.99848C140.137 1.5528 148.307 0.857262 158.327 1.79973Z" fill="#CCCCCC"/>
<path d="M276.209 1.79973L252.328 331.816L300.091 336.056V5.99848C294.399 1.5528 286.23 0.857262 276.209 1.79973Z" fill="#CCCCCC"/>
<path d="M301.213 6.14253C299.731 2.50869 296.579 0 292.936 0H141.088C136.022 0 131.904 4.86126 131.904 10.8423V338.852C131.859 341.886 132.994 344.82 135.069 347.035C136.154 348.175 137.528 348.999 139.045 349.42C139.711 349.604 140.398 349.696 141.088 349.694H292.936C293.626 349.696 294.313 349.604 294.979 349.42C299.065 348.321 302.12 344.004 302.12 338.852V10.8423C302.124 9.23177 301.816 7.6357 301.213 6.14253ZM299.074 338.852C299.074 342.846 296.319 346.098 292.936 346.098H141.088C138.284 346.098 135.908 343.864 135.183 340.822C135.028 340.177 134.949 339.516 134.95 338.852V10.8423C134.95 6.84778 137.704 3.60156 141.088 3.60156H292.936C293.558 3.60107 294.176 3.71229 294.76 3.92995C297.254 4.84514 299.074 7.59609 299.074 10.8423V338.852Z" fill="#CCCCCC"/>
<path d="M300.599 99.7036H133.43V102.752H300.599V99.7036Z" fill="#CCCCCC"/>
<path d="M300.599 36.7701H133.43V39.8188H300.599V36.7701Z" fill="#CCCCCC"/>
<path d="M300.599 150.515H133.43V153.564H300.599V150.515Z" fill="#CCCCCC"/>
<path d="M187.678 1.36816H184.629V193.705H187.678V1.36816Z" fill="#CCCCCC"/>
<path d="M249.4 1.36816H246.352V193.705H249.4V1.36816Z" fill="#CCCCCC"/>
<path d="M319.653 330.641H119.456C115.819 330.645 112.332 332.092 109.761 334.664C107.189 337.235 105.743 340.722 105.738 344.359C105.736 346.108 106.073 347.84 106.728 349.462C107.746 352.005 109.503 354.185 111.771 355.721C114.04 357.258 116.716 358.079 119.456 358.081H319.653C322.047 358.08 324.4 357.452 326.477 356.26C328.554 355.068 330.283 353.353 331.491 351.286C331.836 350.702 332.134 350.092 332.385 349.462C333.041 347.84 333.377 346.108 333.375 344.359C333.369 340.721 331.922 337.235 329.349 334.663C326.777 332.092 323.29 330.645 319.653 330.641Z" fill="#CCCCCC"/>
<path d="M300.599 186.591H134.445V196.753H300.599V186.591Z" fill="#CCCCCC"/>
<path d="M215.999 183.542H219.048C220.53 183.542 221.952 184.131 223 185.179C224.048 186.228 224.637 187.649 224.637 189.132H210.41C210.41 188.398 210.555 187.671 210.836 186.993C211.116 186.315 211.528 185.698 212.047 185.179C212.566 184.66 213.182 184.249 213.861 183.968C214.539 183.687 215.265 183.542 215.999 183.542Z" fill="#CCCCCC"/>
<path d="M220.453 215.251C237.844 215.251 251.942 201.153 251.942 183.763C251.942 166.372 237.844 152.274 220.453 152.274C203.063 152.274 188.965 166.372 188.965 183.763C188.965 201.153 203.063 215.251 220.453 215.251Z" fill="#FFB8B8"/>
<path d="M185.327 153.47C185.565 149.854 187.957 146.154 195.554 144.221C195.554 144.221 208.593 127.547 226.311 136.291C226.311 136.291 234.901 134.813 241.27 143.725C241.27 143.725 247.585 140.001 250.25 146.603C250.25 146.603 257.656 160.068 254.929 173.803C252.203 187.538 250.807 189.252 250.807 189.252C250.807 189.252 254.283 160.842 234.264 162.812C214.246 164.782 198.129 157.742 193.595 173.156C189.831 185.954 190.305 192.601 190.305 192.601C190.305 192.601 177.717 179.834 181.997 169.78C184.186 164.638 184.96 159.047 185.327 153.47Z" fill="#2F2E41"/>
<path d="M134.824 355.846H308.996C307.832 342.561 307.071 291.775 307.071 288.432C307.071 273.69 295.008 257.601 295.008 257.601L290.689 255.215L254.63 243.964L245.298 231.843C244.321 230.57 243.062 229.541 241.62 228.837C240.178 228.132 238.592 227.772 236.987 227.785L207.509 228.006C204.915 228.026 202.422 229.014 200.518 230.776L182.264 247.71L155.491 260.495L155.445 260.45L155.166 260.658L151.192 263.519L148.637 265.366C148.637 265.366 141.932 273.41 136.574 297.537C135.767 301.165 135.201 348.14 134.824 355.846Z" fill="#6C63FF"/>
<path d="M349.308 349.462C348.888 349.845 348.464 350.223 348.04 350.602C346.435 352.029 344.807 353.432 343.156 354.811C340.661 356.891 338.115 358.908 335.517 360.863H101.049C96.2743 357.278 91.676 353.478 87.2539 349.462H349.308Z" fill="#CCCCCC"/>
<path d="M263.363 352.198H177.172L178.996 343.533H261.539L263.363 352.198Z" fill="#2F2E41"/>
<path d="M341.341 314.803H318.913C318.406 314.801 317.906 314.911 317.447 315.123C316.987 315.336 316.58 315.647 316.254 316.034C315.941 315.974 315.624 315.943 315.305 315.943C314.606 315.942 313.914 316.079 313.268 316.346C312.622 316.613 312.035 317.005 311.54 317.499C311.046 317.993 310.654 318.58 310.386 319.226C310.118 319.871 309.98 320.564 309.98 321.263C309.98 321.962 310.118 322.654 310.386 323.3C310.654 323.945 311.046 324.532 311.54 325.026C312.035 325.52 312.622 325.912 313.268 326.179C313.914 326.446 314.606 326.583 315.305 326.582C316.109 326.582 316.901 326.398 317.622 326.044L317.996 330.641L319.483 348.81C319.553 349.036 319.648 349.255 319.765 349.462C320.066 350.013 320.51 350.474 321.05 350.795C321.59 351.116 322.206 351.286 322.835 351.286H337.419C338.047 351.285 338.664 351.115 339.205 350.794C339.746 350.474 340.19 350.013 340.492 349.462C340.606 349.254 340.7 349.036 340.771 348.81L344.693 319.34C344.854 318.816 344.89 318.261 344.798 317.72C344.705 317.179 344.487 316.667 344.161 316.226C343.835 315.785 343.41 315.426 342.92 315.179C342.43 314.932 341.889 314.803 341.341 314.803ZM315.305 325.064C314.298 325.062 313.332 324.661 312.62 323.949C311.909 323.236 311.509 322.27 311.509 321.263C311.509 320.255 311.909 319.289 312.62 318.576C313.332 317.864 314.298 317.463 315.305 317.461C315.374 317.461 315.438 317.48 315.506 317.484C315.356 318.097 315.375 318.738 315.561 319.34L317.166 324.557C316.601 324.886 315.959 325.061 315.305 325.064Z" fill="#3F3D56"/>
<path d="M290.685 218.382H148.711C147.491 218.384 146.322 218.87 145.459 219.732C144.597 220.595 144.111 221.764 144.109 222.984V318.788C144.111 320.008 144.596 321.178 145.458 322.041C146.321 322.904 147.491 323.389 148.711 323.39H290.685C291.905 323.389 293.075 322.904 293.937 322.041C294.8 321.178 295.285 320.008 295.286 318.788V222.984C295.284 221.764 294.799 220.595 293.936 219.732C293.074 218.87 291.905 218.384 290.685 218.382Z" fill="#3F3D56"/>
<path d="M235.686 295.147H202.473C202.003 295.148 201.552 295.335 201.221 295.668C200.889 296.001 200.703 296.451 200.703 296.921V349.389H237.46V296.921C237.46 296.688 237.414 296.458 237.325 296.242C237.236 296.027 237.105 295.831 236.941 295.667C236.776 295.502 236.58 295.371 236.365 295.282C236.15 295.193 235.919 295.147 235.686 295.147ZM219.191 324.959C218.152 324.954 217.158 324.539 216.423 323.805C215.689 323.07 215.274 322.075 215.269 321.037V314.985C215.27 313.946 215.684 312.949 216.419 312.215C217.155 311.48 218.152 311.068 219.191 311.068C220.23 311.068 221.227 311.48 221.963 312.215C222.698 312.949 223.112 313.946 223.113 314.985V321.037C223.108 322.075 222.693 323.07 221.959 323.805C221.224 324.539 220.23 324.954 219.191 324.959Z" fill="#2F2E41"/>
<path d="M200.59 347.71V352.772C200.59 353.035 200.695 353.286 200.88 353.472C201.066 353.657 201.317 353.762 201.579 353.762H236.585C236.847 353.761 237.098 353.656 237.283 353.471C237.469 353.285 237.573 353.035 237.575 352.772V347.71H200.59Z" fill="#3F3D56"/>
<path d="M287.667 317.787C288.905 317.787 289.908 316.783 289.908 315.546C289.908 314.308 288.905 313.304 287.667 313.304C286.429 313.304 285.426 314.308 285.426 315.546C285.426 316.783 286.429 317.787 287.667 317.787Z" fill="#2F2E41"/>
<path d="M166.632 312.295C166.529 312.295 166.427 312.315 166.332 312.354C166.237 312.394 166.15 312.451 166.077 312.524C166.005 312.597 165.947 312.684 165.907 312.779C165.868 312.874 165.848 312.976 165.848 313.079V317.115C165.848 317.323 165.931 317.522 166.078 317.668C166.225 317.815 166.424 317.897 166.632 317.897C166.84 317.897 167.039 317.815 167.186 317.668C167.333 317.522 167.416 317.323 167.416 317.115V313.079C167.416 312.976 167.396 312.874 167.357 312.779C167.317 312.684 167.26 312.597 167.187 312.524C167.114 312.451 167.027 312.394 166.932 312.354C166.837 312.315 166.735 312.295 166.632 312.295Z" fill="#2F2E41"/>
<path d="M170.894 312.295C170.791 312.295 170.689 312.315 170.594 312.354C170.498 312.394 170.412 312.451 170.339 312.524C170.266 312.597 170.208 312.684 170.169 312.779C170.13 312.874 170.109 312.976 170.109 313.079V317.115C170.109 317.323 170.192 317.522 170.339 317.67C170.486 317.817 170.686 317.899 170.894 317.899C171.102 317.899 171.301 317.817 171.448 317.67C171.596 317.522 171.678 317.323 171.678 317.115V313.079C171.678 312.976 171.658 312.874 171.618 312.779C171.579 312.684 171.521 312.597 171.448 312.524C171.376 312.451 171.289 312.394 171.194 312.354C171.099 312.315 170.997 312.295 170.894 312.295Z" fill="#2F2E41"/>
<path d="M175.152 312.295C175.049 312.295 174.947 312.315 174.851 312.354C174.756 312.394 174.67 312.451 174.597 312.524C174.524 312.597 174.466 312.684 174.427 312.779C174.387 312.874 174.367 312.976 174.367 313.079V317.115C174.368 317.323 174.451 317.522 174.598 317.668C174.745 317.815 174.944 317.897 175.152 317.897C175.359 317.897 175.558 317.815 175.706 317.668C175.853 317.522 175.935 317.323 175.936 317.115V313.079C175.936 312.976 175.916 312.874 175.876 312.779C175.837 312.684 175.779 312.597 175.706 312.524C175.633 312.451 175.547 312.394 175.452 312.354C175.357 312.315 175.255 312.295 175.152 312.295Z" fill="#2F2E41"/>
<path d="M179.409 312.295C179.306 312.295 179.204 312.315 179.109 312.354C179.014 312.394 178.928 312.451 178.855 312.524C178.782 312.597 178.724 312.684 178.685 312.779C178.645 312.874 178.625 312.976 178.625 313.079V317.115C178.626 317.323 178.708 317.522 178.855 317.668C179.002 317.815 179.202 317.897 179.409 317.897C179.617 317.897 179.816 317.815 179.963 317.668C180.11 317.522 180.193 317.323 180.194 317.115V313.079C180.194 312.976 180.173 312.874 180.134 312.779C180.095 312.684 180.037 312.597 179.964 312.524C179.891 312.451 179.805 312.394 179.71 312.354C179.614 312.315 179.512 312.295 179.409 312.295Z" fill="#2F2E41"/>
<path d="M182.81 349.918C189.359 349.918 194.667 344.609 194.667 338.061C194.667 331.512 189.359 326.204 182.81 326.204C176.262 326.204 170.953 331.512 170.953 338.061C170.953 344.609 176.262 349.918 182.81 349.918Z" fill="#FFB8B8"/>
<path d="M265.642 352.198C272.191 352.198 277.499 346.889 277.499 340.341C277.499 333.792 272.191 328.484 265.642 328.484C259.094 328.484 253.785 333.792 253.785 340.341C253.785 346.889 259.094 352.198 265.642 352.198Z" fill="#FFB8B8"/>
<path d="M388.027 197.223C386.856 195.285 385.467 193.216 383.293 192.583C380.775 191.851 378.188 193.306 375.994 194.743C369.433 199.039 363.114 203.695 357.066 208.689L357.073 208.764C361.781 208.439 365.688 220.958 370.396 220.633C373.798 220.399 378.117 207.288 381.123 205.679C382.264 205.068 383.376 204.253 384.668 204.196C386.274 204.125 387.675 205.247 388.775 206.419C395.284 213.35 397.168 223.95 404.471 230.04C399.866 218.684 394.368 207.71 388.027 197.223Z" fill="#3F3D56"/>
<path d="M400.556 214.059C403.99 220.261 407.632 226.34 411.482 232.296V232.301C411.46 232.51 411.428 232.72 411.396 232.93C410.931 232.219 410.47 231.504 410.014 230.787C406.557 225.364 403.272 219.839 400.159 214.21C398.681 211.533 397.24 208.834 395.836 206.115C394.75 204.008 393.688 201.889 392.648 199.758C392.351 199.147 392.064 198.535 391.777 197.92C391.102 196.479 390.436 195.029 389.725 193.606C388.913 191.982 387.923 190.286 386.432 189.196C385.754 188.679 384.942 188.366 384.093 188.293C382.895 188.3 381.723 188.636 380.704 189.264C372.99 193.319 365.789 198.284 359.257 204.054C352.716 209.8 346.87 216.291 341.836 223.394C341.681 223.613 341.316 223.403 341.471 223.18C342.087 222.313 342.707 221.461 343.346 220.612C351.258 210.09 360.96 201.041 372.008 193.879C373.864 192.675 375.756 191.528 377.685 190.436C378.657 189.884 379.633 189.342 380.627 188.831C381.578 188.273 382.646 187.942 383.746 187.864C387.531 187.805 389.492 192.092 390.837 194.974C391.257 195.881 391.684 196.787 392.119 197.692C393.756 201.112 395.457 204.505 397.222 207.871C398.307 209.946 399.419 212.008 400.556 214.059Z" fill="#3F3D56"/>
<path d="M358.886 201.936C358.667 201.691 358.448 201.446 358.227 201.201C356.482 199.271 354.609 197.364 352.213 196.257C351.07 195.713 349.823 195.424 348.558 195.41C347.252 195.446 345.964 195.727 344.762 196.238C344.191 196.466 343.632 196.725 343.082 197.001C342.453 197.317 341.835 197.655 341.22 197.995C340.066 198.634 338.927 199.301 337.803 199.995C335.566 201.378 333.4 202.865 331.303 204.459C330.216 205.285 329.152 206.138 328.11 207.019C327.141 207.837 326.191 208.677 325.261 209.539C325.062 209.722 324.765 209.425 324.964 209.242C325.209 209.013 325.457 208.786 325.705 208.562C326.405 207.929 327.117 207.308 327.84 206.7C329.157 205.588 330.509 204.519 331.895 203.492C334.051 201.896 336.281 200.407 338.584 199.027C339.736 198.338 340.903 197.678 342.086 197.047C342.443 196.857 342.804 196.67 343.17 196.494C343.999 196.076 344.861 195.725 345.747 195.445C347.002 195.039 348.329 194.909 349.639 195.063C350.903 195.247 352.122 195.668 353.23 196.305C355.583 197.62 357.408 199.654 359.183 201.638C359.363 201.84 359.067 202.138 358.886 201.936Z" fill="#3F3D56"/>
<path d="M341.671 211.222C341.073 211.252 340.482 211.082 339.991 210.741C338.688 209.754 338.723 207.385 340.095 203.497C340.468 202.443 341.054 201.478 341.815 200.66C342.576 199.841 343.497 199.188 344.521 198.739C345.48 198.311 346.518 198.086 347.569 198.08C348.619 198.073 349.66 198.286 350.624 198.703C350.792 198.776 350.958 198.855 351.122 198.939C352.238 199.564 353.284 200.306 354.242 201.153C355.057 201.86 355.926 202.502 356.841 203.072L357.147 203.251L356.857 203.455C349.47 208.656 344.461 211.222 341.671 211.222Z" fill="#3F3D56"/>
<path d="M370.077 180.271C367.648 180.271 365.294 179.427 363.417 177.885C361.541 176.343 360.257 174.197 359.786 171.814C357.755 172.225 355.892 173.229 354.43 174.698C352.969 176.168 351.976 178.037 351.576 180.07C351.176 182.104 351.388 184.21 352.184 186.123C352.98 188.037 354.325 189.671 356.049 190.821C357.773 191.971 359.799 192.584 361.871 192.583C363.944 192.583 365.969 191.968 367.693 190.817C369.416 189.667 370.76 188.031 371.555 186.117C372.35 184.203 372.56 182.097 372.159 180.064C371.473 180.202 370.776 180.271 370.077 180.271Z" fill="#3F3D56"/>
<path opacity="0.74" d="M89.3048 197.145C97.9494 197.145 104.957 190.137 104.957 181.492C104.957 172.848 97.9494 165.84 89.3048 165.84C80.6602 165.84 73.6523 172.848 73.6523 181.492C73.6523 190.137 80.6602 197.145 89.3048 197.145Z" fill="#3F3D56"/>
<path opacity="0.74" d="M104.957 197.145C113.602 197.145 120.61 190.137 120.61 181.492C120.61 172.848 113.602 165.84 104.957 165.84C96.3125 165.84 89.3047 172.848 89.3047 181.492C89.3047 190.137 96.3125 197.145 104.957 197.145Z" fill="#6C63FF"/>
<path opacity="0.74" d="M97.2618 184.67C105.906 184.67 112.914 177.662 112.914 169.017C112.914 160.373 105.906 153.365 97.2618 153.365C88.6172 153.365 81.6094 160.373 81.6094 169.017C81.6094 177.662 88.6172 184.67 97.2618 184.67Z" fill="#FF6584"/>
<path d="M138.193 164.532L97.9883 177.163L98.2617 178.033L138.467 165.402L138.193 164.532Z" fill="#3F3D56"/>
<path d="M138.449 166.645C139.457 166.645 140.273 165.829 140.273 164.821C140.273 163.814 139.457 162.997 138.449 162.997C137.442 162.997 136.625 163.814 136.625 164.821C136.625 165.829 137.442 166.645 138.449 166.645Z" fill="#3F3D56"/>
<path d="M399.454 246.903C402.126 248.787 404.693 250.706 407.63 252.157C407.576 252.38 407.516 252.608 407.462 252.832C407.101 252.663 406.75 252.485 406.399 252.303C403.421 250.743 400.858 248.622 398.063 246.78C396.677 245.822 395.163 245.064 393.566 244.527C391.901 244.027 390.162 243.823 388.427 243.925C381.189 244.281 374.987 248.6 368.26 250.775C364.968 251.842 361.465 252.412 358.032 251.742C354.598 251.071 351.547 249.247 348.514 247.596C345.522 245.964 342.262 244.322 338.768 244.322C335.923 244.327 332.931 245.467 331.408 247.984C331.361 248.059 331.286 248.113 331.2 248.134C331.113 248.155 331.022 248.141 330.946 248.096C330.869 248.051 330.813 247.978 330.79 247.892C330.766 247.807 330.777 247.715 330.82 247.637C331.16 247.064 331.579 246.54 332.065 246.082C334.053 244.199 336.976 243.455 339.662 243.674C343.137 243.957 346.307 245.599 349.312 247.25C352.5 249.001 355.765 250.884 359.45 251.267C363.089 251.65 366.692 250.697 370.066 249.416C376.601 246.931 383.05 242.79 390.319 243.25C393.748 243.469 396.685 244.956 399.454 246.903Z" fill="#3F3D56"/>
<path d="M113.41 115.012V115.938C113.104 115.877 112.792 115.847 112.48 115.847H107.71V126.089C107.709 127.606 107.106 129.06 106.034 130.132C104.962 131.204 103.508 131.807 101.991 131.808H94.9408V133.386C94.9408 134.018 95.0663 134.645 95.3102 135.228H94.3342C94.1303 134.635 94.027 134.013 94.0287 133.386V131.808H90.1523V130.896H94.0287V120.653C94.0296 119.137 94.6323 117.683 95.7046 116.61C96.7769 115.538 98.231 114.935 99.7474 114.934H106.798V113.338H107.71V114.934H112.48C112.792 114.935 113.103 114.961 113.41 115.012Z" fill="#6C63FF"/>
<path d="M101.99 107.638H89.2578C87.7414 107.639 86.2873 108.241 85.215 109.314C84.1427 110.386 83.5399 111.84 83.5391 113.357V126.089C83.5399 127.606 84.1427 129.06 85.215 130.132C86.2873 131.204 87.7414 131.807 89.2578 131.808H101.99C103.507 131.807 104.961 131.204 106.033 130.132C107.105 129.06 107.708 127.606 107.709 126.089V113.338C107.704 111.825 107.099 110.375 106.027 109.307C104.955 108.239 103.504 107.638 101.99 107.638ZM106.797 126.089C106.795 127.363 106.288 128.585 105.387 129.486C104.486 130.387 103.265 130.894 101.99 130.896H89.2578C87.9835 130.894 86.7619 130.387 85.8609 129.486C84.9598 128.585 84.4529 127.363 84.4511 126.089V113.357C84.4529 112.082 84.9598 110.861 85.8609 109.96C86.7619 109.059 87.9835 108.552 89.2578 108.55H101.99C103.262 108.551 104.481 109.056 105.381 109.953C106.282 110.85 106.791 112.067 106.797 113.338V126.089Z" fill="#3F3D56"/>
<path d="M94.0274 130.896V131.808H94.9394V130.896H94.0274ZM94.0274 130.896V131.808H94.9394V130.896H94.0274ZM113.409 115.012C113.102 114.961 112.79 114.935 112.479 114.934H99.7461C98.2297 114.935 96.7756 115.538 95.7033 116.61C94.631 117.683 94.0282 119.137 94.0274 120.653V133.386C94.0257 134.013 94.129 134.635 94.3329 135.228C94.7179 136.358 95.4468 137.34 96.4175 138.035C97.3882 138.73 98.5521 139.104 99.7461 139.105H112.479C113.995 139.104 115.449 138.501 116.522 137.429C117.594 136.356 118.197 134.902 118.197 133.386V120.653C118.197 119.298 117.715 117.987 116.839 116.954C115.962 115.921 114.746 115.232 113.409 115.012ZM117.285 133.386C117.284 134.66 116.777 135.882 115.876 136.783C114.975 137.684 113.753 138.191 112.479 138.192H99.7461C98.4718 138.191 97.2503 137.684 96.3493 136.783C95.4483 135.882 94.9413 134.66 94.9394 133.386V120.653C94.9412 119.379 95.4481 118.157 96.3492 117.256C97.2502 116.355 98.4718 115.848 99.7461 115.847H112.479C113.753 115.847 114.976 116.354 115.877 117.255C116.778 118.156 117.285 119.379 117.285 120.653V133.386ZM94.0274 130.896V131.808H94.9394V130.896H94.0274Z" fill="#3F3D56"/>
<path d="M85.0208 249.781H30.9346C30.5581 249.781 30.197 249.93 29.9303 250.196C29.6637 250.462 29.5132 250.822 29.5117 251.199V254.405C31.2961 261.239 33.4565 267.97 35.9829 274.566H85.0208C85.2071 274.567 85.3916 274.53 85.5638 274.459C85.7359 274.388 85.8923 274.283 86.0241 274.151C86.1558 274.02 86.2603 273.863 86.3315 273.691C86.4027 273.519 86.4392 273.334 86.4391 273.148V251.199C86.4387 250.823 86.2891 250.462 86.0232 250.196C85.7573 249.931 85.3968 249.781 85.0208 249.781Z" fill="#6C63FF"/>
<path d="M79.8651 281.685H38.8672C39.3552 282.83 39.8522 283.965 40.3676 285.096H79.8651C82.0906 285.128 82.0678 281.653 79.8651 281.685Z" fill="#E4E4E4"/>
<path d="M79.8666 289.502H42.4258C42.973 290.646 43.5354 291.783 44.1131 292.913H79.8666C82.092 292.945 82.0693 289.474 79.8666 289.502Z" fill="#E4E4E4"/>
<path d="M79.8684 297.323H46.418C47.029 298.467 47.6584 299.603 48.2968 300.734H79.8684C82.0939 300.766 82.0711 297.291 79.8684 297.323Z" fill="#E4E4E4"/>
<path d="M360.263 87.1046H360.003C360.812 87.1053 361.609 87.2939 362.333 87.6556H361.15C359.876 87.6571 358.654 88.1639 357.753 89.065C356.852 89.9661 356.345 91.1878 356.344 92.4621V105.195C356.345 106.469 356.852 107.691 357.753 108.592C358.654 109.493 359.876 110 361.15 110.002H361.904C361.298 110.239 360.653 110.362 360.003 110.363H360.263C361.658 110.361 362.995 109.806 363.982 108.819C364.969 107.833 365.524 106.495 365.525 105.1V92.367C365.524 90.9718 364.969 89.6342 363.982 88.6477C362.995 87.6611 361.658 87.1062 360.263 87.1046Z" fill="#3F3D56"/>
<path opacity="0.21" d="M360.263 87.1046H360.003C360.812 87.1053 361.609 87.2939 362.333 87.6556H361.15C359.876 87.6571 358.654 88.1639 357.753 89.065C356.852 89.9661 356.345 91.1878 356.344 92.4621V105.195C356.345 106.469 356.852 107.691 357.753 108.592C358.654 109.493 359.876 110 361.15 110.002H361.904C361.298 110.239 360.653 110.362 360.003 110.363H360.263C361.658 110.361 362.995 109.806 363.982 108.819C364.969 107.833 365.524 106.495 365.525 105.1V92.367C365.524 90.9718 364.969 89.6342 363.982 88.6477C362.995 87.6611 361.658 87.1062 360.263 87.1046Z" fill="black"/>
<path d="M326.517 87.1046H326.257C327.066 87.1053 327.863 87.2939 328.587 87.6556H327.404C326.13 87.6571 324.908 88.1639 324.007 89.065C323.106 89.9661 322.599 91.1878 322.598 92.4621V105.195C322.599 106.469 323.106 107.691 324.007 108.592C324.908 109.493 326.13 110 327.404 110.002H328.158C327.552 110.239 326.907 110.362 326.257 110.363H326.517C327.912 110.361 329.249 109.806 330.236 108.819C331.222 107.833 331.777 106.495 331.779 105.1V92.367C331.777 90.9718 331.222 89.6342 330.236 88.6477C329.249 87.6611 327.912 87.1062 326.517 87.1046Z" fill="#6C63FF"/>
<path opacity="0.21" d="M326.517 87.1046H326.257C327.066 87.1053 327.863 87.2939 328.587 87.6556H327.404C326.13 87.6571 324.908 88.1639 324.007 89.065C323.106 89.9661 322.599 91.1878 322.598 92.4621V105.195C322.599 106.469 323.106 107.691 324.007 108.592C324.908 109.493 326.13 110 327.404 110.002H328.158C327.552 110.239 326.907 110.362 326.257 110.363H326.517C327.912 110.361 329.249 109.806 330.236 108.819C331.222 107.833 331.777 106.495 331.779 105.1V92.367C331.777 90.9718 331.222 89.6342 330.236 88.6477C329.249 87.6611 327.912 87.1062 326.517 87.1046Z" fill="black"/>
<path d="M327.455 110.041C326.181 110.04 324.959 109.533 324.058 108.632C323.157 107.731 322.65 106.509 322.649 105.235V92.5017C322.65 91.2274 323.157 90.0057 324.058 89.1047C324.959 88.2036 326.181 87.6967 327.455 87.6953H328.638C327.915 87.3336 327.117 87.145 326.308 87.1442H313.575C312.18 87.1458 310.842 87.7008 309.856 88.6873C308.869 89.6739 308.314 91.0115 308.312 92.4067V105.14C308.314 106.535 308.869 107.873 309.856 108.859C310.842 109.846 312.18 110.401 313.575 110.402H326.308C326.959 110.401 327.604 110.279 328.209 110.041L327.455 110.041Z" fill="#6C63FF"/>
<path d="M361.202 110.041C359.927 110.04 358.706 109.533 357.804 108.632C356.903 107.731 356.396 106.509 356.395 105.235V92.5017C356.396 91.2274 356.903 90.0057 357.804 89.1047C358.706 88.2036 359.927 87.6967 361.202 87.6953H362.384C361.661 87.3336 360.863 87.145 360.054 87.1442H347.321C345.926 87.1458 344.588 87.7008 343.602 88.6873C342.615 89.6739 342.06 91.0115 342.059 92.4067V105.14C342.06 106.535 342.615 107.873 343.602 108.859C344.588 109.846 345.926 110.401 347.321 110.402H360.054C360.705 110.401 361.35 110.279 361.955 110.041L361.202 110.041Z" fill="#3F3D56"/>
<path d="M376.238 90.3129C380.911 96.7417 385.186 103.45 389.039 110.401H381.067C379.672 110.399 378.335 109.844 377.348 108.858C376.362 107.871 375.807 106.534 375.805 105.139V92.4061C375.804 91.6861 375.952 90.9736 376.238 90.3129Z" fill="#FF6584"/>
<path d="M360.255 117.082L355.795 110.401L352.534 105.517C352.344 105.232 352.077 105.006 351.763 104.867C351.45 104.727 351.104 104.679 350.764 104.728C350.425 104.777 350.107 104.922 349.846 105.145C349.585 105.367 349.393 105.659 349.292 105.987L347.919 110.401L345.155 119.271C345.046 119.625 345.047 120.003 345.159 120.356C345.27 120.708 345.486 121.019 345.779 121.245C346.071 121.472 346.426 121.604 346.795 121.623C347.164 121.643 347.531 121.55 347.846 121.355L348.826 120.749C349.024 120.627 349.249 120.558 349.48 120.548C349.712 120.537 349.942 120.586 350.15 120.69C350.357 120.794 350.535 120.949 350.665 121.14C350.796 121.332 350.876 121.553 350.897 121.784L351.795 131.589C351.837 132.039 352.046 132.458 352.379 132.763C352.713 133.068 353.149 133.238 353.601 133.24C353.656 133.24 353.711 133.235 353.77 133.231L355.147 133.108C355.385 133.086 355.616 133.018 355.827 132.907C356.038 132.796 356.225 132.644 356.378 132.461C356.53 132.277 356.645 132.066 356.716 131.838C356.786 131.61 356.811 131.37 356.789 131.133L355.863 121.009C355.841 120.771 355.882 120.532 355.982 120.315C356.082 120.098 356.238 119.911 356.433 119.773C356.628 119.636 356.856 119.552 357.094 119.53C357.331 119.508 357.571 119.55 357.788 119.65L357.988 119.741C358.348 119.906 358.751 119.95 359.137 119.865C359.524 119.78 359.872 119.571 360.128 119.27C360.385 118.969 360.536 118.592 360.559 118.197C360.582 117.803 360.475 117.411 360.255 117.082Z" fill="#CCCCCC"/>
</svg>
