<svg viewBox="0 0 617 400" fill="none" xmlns="http://www.w3.org/2000/svg">
<path d="M430.156 23.5903H15.5234V220.341H430.156V23.5903Z" fill="#E6E6E6"/>
<path d="M418.299 40.4618H27.3789V204.617H418.299V40.4618Z" fill="white"/>
<path d="M429.976 12.2229H15.3438V29.8377H429.976V12.2229Z" fill="#6C63FF"/>
<path d="M28.4367 23.6354C30.2398 23.6354 31.7016 22.1737 31.7016 20.3706C31.7016 18.5674 30.2398 17.1057 28.4367 17.1057C26.6336 17.1057 25.1719 18.5674 25.1719 20.3706C25.1719 22.1737 26.6336 23.6354 28.4367 23.6354Z" fill="white"/>
<path d="M40.8234 23.6354C42.6266 23.6354 44.0883 22.1737 44.0883 20.3706C44.0883 18.5674 42.6266 17.1057 40.8234 17.1057C39.0203 17.1057 37.5586 18.5674 37.5586 20.3706C37.5586 22.1737 39.0203 23.6354 40.8234 23.6354Z" fill="white"/>
<path d="M53.218 23.6354C55.0211 23.6354 56.4828 22.1737 56.4828 20.3706C56.4828 18.5674 55.0211 17.1057 53.218 17.1057C51.4148 17.1057 49.9531 18.5674 49.9531 20.3706C49.9531 22.1737 51.4148 23.6354 53.218 23.6354Z" fill="white"/>
<path d="M119.703 166.209H317.278V132.345C317.248 128.775 316.505 125.246 315.093 121.966C313.681 118.686 311.628 115.722 309.054 113.246L309 113.194C305.472 109.653 293.678 100.667 281.476 101.429C275.031 101.83 269.512 104.936 265.075 110.662C251.262 128.489 233.118 122.471 223.532 117.298C215.083 112.737 206.455 110.597 197.886 110.937C185.884 111.407 168.992 115.828 156.673 134.226C151.967 141.248 141.734 150.779 119.703 156.38V166.209Z" fill="#E4E4E4"/>
<path d="M328.463 166.997H120.09C119.917 166.997 119.751 166.928 119.629 166.806C119.506 166.683 119.438 166.517 119.438 166.344V66.471C119.438 66.298 119.506 66.1321 119.629 66.0099C119.751 65.8876 119.917 65.8188 120.09 65.8188C120.263 65.8188 120.428 65.8876 120.551 66.0099C120.673 66.1321 120.742 66.298 120.742 66.471V165.692H328.463C328.636 165.692 328.802 165.761 328.924 165.883C329.047 166.006 329.115 166.172 329.115 166.344C329.115 166.517 329.047 166.683 328.924 166.806C328.802 166.928 328.636 166.997 328.463 166.997Z" fill="#3F3D56"/>
<path d="M159.72 128.59H158.441V166.078H159.72V128.59Z" fill="#3F3D56"/>
<path d="M198.013 111.081H196.734V166.078H198.013V111.081Z" fill="#3F3D56"/>
<path d="M236.388 122.593H235.109V166.079H236.388V122.593Z" fill="#3F3D56"/>
<path d="M274.752 101.489H273.473V166.079H274.752V101.489Z" fill="#3F3D56"/>
<path d="M313.123 116.197H311.844V166.078H313.123V116.197Z" fill="#3F3D56"/>
<path d="M197.456 115.875C199.617 115.875 201.368 114.124 201.368 111.963C201.368 109.802 199.617 108.05 197.456 108.05C195.295 108.05 193.543 109.802 193.543 111.963C193.543 114.124 195.295 115.875 197.456 115.875Z" fill="#6C63FF"/>
<path d="M274.198 105.643C276.359 105.643 278.111 103.892 278.111 101.731C278.111 99.5699 276.359 97.8181 274.198 97.8181C272.037 97.8181 270.285 99.5699 270.285 101.731C270.285 103.892 272.037 105.643 274.198 105.643Z" fill="#6C63FF"/>
<path d="M235.827 126.747C237.988 126.747 239.739 124.995 239.739 122.835C239.739 120.674 237.988 118.922 235.827 118.922C233.666 118.922 231.914 120.674 231.914 122.835C231.914 124.995 233.666 126.747 235.827 126.747Z" fill="#6C63FF"/>
<path d="M159.085 132.503C161.245 132.503 162.997 130.751 162.997 128.59C162.997 126.429 161.245 124.677 159.085 124.677C156.924 124.677 155.172 126.429 155.172 128.59C155.172 130.751 156.924 132.503 159.085 132.503Z" fill="#6C63FF"/>
<path d="M312.569 119.713C314.73 119.713 316.482 117.961 316.482 115.8C316.482 113.639 314.73 111.887 312.569 111.887C310.408 111.887 308.656 113.639 308.656 115.8C308.656 117.961 310.408 119.713 312.569 119.713Z" fill="#6C63FF"/>
<path d="M582.276 348.532C585.102 348.532 587.392 346.973 587.392 345.05C587.392 343.127 585.102 341.568 582.276 341.568C579.451 341.568 577.16 343.127 577.16 345.05C577.16 346.973 579.451 348.532 582.276 348.532Z" fill="#6C63FF"/>
<path d="M582.27 345.05C582.27 345.05 606.571 387.273 605.931 393.367L582.27 345.05Z" fill="#6C63FF"/>
<path d="M420.921 6.57556C420.921 6.57556 419.46 1.31511 417.268 0V6.57556C417.268 6.57556 408.5 5.26046 402.289 11.836L408.134 13.1511C408.134 13.1511 399.549 16.0005 397.723 28.2749L401.376 26.5215L411.24 47.5633L417.45 36.1656L429.872 48.8784L426.949 41.8644L431.698 44.0563L428.41 38.3575L443.023 44.9331L441.927 41.4261L447.282 50.3978C447.282 50.3978 465.674 31.3436 445.581 11.1785C445.581 11.1785 436.447 1.5343 420.921 6.57556Z" fill="#CFA96F"/>
<path d="M419.234 53.3929C419.234 53.3929 424.68 74.0879 423.047 76.811C421.413 79.534 438.84 94.2384 438.84 94.2384L455.723 90.9707L456.812 67.5527C456.812 67.5527 441.563 54.4821 444.831 44.6792L419.234 53.3929Z" fill="#FFB9B9"/>
<path opacity="0.1" d="M419.234 53.3929C419.234 53.3929 424.68 74.0879 423.047 76.811C421.413 79.534 438.84 94.2384 438.84 94.2384L455.723 90.9707L456.812 67.5527C456.812 67.5527 441.563 54.4821 444.831 44.6792L419.234 53.3929Z" fill="black"/>
<path d="M405.074 184.099C405.074 184.099 400.717 211.329 403.985 233.658C407.252 255.987 408.886 272.325 407.252 275.592C405.619 278.86 403.985 278.315 405.074 282.128C406.163 285.94 408.342 284.306 406.163 288.118C403.985 291.931 404.529 298.466 404.529 300.1C404.529 301.734 401.806 337.133 404.529 340.945C407.252 344.758 408.342 344.213 408.342 344.213L411.609 363.819L429.037 361.096L426.314 343.124C426.314 343.124 432.849 339.856 430.126 337.678C427.403 335.499 425.769 335.499 427.403 335.499C429.037 335.499 431.76 334.955 429.581 333.865C427.403 332.776 429.037 303.367 429.037 303.367C429.037 303.367 432.849 249.451 448.098 251.085C463.347 252.719 475.328 284.306 475.328 284.306L479.685 298.466C479.685 298.466 481.319 325.152 482.408 327.33C483.497 329.509 482.953 330.053 482.408 331.142C481.863 332.232 478.051 329.509 481.863 333.865C485.676 338.222 485.676 339.856 485.676 339.856L488.126 368.448L505.826 357.283V340.401C505.826 340.401 509.094 334.955 508.005 330.598C506.915 326.241 506.915 305.546 508.005 301.734C509.094 297.921 508.549 296.832 507.46 295.198C506.371 293.564 503.648 294.654 505.826 290.841C508.005 287.029 509.638 277.226 506.371 270.146C503.103 263.067 485.131 193.357 477.507 189.545C469.882 185.732 405.074 184.099 405.074 184.099Z" fill="#2F2E41"/>
<path d="M429.038 351.837C429.038 351.837 416.512 349.659 415.968 352.927C415.423 356.194 415.968 361.096 415.968 361.096C415.968 361.096 411.611 361.64 412.156 365.452C412.7 369.265 413.245 379.612 413.245 379.612C413.245 379.612 406.437 395.678 410.25 399.49C410.288 399.528 417.77 399.218 422.07 399.218H437.752C437.752 399.218 439.931 391.594 437.752 390.504C435.574 389.415 430.672 379.612 431.217 377.434C431.761 375.255 431.217 359.462 431.217 359.462L428.811 359.598L429.038 351.837Z" fill="#3F3D56"/>
<path d="M492.757 361.64L486.222 366.542C486.222 366.542 488.945 375.8 487.311 377.434C485.677 379.067 482.137 397.856 485.405 398.946C488.672 400.035 508.823 398.401 508.823 398.401C508.823 398.401 531.424 399.218 531.969 398.129C532.513 397.039 533.602 390.504 527.067 388.326C520.532 386.147 516.72 386.692 514.541 380.157C512.363 373.621 507.461 363.818 507.461 363.818L506.372 351.837C506.372 351.837 499.837 352.926 498.748 352.926C497.658 352.926 492.212 355.649 492.757 357.828C493.089 359.077 493.089 360.391 492.757 361.64Z" fill="#3F3D56"/>
<path d="M428.492 60.2009C440.974 60.2009 451.093 50.082 451.093 37.5997C451.093 25.1174 440.974 14.9985 428.492 14.9985C416.01 14.9985 405.891 25.1174 405.891 37.5997C405.891 50.082 416.01 60.2009 428.492 60.2009Z" fill="#FFB9B9"/>
<path d="M443.2 76.2666L451.369 61.988C451.369 61.988 470.43 61.0176 471.519 63.196C472.608 65.3744 481.867 173.206 481.867 173.206C481.867 173.206 486.223 179.197 483.5 183.009L480.777 186.822V194.446C480.777 194.446 467.162 205.338 448.646 203.16C430.129 200.981 406.711 191.178 406.711 191.178L411.612 160.681L411.068 70.8205L422.041 65.4723C422.041 65.4723 434.486 74.0881 436.664 76.8112C438.843 79.5342 443.2 76.2666 443.2 76.2666Z" fill="#3F3D56"/>
<path d="M424.143 76.2667L421.693 61.8346L388.199 85.525L406.716 139.986C406.716 139.986 395.279 160.681 397.458 168.305C399.636 175.93 400.725 187.366 400.725 187.366C400.725 187.366 430.134 194.991 429.589 191.179C429.045 187.366 429.589 170.484 429.589 170.484C429.589 170.484 439.111 99.9548 434.35 89.1999C429.589 78.4451 424.143 76.2667 424.143 76.2667Z" fill="#D0CDE1"/>
<path d="M454.096 69.1867L448.922 59.1115C448.92 58.7957 485.681 63.8804 487.317 67.0083L482.96 150.878C482.96 150.878 483.504 162.859 486.227 166.127C488.95 169.394 488.406 174.84 487.317 175.385C486.227 175.929 468.255 181.376 468.255 181.376C468.255 181.376 450.828 151.422 452.462 115.478C454.096 79.5342 454.096 69.1867 454.096 69.1867Z" fill="#D0CDE1"/>
<path d="M480.781 67.5531L486.549 66.3252C488.806 67.5954 490.601 69.5514 491.673 71.91C493.307 75.7222 512.368 116.568 512.368 119.291C512.368 122.014 512.912 142.164 500.931 142.164C488.95 142.164 479.691 90.9712 479.691 90.9712L480.781 67.5531Z" fill="#D0CDE1"/>
<path d="M399.082 208.605L408.885 223.31L414.331 204.793L410.519 199.347L399.082 208.605Z" fill="#FFB9B9"/>
<path d="M393.094 86.0689L388.193 85.5247L376.211 149.788L396.906 214.051L414.879 200.436L402.353 157.413L406.709 124.192L393.094 86.0689Z" fill="#D0CDE1"/>
<path d="M452.095 31.2229C449.102 20.3148 439.743 12.353 428.654 12.353C420.664 12.353 413.57 16.4868 409.109 22.8776L414.701 33.5943L420.277 24.4015L431.428 34.655L428.805 28.9979L433.068 30.7657L430.117 26.1694L443.236 31.4729L442.252 28.6444L448.484 36.7764C449.933 35.0971 451.148 33.2289 452.095 31.2229Z" fill="#CFA96F"/>
<path opacity="0.1" d="M477.238 93.9663L491.912 106.76L484.318 90.1536L477.238 93.9663Z" fill="black"/>
<path d="M471.132 73.8828L470.622 73.6795L473.381 66.7472C473.459 66.5513 473.498 66.3421 473.495 66.1313C473.492 65.9205 473.448 65.7123 473.364 65.5187C473.281 65.3251 473.16 65.1498 473.009 65.0028C472.858 64.8558 472.68 64.74 472.484 64.6621L456.832 58.4311C456.636 58.3531 456.427 58.3145 456.216 58.3174C456.006 58.3203 455.797 58.3647 455.604 58.4481C455.41 58.5314 455.235 58.6521 455.088 58.8032C454.941 58.9543 454.825 59.1329 454.747 59.3288L441.911 91.5725C441.753 91.968 441.759 92.4099 441.928 92.8009C442.096 93.192 442.413 93.5001 442.808 93.6576L458.46 99.8886C458.656 99.9665 458.865 100.005 459.076 100.002C459.287 99.9993 459.495 99.9549 459.688 99.8716C459.882 99.7882 460.057 99.6675 460.204 99.5164C460.351 99.3653 460.467 99.1867 460.545 98.9909L467.166 82.3585L467.677 82.5618L471.132 73.8828Z" fill="#2F2E41"/>
<path d="M461.177 72.6673C462.695 72.6673 463.925 71.4373 463.925 69.9199C463.925 68.4025 462.695 67.1724 461.177 67.1724C459.66 67.1724 458.43 68.4025 458.43 69.9199C458.43 71.4373 459.66 72.6673 461.177 72.6673Z" fill="#6C63FF"/>
<path d="M470.977 92.0601C470.977 92.0601 463.897 70.2759 455.183 74.0881C446.47 77.9004 458.451 100.774 458.451 100.774L466.076 105.675L470.977 92.0601Z" fill="#FFB9B9"/>
<path d="M508.55 119.835L470.428 89.8818L456.812 110.032C456.812 110.032 492.757 148.155 500.926 140.53C509.095 132.906 508.55 119.835 508.55 119.835Z" fill="#D0CDE1"/>
<path d="M616.168 398.567H0V400H616.168V398.567Z" fill="#2F2E41"/>
<path d="M598.262 347.962V372.662C593.171 365.609 583.018 358.346 563.992 352.451L598.262 399.523V399.88C598.262 399.88 598.327 399.845 598.447 399.777L598.505 399.857C598.505 399.857 598.554 399.792 598.642 399.665C602.635 397.353 636.121 376.499 598.262 347.962Z" fill="#3F3D56"/>
</svg>
