<svg width="21" height="20" viewBox="0 0 21 20" fill="none" xmlns="http://www.w3.org/2000/svg">
<path d="M5.06875 20C6.59404 20 7.91302 19.4562 8.98463 18.3846C10.1093 17.2599 10.6942 15.5263 10.538 13.8838L19.1148 5.30696C19.7003 4.72024 20.029 3.92511 20.0286 3.09623C20.0282 2.26735 19.6989 1.47251 19.1128 0.88633C17.9331 -0.295443 15.874 -0.295443 14.6942 0.88633L5.79685 9.78368C3.88097 9.95293 1.98413 11.307 1.98413 13.7086C1.98413 14.012 2.00516 14.2974 2.02619 14.5699C2.10631 15.6024 2.13535 15.99 0.552981 16.7812C0.397558 16.8591 0.265087 16.9762 0.168579 17.1208C0.0720715 17.2655 0.0148455 17.4327 0.0025214 17.6062C-0.00980271 17.7796 0.023199 17.9533 0.0982854 18.1101C0.173372 18.267 0.287961 18.4016 0.430798 18.5008C0.520933 18.5608 2.62709 20 5.06875 20C5.06775 20 5.06775 20 5.06875 20ZM16.1103 2.30145C16.324 2.09645 16.6088 1.98215 16.9049 1.98253C17.201 1.9829 17.4855 2.09792 17.6987 2.30346C17.8029 2.40761 17.8855 2.53127 17.9419 2.66737C17.9983 2.80347 18.0273 2.94933 18.0273 3.09665C18.0273 3.24396 17.9983 3.38982 17.9419 3.52592C17.8855 3.66202 17.8029 3.78568 17.6987 3.88983L10.0152 11.5734L8.42679 9.98498L16.1103 2.30145ZM4.02419 14.4146C4.00616 14.1903 3.98713 13.9559 3.98713 13.7076C3.98713 12.1602 5.4343 11.7516 6.20045 11.7516C6.55699 11.7516 6.9005 11.8247 7.1659 11.9579C8.11232 12.4337 8.42779 13.2529 8.52494 13.8568C8.70221 14.9484 8.30761 16.2283 7.5675 16.9685C6.87546 17.6605 6.05824 17.997 5.06875 17.997H5.06775C4.31663 17.997 3.58653 17.8007 2.99064 17.5694C4.07426 16.5949 4.11332 15.5774 4.02419 14.4146Z" fill="#36BCFF"/>
</svg>
