<svg width="23" height="20" viewBox="0 0 23 20" fill="none" xmlns="http://www.w3.org/2000/svg">
<path d="M11.0849 1.73169C9.87388 0.618099 8.28869 5.17434e-05 6.64346 0C5.77266 0.000906638 4.91064 0.174013 4.10699 0.509357C3.30335 0.844701 2.57396 1.33566 1.96079 1.95398C-0.654523 4.58042 -0.653412 8.68845 1.96302 11.3038L10.1124 19.4532C10.3014 19.7855 10.6659 20 11.0849 20C11.257 19.9983 11.4263 19.9563 11.5791 19.8774C11.732 19.7984 11.8643 19.6847 11.9652 19.5454L20.2069 11.3038C22.8233 8.68734 22.8233 4.58042 20.2047 1.94954C19.5918 1.33235 18.863 0.842388 18.0601 0.507817C17.2573 0.173246 16.3962 0.000666452 15.5264 0C13.8812 0.000268933 12.2961 0.618287 11.0849 1.73169ZM18.633 3.52117C20.3703 5.26731 20.3714 7.99489 18.6352 9.73213L11.0849 17.2824L3.53465 9.73213C1.79852 7.99489 1.79963 5.26731 3.53243 3.52562C4.37715 2.68534 5.48197 2.22296 6.64346 2.22296C7.80496 2.22296 8.90533 2.68534 9.74339 3.5234L10.2991 4.07914C10.4023 4.18245 10.5247 4.2644 10.6596 4.32032C10.7944 4.37624 10.939 4.40503 11.0849 4.40503C11.2309 4.40503 11.3755 4.37624 11.5103 4.32032C11.6451 4.2644 11.7676 4.18245 11.8708 4.07914L12.4265 3.5234C14.1071 1.84617 16.9547 1.85062 18.633 3.52117Z" fill="#FF8A00"/>
</svg>
