<svg width="23" height="20" viewBox="0 0 23 20" fill="none" xmlns="http://www.w3.org/2000/svg">
<path d="M2.22222 17.7778H4.44444C4.44444 19.0033 5.44111 20 6.66667 20H15.5556C16.7811 20 17.7778 19.0033 17.7778 17.7778H20C21.2256 17.7778 22.2222 16.7811 22.2222 15.5556V4.44444C22.2222 3.21889 21.2256 2.22222 20 2.22222H17.7778C17.7778 0.996667 16.7811 0 15.5556 0H6.66667C5.44111 0 4.44444 0.996667 4.44444 2.22222H2.22222C0.996667 2.22222 0 3.21889 0 4.44444V15.5556C0 16.7811 0.996667 17.7778 2.22222 17.7778ZM20 4.44444V15.5556H17.7778V4.44444H20ZM6.66667 2.22222H15.5556L15.5567 17.7778H6.66667V2.22222ZM2.22222 4.44444H4.44444V15.5556H2.22222V4.44444Z" fill="#36BCFF"/>
</svg>
