<svg width="19" height="20" viewBox="0 0 19 20" fill="none" xmlns="http://www.w3.org/2000/svg">
<path d="M18.0189 4.90021C18.0023 4.73217 17.9433 4.5711 17.8475 4.43207C17.7517 4.29304 17.6221 4.18061 17.471 4.10529L9.47183 0.105705C9.33292 0.0361917 9.17972 0 9.02438 0C8.86904 0 8.71584 0.0361917 8.57693 0.105705L0.577761 4.10529C0.42705 4.18104 0.297903 4.29361 0.202292 4.43257C0.10668 4.57153 0.0476999 4.73238 0.0308184 4.90021C0.0198195 5.00719 -0.930082 15.6661 8.61892 19.9126C8.74651 19.9702 8.8849 20 9.02488 20C9.16486 20 9.30325 19.9702 9.43084 19.9126C18.9798 15.6661 18.0299 5.00819 18.0189 4.90021ZM9.02488 17.8958C2.25659 14.6242 1.93662 7.64192 1.99161 5.63513L9.02488 2.1185L16.0531 5.63313C16.0901 7.62192 15.7252 14.6502 9.02488 17.8958Z" fill="#FF8A00"/>
<path d="M8.02693 10.5856L5.73416 8.29282L4.32031 9.70667L8.02693 13.4133L13.7333 7.70688L12.3195 6.29303L8.02693 10.5856Z" fill="#FF8A00"/>
</svg>
